<mxfile host="app.diagrams.net" agent="Mozilla/5.0 (Macintosh; Intel Mac OS X 10_15_7) AppleWebKit/537.36 (KHTML, like Gecko) Chrome/129.0.0.0 Safari/537.36" version="24.7.16" pages="3">
  <diagram name="Page-1" id="skFlracqUR-yRZSRm2Et">
    <mxGraphModel dx="932" dy="614" grid="1" gridSize="10" guides="1" tooltips="1" connect="1" arrows="1" fold="1" page="1" pageScale="1" pageWidth="827" pageHeight="1169" math="0" shadow="0">
      <root>
        <mxCell id="0" />
        <mxCell id="1" parent="0" />
        <mxCell id="WtDKhErMnv2pkWxC0K19-19" value="" style="shape=process;whiteSpace=wrap;html=1;backgroundOutline=1;" vertex="1" parent="1">
          <mxGeometry x="160" y="200" width="138.45" height="56.25" as="geometry" />
        </mxCell>
        <mxCell id="WtDKhErMnv2pkWxC0K19-10" style="edgeStyle=orthogonalEdgeStyle;rounded=0;orthogonalLoop=1;jettySize=auto;html=1;entryX=0;entryY=0.5;entryDx=0;entryDy=0;" edge="1" parent="1" source="WtDKhErMnv2pkWxC0K19-19" target="WtDKhErMnv2pkWxC0K19-5">
          <mxGeometry relative="1" as="geometry" />
        </mxCell>
        <mxCell id="WtDKhErMnv2pkWxC0K19-36" style="edgeStyle=orthogonalEdgeStyle;rounded=0;orthogonalLoop=1;jettySize=auto;html=1;entryX=0;entryY=0.5;entryDx=0;entryDy=0;" edge="1" parent="1" source="WtDKhErMnv2pkWxC0K19-3" target="WtDKhErMnv2pkWxC0K19-19">
          <mxGeometry relative="1" as="geometry" />
        </mxCell>
        <mxCell id="WtDKhErMnv2pkWxC0K19-3" value="OLTP" style="shape=cylinder3;whiteSpace=wrap;html=1;boundedLbl=1;backgroundOutline=1;size=15;" vertex="1" parent="1">
          <mxGeometry x="20" y="259.75" width="60" height="80" as="geometry" />
        </mxCell>
        <mxCell id="WtDKhErMnv2pkWxC0K19-35" style="edgeStyle=orthogonalEdgeStyle;rounded=0;orthogonalLoop=1;jettySize=auto;html=1;entryX=0;entryY=0.25;entryDx=0;entryDy=0;" edge="1" parent="1" source="WtDKhErMnv2pkWxC0K19-4" target="WtDKhErMnv2pkWxC0K19-19">
          <mxGeometry relative="1" as="geometry" />
        </mxCell>
        <mxCell id="WtDKhErMnv2pkWxC0K19-4" value=".CSV" style="whiteSpace=wrap;html=1;shape=mxgraph.basic.document" vertex="1" parent="1">
          <mxGeometry x="15" y="90" width="70" height="90" as="geometry" />
        </mxCell>
        <mxCell id="WtDKhErMnv2pkWxC0K19-9" style="edgeStyle=orthogonalEdgeStyle;rounded=0;orthogonalLoop=1;jettySize=auto;html=1;" edge="1" parent="1" source="WtDKhErMnv2pkWxC0K19-5" target="WtDKhErMnv2pkWxC0K19-6">
          <mxGeometry relative="1" as="geometry" />
        </mxCell>
        <mxCell id="WtDKhErMnv2pkWxC0K19-5" value="" style="shape=image;verticalLabelPosition=bottom;labelBackgroundColor=default;verticalAlign=top;aspect=fixed;imageAspect=0;image=data:image/png,iVBORw0KGgoAAAANSUhEUgAAAOEAAADhCAMAAAAJbSJIAAAAilBMVEX///8AAAD09PTd3d3BwcGmpqbs7Oz4+Pjo6OjGxsbi4uKrq6vKysrw8PD19fX7+/saGho7OztVVVWbm5sxMTEsLCy1tbW7u7tzc3OWlpZpaWlLS0uKiorX19fR0dF6enpqampbW1uNjY0iIiJFRUWCgoIPDw8cHBw5OTl4eHgnJycLCwtISEhgYGBcfZIDAAALxElEQVR4nN1d60LiSgzmotw5iAjeBVRcV5f3f70juqw0+SaTlDbT+v01YEKnuSfTaBSF9uJu+3zWbL5M15vhfWFfWxVc3jQJzofd1EwVh86GiveFVTs1Z8WgdYXl22HdS81dAZiF5dthk5q/Y9F5lQX8UDz1Pqr9mHw7DFNzeQRONQLW+aRe6wT8UKqpOc2JiI45xFVqXnPhUi9gs3mdmtscGFgEbDZHqfm148wmYfO/1AxbEXDUwjhPzbERxjO6w0lqnm24RTLMH/uDcas3mj2jv76k5tmEByDB9sA96/0GBIt0/Npxzvl/yFIM5rV+iD3G/TMnYjFxnSwGc9duERWLG2+8+cwPagt/YTKmjny5PALskA4wXZfS9X35zI8hYTwYHVHCO08ujwF9wcIOGSEE+qiauMjyvQpTUpXkxeGxIGwL7libkHb8mDwGLcL2WKAlpDVJhVOvW6KdZklrokzJ0XuTaLdZ2ksvHo8DkfBCor35CRKeSbTrWkpIXRqJ9i1LWhPfe0IkDPhsiLQuGX7C9mmYckRI65KOIjHDNExJ/Ts/Ho/DHeE7aMepb7D25PIYnBDGgw41fYQzTy6PAYv7AvUzlq+qi6IBwTtUp/SM1uc1bDQWjHdQr++yvP+jP6e5wSTktpwGTvhnCGJSILd5QLXpB35neQLVU13loj1c/nn/pH+53SwEb6Jc8FfsA3f/2OnA4qkiOOzzzpXNQ/xjZQA8xN2vfjUbDmfLN/jHqDGcBIrKZ2laHTAzEmIZDKkrQHAMSwO1+lFErH2kb+UpQf5D6PVCEJxX3bclyLXity0EMaoYPym+4dndgEB9GoLorwHTCeGeizRUusXY/l79Ne6djmoRxSSi9gnuIKVmS0HnRcWXqAfHBgHlrFc5AOVuirn8w/NquIQEPSvR9sRIY6K1LyeB7R+vJYYuIkGvXsvskaK48/AnxM1TNAOsMYRZwJaB0tFG7TPNbTz/S4vEn3i/6/cmjW7vBJ/gVFnl/ib7OFYLzbgFEODiUIJL0B/4WpYIUWSeh+4jPBvCklqPnCRRwEi0qi65fcG45zE9TZt/nP6iOdciI2FL8wnuzSBFyalSjRvZJWQxLzYtLBRN1QJol5Ae0lCQTIPHVN1jZgn/I4wHexdpjS5VZtksIdUh4cNHFWqiHKNZQppaC1N2CGWihmqzhMss29LbRd7YRDUss4Qk8pKiBuK/JRqkMktIuokkf5P4r6tiOLbCLCGJK6Q4i5jERLVks4TEq5YUJMkXJ5pOMUtI8hdSNodMkSXyTM0SksBZipaJYUk07JeRUOMck543qUJsIC0P3UzB7UTxEImnMhdIs5QpJotPlr8IE833q8vIg6Txb1jV0MKUdwzcJ02k3zgXM1E0ZR5+u2iqyzdAjEwDPwrHldKGyhLURZfOc+FQjHNvgr84bcsJ5ZjYr1aSMAAgk4SAPc7xlBEuISGrHLjVg8dwzBJhDpQI/HVQoZfNwLlN+Zmm1Wm8MwlopxX9LxP+M3rFTkvAn4Css8xThHu8ZEMM9DM6aVL1Cd3j7UCpigWn6eW+YN8aol4Bn5aFia3q94V9MnQQLcdMl9ez6988X/wJl0c4sZeMvkU0rNNA8Ckg5nmCO3wc1BacZNfDpy5jfgf3eLIpYASXAql5YcQ3dJ0NAlzyiEc/BgLu2oThsgTG1AqlwIjOtwnAXl3RyP0SQqx3to/vJsDwSZNKZ/RqOBp0Or2HxUa7vOZvsK57s528teD/X2Y8/gFuIs7i9Z9i1AQpTvOnIXMNgsCoZT9UG9HNdreqimQBwP9+DqPzlvjK0l18sPHkH9zKvrjH63eIXMgAgKRMmNqx1vSO/r9gpIJ6Cb9UQ+RsP3uW7WFYJ1phLOJ5MD7ona4zlNuhb0vpCnAbybAjfSNOf39IOVrMHu8eZ4uRf5ce4Facxt8BdaB66UUz0ExEdKSQdlzsUNmdWGieK/4pcE4ru04JaDqNHgAPsXRW84E17igfBrBzFV2gDDqWVd2sfPdZVbdHAPdY90GeE6zoOlN+2pQ9EVxDVXQnLc9yKx8Fd2zStKNHwbMNyteJv8CuFUA9eDCkrDbTxrtmVc0Fl1BZyANuTbmc5sXPl5D70D/tlP58TZPbWnBXoaKLoXNbfJ4OrajFz+218WpjRVfxAM9blaUF48JV3e3NOVU1eoLhrIpGTw2Ql9bkivinKmosYBZjFf8UCIAVn0oDlC6NujVoGr2ymSh03qIT8mhIuLLZRLiBJJKqAWomau9b7dHJ5clDO8GcIczqiz1KuKIk+EL314fu73rmvZcG9lIIIoZKZlOchWyjYvCd66Qarq4FD6pQCAbKph/qyrj17OvGLPyCuf2O2EdCnYW2VAW+9XMRQmswrtixm0Qr+ZknE2vm9Ot8DrKwymSH7zXtp98v8CDeLDX3KrVJO762s5P7waDdP0V1Rsj138Ona7PyWhexVnKvw2dDjfKCOi9XiC0vPQ7nXUPDqZOIqjsPDUBeTwhOcaWm3aksOFn/dV7+5tYOfw4fCemMshpdaQ5BB68CeaCNPoJPr6CrWA8mwesCiRxP8X3v9sgdbJ+Yr7fnoXkAJwkba6uAF9/RXk/u9d9vnZ2M4EZMt31mFiXfpO+PoI4zsWMXhVNeEtp0Bp3cRZfv7cC8T7BV0S/L011r5XsFwQ/sXwf5jQnTap7LvvqwG5MBj16DIsEfSMhUTgWC/gyCkd2YPR1Mx8qPzlWPodyXfy3sxqUT7qHwiJoX98vNHoJrjreip0yfTTjJSM9p4SLEMXpkWZa3TSwQoMF0ON9EX9lEV39lGD5VLG42XDtHKBNVBTJlQk0gRw63NPNDfNlEbXEZ26yRkHSvSA+GPG5F324ZMEtIjIWU9iUvYqIeY7OExFhIdrwae6KOlbD6m7DMEhID8wNPKdE00uIgEqr5zJIymCUk1kJSkKSQXBdrobf4NAudyOKbJaReWzjHRCOYRHd/mSWknnf4GhMahhbHtAlmCVnNPNTMSQsbqTob7RKyNBPuQmF9cSluDtrBLiFLR8HBRN5DnepmaLuEvKD8yoOuMSsPJ7u/PIeEoHJI1SSo5SUbmsoMcOkq0mAarrk8fBl7KOdYDvtRnCwzyZSXK9XdCDBxfnP5VeHoLGARJ4m5b8NclOJ+i2Brx8U0VNt4Kl8chofgYqS36Ouo3Np3AP+7HzpiPfA15mBZq4n+YUU06R1Zr2Zs7XA/o5Pj73uy3Rbkbew7usqMnMC17J3yfgmLuXdN3RLlV8Pfo6i78zSFfcW3FA/TlXCyStWVk93jXtvuRPnyoE58T+Gte1+7tsPyL2IBQazxwT8mLPou2UZPMjyrBBMaVgEVpux+HZIvxb0yuCHm7OtOZ/xSKVLxnWv+cl+cJpmwKete7o/DOrz6/oFelwv3m0f/ArQqLQu6W32Hcfv+4X6QdDqKs8+sMfAHqjpXCcCjOsB8l7WhpLmWIhfYdgWo7PjL6s1nbrCYLlAYY/nQRPUGO6i1D/or9HrSig6pc1BjGDQD9Jwmqk7bQV7DcM2IDZ368XgcCNuCU0zDIt31pMlBM9WC10hJa6Jq6P41iZYsMkt1W7ERpPVanFdfZ2kruomOgkgobiO9+QkSihtMt7WUkPrUEi2ZrfFOB+YEteNSCEdIEzX3mkHYFgpMdB4kVQXeCtIYugpTGhqdKwXqi4U9FUKYrMfACpqFD3ZoU0Kfi4wKAFsqG/DbWBxZE1XaYLfANn9hMpYK8OXyGLBEGty4ytoXKrvkmoPvPgY6hN+tUhO/+xOgxkDKswOe+I6ulKoS0Ajo9iD469EMzQ7V3fCFAK8fmT/2B+NWbzSDDTZuFzMWA0OFe4+q7koMwXw1WUVXlgrQXum0R02SUAcwntM6WYo9TDfMVXSRfgSGyygrulU3CsWFzl9YpeY0N5T9Wj533pUD1c6oBLfZF4hx7EY4dr9a/RDRN3U+oXu0gisVms11jZoTJHQCLtxV7Q/oAS5ZvHs+TLAkt1y0F3fb5w9v9WW63QwrlNz+H10Qi6GSM92cAAAAAElFTkSuQmCC;" vertex="1" parent="1">
          <mxGeometry x="360.95" y="191.88" width="72.5" height="72.5" as="geometry" />
        </mxCell>
        <mxCell id="WtDKhErMnv2pkWxC0K19-16" style="edgeStyle=orthogonalEdgeStyle;rounded=0;orthogonalLoop=1;jettySize=auto;html=1;" edge="1" parent="1" source="WtDKhErMnv2pkWxC0K19-6" target="WtDKhErMnv2pkWxC0K19-15">
          <mxGeometry relative="1" as="geometry" />
        </mxCell>
        <mxCell id="WtDKhErMnv2pkWxC0K19-6" value="" style="shape=image;verticalLabelPosition=bottom;labelBackgroundColor=default;verticalAlign=top;aspect=fixed;imageAspect=0;image=data:image/png,iVBORw0KGgoAAAANSUhEUgAAAXgAAADICAYAAADiIPpnAAAAAXNSR0IArs4c6QAAAAlwSFlzAAALEwAACxMBAJqcGAAABBdpVFh0WE1MOmNvbS5hZG9iZS54bXAAAAAAADx4OnhtcG1ldGEgeG1sbnM6eD0iYWRvYmU6bnM6bWV0YS8iIHg6eG1wdGs9IlhNUCBDb3JlIDUuNC4wIj4KICAgPHJkZjpSREYgeG1sbnM6cmRmPSJodHRwOi8vd3d3LnczLm9yZy8xOTk5LzAyLzIyLXJkZi1zeW50YXgtbnMjIj4KICAgICAgPHJkZjpEZXNjcmlwdGlvbiByZGY6YWJvdXQ9IiIKICAgICAgICAgICAgeG1sbnM6eG1wTU09Imh0dHA6Ly9ucy5hZG9iZS5jb20veGFwLzEuMC9tbS8iCiAgICAgICAgICAgIHhtbG5zOnN0UmVmPSJodHRwOi8vbnMuYWRvYmUuY29tL3hhcC8xLjAvc1R5cGUvUmVzb3VyY2VSZWYjIgogICAgICAgICAgICB4bWxuczp4bXA9Imh0dHA6Ly9ucy5hZG9iZS5jb20veGFwLzEuMC8iCiAgICAgICAgICAgIHhtbG5zOnRpZmY9Imh0dHA6Ly9ucy5hZG9iZS5jb20vdGlmZi8xLjAvIj4KICAgICAgICAgPHhtcE1NOkRlcml2ZWRGcm9tIHJkZjpwYXJzZVR5cGU9IlJlc291cmNlIj4KICAgICAgICAgICAgPHN0UmVmOmluc3RhbmNlSUQ+eG1wLmlpZDoyREI0MUQzNjE1NDYxMUU2QTQ0NUYwOUYzNzQxMjg4RTwvc3RSZWY6aW5zdGFuY2VJRD4KICAgICAgICAgICAgPHN0UmVmOmRvY3VtZW50SUQ+eG1wLmRpZDoyREI0MUQzNzE1NDYxMUU2QTQ0NUYwOUYzNzQxMjg4RTwvc3RSZWY6ZG9jdW1lbnRJRD4KICAgICAgICAgPC94bXBNTTpEZXJpdmVkRnJvbT4KICAgICAgICAgPHhtcE1NOkRvY3VtZW50SUQ+eG1wLmRpZDoyREI0MUQzOTE1NDYxMUU2QTQ0NUYwOUYzNzQxMjg4RTwveG1wTU06RG9jdW1lbnRJRD4KICAgICAgICAgPHhtcE1NOkluc3RhbmNlSUQ+eG1wLmlpZDoyREI0MUQzODE1NDYxMUU2QTQ0NUYwOUYzNzQxMjg4RTwveG1wTU06SW5zdGFuY2VJRD4KICAgICAgICAgPHhtcDpDcmVhdG9yVG9vbD5BZG9iZSBQaG90b3Nob3AgQ0MgMjAxNSAoTWFjaW50b3NoKTwveG1wOkNyZWF0b3JUb29sPgogICAgICAgICA8dGlmZjpPcmllbnRhdGlvbj4xPC90aWZmOk9yaWVudGF0aW9uPgogICAgICA8L3JkZjpEZXNjcmlwdGlvbj4KICAgPC9yZGY6UkRGPgo8L3g6eG1wbWV0YT4KXB+9AQAAZPlJREFUeNrtfQmcHFW1/kwej+f23IXMTEB9gltcHyhbkumumpkQFHyKuCGoiElmJmF35YlB9OG+gBt/VFxwi4o7Lk9eZFMUF1AQEchsAbKQjT3TPT3/8917TvXpmuqllu7pSe79/eo3k8xMdfXtqu+e+53vfKejww033HCjzcb0mo55dOxV9ecdHZ34Ob662XLDDTfcmCNjXQjYbzu5Z8Hoyu4Xr185/6Vjw/MX3rb6iY/VQL/2uI5/cbPmhhtuuNHOUTuicgXWY0PdR48Ndn9ldLD7Bvr+7rHh7q30/dj4UM9vxoe7zhtbPf+5waKQqx7tu+GGG264MdvgTrSMAfbBff+DAP1SAvNd207rmd5Kxz2nlo9tpy2Y3nxKzzT9zvjoUPdZsiisW+NA3g033HCjbcF9YnjBIQTcf91x+oLpjasNiE+NDfVMEpBPUgS/y3wd6i6MD3UbsN+E36EofyvTNg7k3XDDDTfaaAgojwz1vIiA+9Z7z1hggN2A+WB3ib6fjjim6Ge7NqzqnsZiQH/3zY1n7ftos2A4kHfDDTfcaIPoncH49pX77kMgfdVOA+49kzZyjwT20NEziWh+uwX5C4PzusSrG2644casgvs8+Z6A+lPg2zliLzYG7sFRQCR/N9E1xNsPR53fDTfccMONFg6hZkaHFxxF0fcD4NyZY5+Oe+DvttjE6z3g8V0U74Ybbrgxe9G7AfcbT9j30SR7vHwnUSxJwV0dk5aP77l84vQFjzSLiJNPuuGGG260GOA5uh4b7DkOfPtdqww9U0wJ8Ia333SKo2rccMMNN2ZlCDXzx+Ud/0rSx7U2sZo6eg/4+C2nGqpmZGJowQF6MXHDDTfccKPZ0TsD/Nhg10FEy2zioqVCJgBPSVri84vbTzNqnC+4KN4NN9xwo1XgPl02ByMwXs3gPl1D7x77AMDfucomXieGuo4UgHfGZG644YYbTRxCzwBwx4e7v4HkambRe/kwUktYHNDXq/5x0pP/Ha/pTMnccMMNN5oZwTPAT6xc0EMR9o2gUkaz49+jE67kV2NeG5YI0y6Kd8MNN9xoDsCLemaoexEB7867rd9MMWuAH7Vfi5ssBbRhbIV1nnQJVzfccMONZoA7ImjmwceGu04AuI+raDvzA7w+HZaq6fqq2kW4hKsbbrjhRqYAr4CVgP39zJFPMWc+3aSjaDT2xPOPrux6pYvi3XDDDTeaMLSVL9wflbHYdBMPm3CFNn6w6/cjpz3t8Q7k3XDDDTeyj+BZ/77/E4gjv3bH6U1LsM6QTU4MS8K1573mWhRd5IYbbrjhRlqA56h5dKjrOQS8ozAHG48nkSyloHQKbEZ2N/q76gVnTs0hK4HcAuWGG260WwRvOPjRlT0erAlQjBQjwVoi3fy0+RtbFFVKIJucgiUx6KHwNbUtmNP1Qb9vCrW4WCs4pit/7u4wN9xwY3bASunPJ4a637pRFDQNVrCy2uZBOnYC5MeTKW8KLMssjA33vAbX0m4t/gyIA7BxxNTsyyLg7jY33HBjVugZDDIY+wgaZ49b/XupAT371D3WQOxPlJQ9kb7eaSwOkrlPFrbZ4qrrbl3e/eTZpmpMFE5zA1vjauCMCH181X7d40PzXzK+qvsYoriOJ7fMN5Dv/VETgwteIInjubArccMNN3bDEVgUAKyGui9r2EHSRvhT1jys+6c4B/m9n73dLhBTcT1ssKiA6jHNRQZ7/jugQlpU4Wpey1Iqe9VS8gDQaZfhjw93vYfe7/dpQbqVrv2+cW44Lu0K6es2+vkf6Ov56wnsHci74YYbsxbBjww9ZT6B0Z+3ntZwgtVQMbAApt//LM6x/tR99sU5tiW0OcDf8I5gQhKuf1x+0L82lXZZYyL0vaotJNhNjA73HAYDNrquS+n4u+lSRdeJxQw7Fuj5QU9BETTB+QhQTvfw79D8bKbd0SkO5N1ww42WjrUBwPe8iEBoK3PwjVAsRuIIICPuflUQ4Q51vx6RLCdqi7ErXANLYVXhmpE2HlE6dizwu692zttWP/GxWFwo+n7z+FDX5zkKvx9ADvkogJ3fm7lWnqupKgd+VsTfQAqKqN/dcW644UZroncl6QOHDIpkw3DDChqpRH1ofFXXUk35jA92fyuFG6UkXCepwvXYtACPBQy7gGp8PloIGnnoqp7jCKw/Oj7cs46+bsFCB0DHboTfp+QWLKCzYmi0nnzU2jLs2iR9bYnecXeeG2640XyAV1QBReNv32wdHhtV0BRtVNo9MbFiwYE2+j3g3wxVs3L+S9EwhPXtkyop2zBVA3Cl67hGEq6Iuht5T2uYdmFQn0GFYAEaG9z3PwhoX06v9T7kDygxOobdyHZ6TbzuplMCL54iL1KNAnqNnUkPv6eur7k7zw033Gg+wKvImEDuYgbVYgNa9lJZQdPzh41n7ftoXjCCKJl+vob59CSmZeb3seCMDHW/K2pBqtiFIDlKgF6tkffo8qd2QeNP1bJn0nm/TcctAG7kG7DTwHUC4JlumTTAnkzTX9NBkxfQW5DvcHefG2640RKAv3noKY8hAPo1JwQL9YBNVDIM4JdqsJVIG6BKP7t+e0zbg9GIhOsEq1Dk3AB6w6PbBWVGchSWCyPDCw4ZGexZSdd5MZ3jj9DpA2B3KtqFNfuTQZTeXHO1Kc5vbJGetG644YYbTRtBgnXl/KcRAK3nNn3FRiNsBuA1fLpA0qisD47H7zKYxuXj0cO1wL44X5Jrvvm4hXuH38fIm5/2iPGV+z2P6I83EvXySUqM/gYUEZKh+PvtTLsIxz8qUXpzAX2GDHSj5eE3jS/f7xnu7nPDDTeaOTqF8hhb2X0EkqWcTJxqBKw2WEpjeoJAVaJqSdgKwOP/QIlstwnXJIBKPVzt4jAxbC2FZacAHn1kuPsVtIh8gBQ3P4OHDq4dtIuoXSaGmUcf7t5lovTB1gF6lHPmFkvR3Hj7yn33cbefG2640Tx6RjfZHu550wbYDDSooAHAs9JlB9EghwqY6/OLfn1i9YKX0u9t3HJqT2MFVDMTlAKMt9CxiqLzM4lL/z6BNnj0h7DrwAIC22FZoBChc5Q+NUuAXkP+Waa03HDDDTeaA/AKkKly9IPbpMlHA1HuOCcM6XdvB9ceBfB6AUETkc2sTBlP0AYQXDkWFOwaAOIASlzvxtUh2mUwSI5Ot9lhFhqzKNJi6u4+N9xwo6ljrVLQUOT+rYZplEGtoOn+X/DfUQDP/2dULetPNhWuf+RFpJCQ4pgCp87UUHG0Mjk63eZHwc5X19+cgsYNN9xoGcBPvHXBEyF1ZMuBYqMKGoA1SSs/F7Uj0EO8bmDCNc7FUePJQF4WoJYmR7OK3nnHs9rdeW644UbLKJoNwz3PhLIjhkWBASxTDDTYc4acb00VgNfAT7z52q0xqKDd5LAFTsPdV8AGwcyJa0vohhtuNA3claRxZGXX0tF4TT6mNljf9wJZEhxjzjddu4uRUDVkaXAw/f0mlmMW2jjinsqowGmS3+s2KJVkwXMdn9xww42mDR1tQ5ly9+qgNH+qUT03fX/P2Or5z61Fz1QsKOJ5kzLh2iyFy7iVUZrrYXllat5dcgZjq7qW16Oy3HDDDTcypWcsbdLzyW1WvtdI5GqSnUa2ONh9g2rMURe0hJa4bfX8p8BSmJO0s8GnS//YgiRpN7APPeije06N19EqqgqXFwxzLvq/j4bnwA033HCj6QAP/xYCsp9sPbVBXnzQVJcWzYIw3PO9taqgqZHXld8n1c7rALSJLIWT0y4F8ZmRxiIAYIA6a/rRdvAmel8XESj/H/9fw340oyGKh1VJ31Yqo73cneeGG260DODvttH035knnhptQI9uG2Qb8PpwXNpB/x6d6ztNTLga2kVJKYMGHLh2ti14mF73n/Q7PyCLg3dPDM5fBjAeXbXv08dZVRS79aB9HwUG96vQAAXvtVEnTDfccMON9ADPCdYNqslHowlWaeYxOtx9spxvTQxeWWiKO1d3v3iMfdcziuKNcZhUsOIaTdcldos0CxjZAlP0/gsUdsH/Hh48+tqMp81Q9893nB5QVnEXnslttiPWrWPD8xe6yN0NN9xo6QAY37zGGnbB30XAsFGJJNMqD1N3oiVyvjiqEL0YkBXwmi1JLYUtXVSAz4xR9AxbrblUuSJRCvknImn6nQsmYHxGoDs9swWg9c+hOUEXKQb32NcjbfzGkXwe7O6TxcwpZtxww43mRuzWWMy0qtMVrOTpcnYcgB2XJh9D3eMw+8I51iZIHMrf3EVJWjrvn+4p0yGlOu6SQrvgKIF2AeUCUOadwA5UzMJ9cmS4ZxCWwXcsf8LjouYDBVjSoIQpI6vuGU6UF5hkJRLRQT0nqjl3ihk33HCjOaAu/UfDP0MEjwYYKJ1X9EwjTT6KzJtfuZWLdpIAvNbhjw32HIfzV2kVOKXsfc3uQdwimXZ5CDkEJDOJMnr7hlU93uYqVgBBL1ZJMGsl0VDX20A9sVlZIU4HKoD6Bm6yTdz92WEqyg033HAjG1CftqAexfsikgWtgoTiqLXX3XZXPKUIeosWAa4EapekBbJAgUNgT9z4t9hp0RiGAdAN7cIl/uLpztcxQpTLT+BDj0Ir7CSiFhnp8hRFk+joGslVev17beK1ZzKBdQIvNj1f0IuJuxvdcMONzEA9ClTuOrP7ySNDXUeapCI1kybw3LqJAXOT9UYpxVKI0GF5ZhWppqAhgsYgK7tfDO4a0Tki+R3cG5Wlipu4EfbH6Hg9eHSidh4VPtca7vKko/Squwd+XSSZaTEZvSeZlbGVQ9qF6afoioVzOsWMG264kYp6MYlNRKYRkevEygU9FKG/ikDn0zARo6/3iWf65nIzaZEPxlGJTCFxaao8iVYJwDJFErGSJul+B8s1HzDXDT36YPfJ40PzXzJy2tMeX+Xv96oWpVcbshBinvA6LPmMNxec4OW//dMdy7v3d+DuhhtuJAb1aQH1iOgUNAXa1RHofJFA628EQLsQlW4/raJVnSQnk/qsTHFEfe8dK7oOThu968gbX288Yd9HE6i/nA6/WscjUDFoJGKAfTr+whKA++kLHklz9COp4B2PPycF6Rcrc+FoGTfccKNxQJ+2oA5QiwIzUBWUHFyBBCMab0gT7K0VjTDAKfdk1dmoyGqXmzes7lmgKZYsaKYaC9te9WiXOHQQBgH6Zxmgk/jhFHh+76fjaFnonBzSDTfcqB+l8xEFUCMoTBrqOpWA5ccETBvAV4t/CitAStpjJeumFTtNA+yun4m8MEulyBpZzEyU3vGvWWrIQ1TQu0x3qFXdsStVx9lADDTVyMqewajzu+GGG25UgPraKtSLrayc/xLw0wRGv6CE4GYAOUAdfPWdq8rl8WNWdTLVzKbR7Gt+QVRU3LZzPF2WZJpiJ9rRcAQe1664KKoe8sH/4FyaAzfccKOFQyLVKGoCaoyxVd1HUBHSe0cHu9YRsGw3TocUpYNP55Z1U4G9bSsaZ9jXMIVFpGgZ1FF32y+g0rlq1YIcrBFsYVdPfMUMd7GiBPPX5JyOd3fDDTcqwCY6Sbr/E0iylyf64wMUpV8LfheRIqgXgOpEuQjItqxrVTck9kqHHQAWFkNPkOxSaIl2552lHmBkVfez6T3conrCluLOwXbuyoQWh/rcbrjhxp4O7gTs4WgXZfoAS/iFE4BcD38XALri0zWot6zFXbA7sDsEY+mLHcSDZxnFyV20CD1nLlATIlnEPNNu6DesVy/GobFGOVFt7ZG7b55YseBAF7m74YYbHUGUq4AQwECgcTgB54fo61/GjLe6BXU28SqxbK/Y4r6lugFGCQuMKHJ497CBQPLy0ZVdx0rUnkSm2OrIHZJKmudvWmolaPQRy2OG1TYwLVsU0GtOMeOGGy5q19Gk0XgP9nyPwPs+RJMAjg3DoSg9mUVtKntd4aOlo9HWUxkMh7tvh4WAkWKusK35NN3UrvOuo2t6Dx8JDMQG4xuImWQs1RTQZ/eagGZzihk33HDgLt+Prug5jGiN7wJQVfl9mHppMajbsnwkbbfxYmOAjDoawYlxbGXXCeIWOWNH0sbgrj1pyKLhVCyg2kAsRlcmI4fE35Itw+lRn6sbbrixB4M7wJDA4UyYeu08Y4FQMAWmX0qjretBWgHqYlvANsH3G/6fpI+gX6SAKfx+VA6hnWmZeUIbja7qOhYt+LCAjTboMRPup7rF9FPt+kTUzsANN9zYg8HdtH4b7P4cwHQzg8x4a3qPzgB1Aasd7EUD2SX935X09Xw4KW6MsAUQ87J25tnDlFFgIDbccxiSwVtPbRzcqxiIfUf6qTqPGTfccOAebN+J1/4UANVw7MOG+mglqBeQGAXtsrPcCGOTaVVH2nqjBydZZkQEPKdAPXzt+Dq+fL9n0OJ1I1sLTybpEMV/e/UI+8o7cHfDjT18aAkkNZ44CTy76VsaP4KMW106xVG6AXUkSQHqzDtPoKE0WQWfMTLYc+jGs/Z9dPi62eNlr7msCgm07uQ4Se/5l+xXX4ijQGJ6ZpKbmfxzfOW+z9PndsMNN1z03gEOGx2GjCyvOZF7SUkai9ghbGNQt4qcrjtogfnG2Kqu5etX97xQt6Tj0Rm4Me4GUj/hxbHA0g7ly0avnlAOucUmmre6fqpuuOGGjiDLTaTJgIp57lKWGvbRcvcg07ZO+pCan1MBDr3WxbALXj/Y/aywjG+aQX3dbgLqUZRYyn6q4g5ZdP1U3XDDjUigASggMcfAW8hM+mi5YQPqUOMwgP0ZPP/EcNcr1w93PXXGNU3vnqAetajSwrY83E91LEE/VVLMuH6qe9CYFzqyeEg6I86b9WtUe50sH/JOeY01a9YER4rXCV9v3N/vzPhziHMtARigPR4kh1z5WMwE4BncTZHOcPc19PUc2BuMr9qvO3wd0rJudwV1vSOR90f5hZehcIybmsR1h5ySZDRRW58P0z5u7L5jlh6OACjb9fo7FZjXA/89Zkhxze1D3fuBf2eKpjiajS9M0SRrqSk0cetvD0eWACPw7IZX30PmXaJ3itwPIkpmjBfUQmwTNe4vC2996fHqkqoO3Fu1e2hLcA9f5yGHLHvsokWLnnDEEUf8exvOY0spGsjq4C8jEXyGhUxSFLWTjt9C6ojGH1HAV6370+5IzcBGYefpAWU1FXfh3GT70952+9CCAxy47zm0TMfixYuf4uW8D+V7/S/le/Ofpa9fzeW8lQq0Gn6AjjvuuH+Rc9K5zsW57DnzF+Vz+S+Yr3nvc/T/5+bz+aOOW3jc3glBPoic6TyH0PVfTMfncX669otzub6+pMAbBnY616H0GufQ+X+Qz3l/pPP/PZ/zr6d/f5eOVZ7n9TTwWuZnvu8/if7mPDPXufwXMe+5XG5+xBwE5/J6vRPod79i3h/+ZonnNbCwdJavP/da+ttLMP85niPzWZjPw7+Ijs/y+T9Gv/s0/TnWAvibj1u4N9EoP9kuMr3s7AdK4hWjeqxupONScPDhhtS1bIl3K4AnSwVeTOOashmVDf/tVWtV5bGDwD0gcs/l/DP7+5ZO9/cNTPte3/SRS4+aJiD4Mz3sT2aAaHill98lQDzCy/sPLB040pyzz+83X+V7HASWJYBm36K+/4gC1kYWErwege1Pj1y6bLrPs+fF97SIXJAkutbARu/hIJqHb9F13qev3xz5PjNfOAgw31uPrpHzEjgfTud7eKB/6TTmhr4fwWIYfv/yvX1/3q/N+/MHzPujz+t1DdBD88qfifdjfKYy7xXvgw76nOy15L0xf5H/TPzNQQcd9K+NgA4Bxhr2HM/aCbIkXvDjyhiM//96iurPpgKm50fRR7uZ3C9Qt4wOw+One+fdgQImXncmTsrePyL+9i6xuvsOARwC1/0JQG5jwC3me71d/P3EkiV9z6/3sFeLfinqfL2X8w144Lz4ClDEYf6v15vCVwAdAcsvhfJoEOQlaYjF6dV0/uB16CgAdLFwLFy4cO960Wg1cKfrfxud6x5zLnvuknkPDIp4TRzm+7x/hrr2mgBPi8Yb5HrN3/Z6P4oGZbtQ4vMhgP4rPhO+ju3+Yv8F9eaqYieV864zC1HOm5TXDh9L+4/EtVxBr/uIRuZMQGcDFRQRaNyXEHTi6OBN0w8oQBCJgksm4N9MnPQ3SA3yKmlKURHVI/m6G0SplQtqzxe2JllQbfJ6ihfjHwut5aL43T56986TaBrgCIC3oOU9QCB3dMwIPrhZKKp9t1o0pgQQNcDgtQTo6LXeUg8kw4vIwMDAo+k6r+TXmdQLFAH8n4U6aWSBqojce/Nvx3WZ8/I18msYgKXX3IrXE/DHIqPO0VmTTqJoXxYIXhw+EvW5yOJEc38o/e4WibTpem4kmmffeiAs75l+9wVYrPn6H9afAx/43O1OJO/9v0Z3PZU2BV1fvfeMBKXyyboticWwieohpRy32vjryejsbCq8emE4eg98ZuZwVC+0yvoVPS+kediyMcmCOmijeNBpWBRdFL+bR+8UoT+HAONOBpyijlTN9xyZNsqPK8DpJLD4sqUvbKQO3p2A8OX5JflX0XnPQXQsUbcFUv9LDYKLjt7fas9hrneKzzfJwLzJ7/Vf0iDAz6vkuz2J0h+SuQHNgdejcy4G/YT34Vn6ZgP9268DuMH7Ia77Ut/rDxY5OueKqDkOIv4lJuIvqAXnR/J+GgF4M+f8Pniu/oJdBL3PV9LPXktfj6N/vwY7LtmxNRxZMjiMrux+MThyw/G2xocmaBKCw1gWnMq+7tSDFFE9Rbqvvj1kKjbNssq5GLWGuPiPbksexRd5B/Brqfp1UXyVhxYPGKJbHHig9IH/4wew3SZPR+8Xqsi0xBFeAd9zRPe5ODy2gMqyZcseS0B0JdMCOB6kROUi/btIGMrOwX71fxgFuNUWEU5W/plBj8Dd7BLM9TMoTwpXXY9uUHz+s+nvRvm6H+Tr20gAeFL1nENfH+0UnlprjhSf/gia898quuVBAtZl8rOFlHDGHCLxTHP4b/wZvY/fj3wmn4jadVR7TdoxnM6vxfkC/6JG74941EHXCkSHOEabHclHR/WGwtm02rpIclemP1JU/17IC8OR6lzUz0sUf8dwzzPpvY2LPDVuoZO0RyS/njeZHU7OqWnMAyPg3SinG/5bpjpm9YYKAJKiWwLFrWrrv9WqK7xt+DfAgMDl8qOPPvpRjfLYQuUQ+D6TznO74qtHQBUIrcIA/yFZXBDREnB9swGQ0dH7mRVUR867gd7DN8rcOJKR3tlhiqQmNUPgaXICtFDwOXfQ6/yXXsBkQY+grTrr75iWHJjL5deX54W+p4Wq1pzKTgg7FPNZWXVTvYVQ7xg+IwspU2GD9T6/JFG8Afnh7g8FrfgGy5F8K3zgR1WzaDEiA32DSNdw9dTGbmRl9+tGlz+1a7fg4qkAbKt9b/EVNYO2bSJ9f+0dy5/wuD2YqrHAXAvcEHkhYsWDioQWlCf4HknDKg9MJ86ZUYFP3FHmyPP+VyX6tRGr/21s0cHXCh0AOaDI5uLw2KAsEJ0GUSOpQEJztgCALJEpviIX0CgYm7/Pe7dqgAdw0eu+qiLaVbRPtflW5zyA5mJMKBkG0zXh3Ul4PuMsfIj26dz3BwBPfHofzTkSqf1L+g/ENdBu4Bn0Pp6F90ifx4s9jvh54SoKHdRRo6JVrom+7k1//xO1k4JqaSXdp112sckdIF/peEzcCF5z3AIS48NdHwc/bKJLC/JTLfSE1wuKGJRN4VpgeTBu//+PtBCdOz40/yUBcM6hKD6oIj61e396n7cmLHoyxWQwa6NzDO1xAI8HJOqBXrx4aReoBnpI3kyAtMbqiL3v09f/pa/X0vF7KBbouIYA8xfgW63O2TsZybK+vr7HRVAaLbu5lIQRAHy/bN3NQf+HxUqAlwFoq1ArDQB8AMxImIbA+7cUCb8RAAzOGWoNra4BR0yvk2uAx2bdu/9+OT+D3z8OO+ywRxpunN9Pv28WrXUoSqpx/VoqenxFToAWEAAfU07/lsWuCcqcQLnS64NSuh8KJrpH/omvFUevdyt2Pkw7lTjxfSdopEb59yVLBvbDIsIAX7A0nD/O58br3GL+TZ857s+kUbwGecMRUwUqyumVOdiuFjbTnhGxskbfeLBsF7/4YXJRJKtdcVLUn9UsBV/xuXiyRebK1CRGbwWO4v+0/uR99uVz795UDT7Y8A1u6AbiYFFggiIXJAcFQEQHXe9gCmQTAd3/QUUBfXXarXGS96a498sYGAv24c//r9zcoGV0xEf/fnMcHtvyvv4HhVZgbr/IKpdJpUjB91OWEsl/pR7tUI6CwZPnxzXACxVD0e9/Yp6D18h7dyAargbwlfSM/xGREvKcXFov+k+Q8/ioklgWZPdh9Oms4bc69fL3kjhm/v3apYctfWKjAI8CMPrbzXyeXdit6ToEfA/9O1F1m+h3F6a9FzXIj6/qWkqgc81m0wPV8PLCzU/NEtBLpPsgrun+M2Gz2/V7uqbDBTjXVL73tm+yjUpimLAxUMfNe5jkNOSttACeJXOwu9o/dOobGw8P3fBLIRsjLfc/hWrAoR46Aa4Cg9Uu+n2S1BlZ3S4l25sSwLGFRAZ47kSyy1vsvTQEYE2bXHl/UE+I9A86dbrGe6EMUeD8YQY6jmT99zdy08v57dx5a5nLLogML1DmMNUAQDO/Y7XXC+oAaadKzn6KP4Mp2R0cdJDNE5goPpf/nfqM7sXnWA24KgCeAJ2veZKLlz6c0cM+T137D2Ru5Z4SsI06+PMx9xjXC3yjkQRreTH0X4f3I0ln3Hv6NfFvLgr7vexS0kaveqtPfidPpvL6t8OvBpHm9iD52WOAvoU9Wkt4Tbw2l/rfPTbcddrE6QseietcrhZ/plbnt3cgWqGLX7HRgvR03MVztNzw46a72KFzt+vmZG/oNYqbzh+FCBfVixKlqyKayQC4LXCVInTFM3XGVgcufxuAPRQa9NB/4DCOyjrYrbBZiVVWcfxKtuxMw9yBcnv62ZsQrYNyYkDg6N6/VK6pEVCxFgXe71kiGWjI9cGvu4le95OgveoBi4reDyYw2iTXxwB/OX1mJ+L6DQ+f827C4mHlnuWkZJS+PpRgXasBHmX7WQC8vMbSpUufiB0gqlF5Z1Ow1Ij3W0Pt6cPQfP7vzP3BRWE2X5I/twGAD6gs7Gx0UZbJr+D1LI0ox9/ovB/MMnI1kaAC+tFV+z6dm3FfDwUHqBtwwEydFJtM30BOWQBXzdHqZbS7ODh4/o9buLd69oniy/9cdq0dbWwkJ3TKLcM9T8JOCXOapB8rFoZNNl9yTnDu3cXbR0d12KLSQ/41JAelZJ+ldxrQp1MfAvb80LJE8GqUsDcSnaV5nwBB0bmr6Fren96VaKrid1JKX4uHV/JFKqzx7yrrrr3N2AlhZwBZJu0I/sdUiebzL2yQAlHFU/6XgqIsO494L7sCKgj/x/8fJI8rC4nm1QD4Lw/0WQUNv+/vabuAMIA2uhCruX8RNPPleSEFzWL/uVApYX6RmMcicPjhA/sgikQxk7FxEEsHq5k/vj4Qq2CFaEWtwIFkErscEQTgK0QBopRqFgjJANeLBhMEKj8H6AKUuAJ2SgF9KUP5pFHTmJZ25MKI5iTljk/H/YtcHxLMNNfvonnaaWs28q9qFXWaeG7NPcguk8NdJyBhiiNuo3MTxdvOTrePrOo2+Z3p5QfN+Si+gpIxiT/idQXYVbSeDahXi+w5oudod5N+gLMCeXmfSDYiESw8swFFrjDVJeuq2nRXn01UjvfVtywIAI8Kc46S98c7gF/UApB67zOoyOz185AtCt0gIB4uuVdzW2Cp52VSfh9+YEN5ibOFq+bX2CgUGtQoYhsccb2djVw/gcYxlsKzlbvYSdX6O8wZkvW6lgARZqM7KST0oV6yyWbP7hry+d7ZoBPC235Y1Y4Ozl82NtjzNQKZ7TAUC7pCiVNi8qi+xCBnzLWQWIVJ2diK+c+V179ctfUz9xXVbAR+PLQI0/3+4gaFBW0Rxf/jpCf/u/RmjRvFi8ySi9Q+FJXMnXPgLg8IQM+4EDKNwJFgs4E9fBiONUg89nqrswT5wBsGrodlEDT0huVjZ/LAkthjoAOwHFMnotE88yqTZ5AImpwKqwFRjMQtKmPXav5aaK5I7tpeP0fi/l/6j+jvrvLAdq7hiJeVRZMyP/bzyP9cbAHCAwndXq6UrQX0wcKXz58h88+J4c/LewT/Ldp6WQyRiEeuBnPJks1/iilbrXlTFgcHiMcQV7CuV66XNfMcTQKjeVF9USFXHCVpJSJs8PQAGm5DN5UA6KdEAmh6lZI1LnYMwWsed1zgOAla1DioUp5G55w8JQ2WuWxrkGcqjIzXjg0MxQbjR/Est9yAqmTLxc/NKL5T656halEc+yQD/PQsHKWgxB7bcQXyaTj5crk6dOcEdMyLc5HN1dB5IwdgaBPc7JRQpTk5H8CgZY70s9NqcZIhquOCClogn3+HALoC9c4410/neEVgGxD42uQvRZUnrp2v/3zzb6t2ui8ooLKVqIdUW6Dk/0zE3Ov9knn4h1QB1XVsUfASHByJX4BID/LXOlytLjj6QrmwCxG8f2bU7ylJ5dGm0pWLzhCNC/jXog5kzgjMPdnx8P19m8mxUI4pn+87FgVcoCLs91YO2gq+GfzuuggTsAnyKCeAeReBzY0AKST/uGCq1ID/ufyOjURtc4uLwf3L+TVgWfuG/PVBPsgGDQ9xQBBIa9uZopEhihpQTxSN/8BKU3smk+x6sJOiKD5wYV07x7TxAbjDjQ8JLrX9LcwSsIePSU4QIpI/IWWiR8vz3hnym7mfnv/Dq2/zvYt5bh5iRcmnay048iCg1J4enJ/2+cG8PhQy4opNLSG6hR2w2AcYyoGoJqmIDQ9E3CbRGlgYkEcN+a3UuIagOpbmZADXHBhzcZ6EvXRgMLYFC6TcN/h9tYPprBa9i/xUFSwVZFcU+nyDa6E5P0U+M/OelRFYrblUxWYnKZfNghixKYXXg7KDRI1CqwGtmof73avnP4V09CcR6PzfGPumME8/zVWqxRlRO0euHIX+dWJV17HBZ6De0xH9/d0UCFzolR1TdS6qyFLUb2pF2FwANqFq0M4PMlA2IovZzq9nkmmye+AQGpVDmRPg3merNW9S2/1im4B7GeTtzbdFONMkD1652KX/QBS2MBf7kJUmRhp7aSnifwsfLZYFAqi15IZcoXqTsii4WzT/cfnM8jn941Vi2OwofAakqN83UkmSXrIE0+QRsMDVoiJCXPwqVYEbUEKa47dz4+2U3ES1XZbMFQqOvErL3230s+eF/3ZNR8V1fFLM2pg6OKtasjjqvWFnxu+hJDvTcK6CF8sH0txnWQxEiuFoceTNT3vE2HDPyymiXIvOTgBvABDTN0UGsAJUIGwy9jAdn95M2vAguq0UUbyG3uvN9jPoCz/7Kilf9vrp6JgbPPS0auAxTl2fkjRgGWWfmh32b78YPndbD5V4+g80sggq+0I2tm1ylETBwk03FsQFSA0aoBOWDiwzgMv0w/1StSg2DAAWMU5jcHgzftc2/1gGOmQcJfTVrkP52xwmydUjB/B33k0ig4xz/WXJJSqHvT/jGgBK5looISZl9bYblG1+vVB1hgJ9gwYX8jdo2tEReNhEg1glyFNVK3HeuihICpEkdwF5IS16+9QC+IAuWeItwWKDOeWF51ZRJukoUSluHlNu8sFKK1Z2NOI5j9eFeRvmIFzYpA9pOCLc/GxHrEELvtD740YXnyVwn4CkD2CPiB2Ab6POnj+MDi84Sn7/IkXH0OL6dNs9y5tWttiVqjjGAbZvfketXVnKMa9Zi4YksmlR9Amwd3AXrLgJ1wJH//eNrFqQmxMAX6EiocYSQeTenuBeVjwESUrvG7p7UZzoFzI4VJWitZyRKub87xFQnCKAFAFMnfah6Ht+Di3e0G6PtqxYJATga9AciJJeaKWm+a/QdX8HsjwoUOLmEpQ88eCcbTV3KWSM9PXbtIj0V4nGte3Aq83r25Z434W/uxTyNOLAaOdgCaLu0+gcP8Qig8UK7pV03p8hd4Frq5egVHTJQdyi71LTIYpsmNWCNy/8+/A2wmuY92Dn8wvCkzfS5MP45JMff868d/O6X7GHz4dpz3cJf0bvVfdVW+ifwdNzUrbivd452P0sAp/3kXPl37iwZxsd55ebfazR+ntSyvmQBd+ua1mq5NmKwc+ZGs16sav1uWXhVx/qsnVJii5bhZ1WjfNNOee6dqVqKqMj7/OyZW1DWma62k3Hkrp3Jky6zpst1USGEc9svGbF3EByiOpGOh6fJhfiRgKenqN6/f/jq/brht/7CHPF4STqYt9/Lqp+lYf+VJ1nXnJfO8TMLWOJZJCLGTh8YB/9/iIWtr2SetbLHGygHQ988beckszCQCyfg9Z+bWphEDyoFKUs1xLBOQDuYT5+Wy/7hmdU6epAp7Gczbx6OR03WhjVV+m1um6N3YEcgIR8b34ItRsqai/UlT1zrgaVvuLJk5VEsqINJOVRQlXDJpE5Nrj/E6Lel3m/BNqN9phdU2FE1v25e07t0S0PY0XxRo0z3P2j6TV2HtrOMz7gk2FARXriwHApC/rEdtjZpVQJhaZJLCkJxlzpTaANEiTDOiOOJH/X0eS/a/TaO5v4nqPOExQ48eKalJtN+x6ymrvOjD+jlkf1a636Zq9pk5xlWSnlEUA5Sa4kZo4tyHnFafMYK8jM549lNdYVes4B7kQ3fckkk4d7TiAF0X9ueceT/z3qfSOyrxfdCxc/MtTzIgLqO63bZGzZ5NQGm8wm76CuVwYLbLvcKypZBe+Vy8RjJIOCpMmyAyC7RfoDugnzZGb0j705C2U5V/4zKCvPMIp3w405v9NSFOxpaBxud+pe3EBOqp4vDxL46XdonRX9EchDyQRqZN+8sOw9ZdRC44Nd66bfvb8Yht1Nx/+S5PGDpIj5r9uW7/eMqERntehef0/n+xhomiRGZIjit1tjtl+j8lhes614W5rY5bZQJzALS6pqKdiCk6XsUePvNNs569dN2zpvp1VXLBWwL6Sshi23zaOCGq9sfuTA3Q03IugPCAGYZplM8HwX2WDuEkV4pLKIVr0XDgJOKIns5sWLbXezIIoniwD2dZ8GICPJaZOkJvK+Bd2oyKztdGqmsuQ2qhOoFt2bXQ3z+MzFo7XfyJYkTUFoQYCPD4rNJoa6jpfXmXUjMq09hu5VvFcSR9FQs/iimc//HAoIFLgYUy3yGkfRlCmQIcUICnJUIUySZG6pwjPdWukeHHVDu+HGnj50QRLUUmwWV0jwzElfgfOjdgdxh6ogPyBouMLOqrg+aQMpzzNM0LgDVgnNUcQ3H8lOAP0OaVJiVUO/JX79M7BgIHuC52MHMDMn0bHXzeySSbuD8zZx/UAcIzJugSgNun/bFq39KvTfJI1TutdSQkrGUDGQx6Easp7rHncVOgbukGrFbgzk2bkyoGSo4EJKpjsabA3nhht70hAgZWO1a0DFJsizFctdtqxFSEb2IPNV43nuG+Gz1j5/Bn5H9PoTq+YvA6hzM+ypCvuFYdP20BR0YRHYHkT33SUC+rHRoa6f0fdrUAewYXXPgvD1cGu/9dy/tZDETthUEg92LZeFb9aieFnRIUXydEFTMv6bmy54P8BuILz9wgeJ4pqoZtqsP79I+YAUG1hMhJKZ0JWa7dCo2w032jmCN31sqW1jQoqmwLTqw0iE6vMmBXfYPaPQLOhqJhbWUmzFBnzKKOz5MFu7p3ZCFMA/KdH9nfDr4SYqXOF7P2wa6O+/Tr+zChLSrauf+FhDARE4T7Cd8Fg8O2GzyOC6aDG54a4zu00OcLY8aso9O5eQiZL4cMQvaCqVe336Pz3kkGWPlQ+9Tg/VTjHUUrzgJ1QCtliT3/dt6zz4hodvGDfccKM6B8+tCe9RxmGJpMioxMb5kkgkVeS+F4rzwlYXYhnBVNCvOtSOnLjyJxEoX2e6TdlG5Q0BL4N9QZp2ILLHAYtk+tlm+tm1pMz5H9Kzn07fb1Te+7GjeNs1quf0gPdvdRRfpagpSaOOAvPfY6KJ5SrIzhjXsrdcE6pBZSWvkFJWqmRKaEyxjBeTDqezdsONhilZek5fliKgE4C/zV/kPzNJYFUR1PXmP67aLYbZgyK/1i0vXrwsSJYiKUoR+Le4SXkhSdcqjvw5urfJWlgmb7HR964GF46qiwknam/adGrQoHverAA8pIRojcaJ0UJSakaZDiXSCgvIW3dD/3chuijoyUmvM4bemaGbpZ2UMvz+18yTpheNHo5aKnd/inV0uLlrcG4loDtZ7ZRLSSSScCgVf6A4FE3ljt1/j6Jlo7CnyNe5JZfrP1i/D1LInBfYC6TpalW2V54c5+gekbvthZv4vFPSoBv0j0TwLdXFq9X8INNIusI7PCYfR38nNrdpaJLytq2vT6SU4mvOFNAvxFUwDffXhGGSuqqaM1WhkCoS6twDQCdcFNXh5i6SSk1ViKUTofDtSSGoKLIP/A9reDQ1whqsVD0EJmsldLnng7GwlkQrAedbTc/Y4USa9bo9aVP1vbV/O2W5+K510vawlVF8mX+nREma7RqvwA9k4UkRugk/VO7BSlJI+rfyNG8HSkaDSa1F61HoHQqVAKkX9odDJxz74HqJCAgJplp5ikZeYy5SBfbzq/2+oLKCMgq7un54k1PVJA7MJRLz1Tzu5/DcdUqgEFr05sUA98jFrSJyNr1nk0kkQZty57GLonYHDT3bBNbw168D7sHOnZvovAt/K/4x64e6B+DiaLnuRDRNs4+iSDVHhheYBjqtlExqq9dTZbuWwD4giOAlo5420Sl/T+AH69u/0rm3ivWrigJmLTpTkXrU9nO+sQBeQs0jyEODm5L/Gt2h0AIOFhDG890c/jjanUEial0Q/Y+g6QTa2kWZdO0GQN9Zbe7wvow3Pvmsm8iuN/9huILaJLpxprwN84UiNlswl18PvTQ6jMEkC3psAo23YBs/F+eu1j2V1VAa+L1Nv4Ik1erKJhjdwGJQssHuzOzOKcErgVtNm5NKCvjLGiTvoobXBJ7rQdOMxjcIawnAQ4VjpZxdK3DNaxv0yMmMnkm9XauUR34sDQcfFQ0YX3BugDHblEzUQ4hksvXuyZ8CW1sL2NT9idvGVfRA9cL+4uWeqPK7vIvaSef6A3IadIMvCwNWG+YcGgKXMMAi+qaH/VBrKOV9Hza1oOMi567Cm72yn2x47tBajs75KbSZO0yVuKu562x3YDf2xyRlxL1Fc7QI7QTp/Rxp2hIuyR+Dr+pYRvffUhz0vAwAQOnXnxp+npQdyXyTc0smiS5I8xO0ZQzTLrUWdn7tg+lvR/sbl2eWVO/XqzpU8AjLY6JCrmGTr11tCPBTosWvaM7daoBHf05OXk4lLHASZcsI+aI/J4soPmLb1zlbEVjUQ0gmZgfaTkZUqZvztpcbcgfdb4KuN8FR7ohTeZR/Xir79ljg4v9Hj9MzQetU23LPpcgUSisD6rn8OvSCDZqBe0GhW/250z8L5s6vnDvQCbRQwjpavPnlXmqDuZtxDWhcTXPzBnoOP0fHlWgag2DB6M0tGBakpaJ5VuVrUBRkf8cUINEuKLxbV+03n4tz8zNbTELJcmvJIxt41jvLlfL9B6JLl1pYGsUaUdLcdrhauBDJQ8POSppiOwK8WCmMDfYEdFZL5JKhlmvnYUVleqaU0HumxKvsd7W+NQsqaRYTZlEP4aHEPX4aklABkpBuPwAfNZ/1dkaloE2cBjR7jmDhMBEuNZvQRWRtXNQ1T8+dKY1fgjDUuxhNvWXu1GKYZO5KdefOD+ZuhADxHOn2NZtzF6YYvcXeS7Fbw+erdy+yY9FtA+sdwd/0eq9U4N6pAZ7e9yIsGiklkhuxu6gH8JW7hvzVCaXYRTsP3k7cQjyL5r1QhPx+9nBPlxRtIsAjgocV8awBPDrZqIa6pQyabZwXlTXPIIpv9UOoTdgOYXDaoQB3uiKqSm7xUB28WPsvCyhH9Tdjeyyy0o42qwEIL4rGGTDnf1sakvOCWIqYu+mmzx1ZSNP1nBiKaufNxtxY35X8p1EwFLqnqu9Uah3syYR7tJcLkNR90VmmavxXq0VhKuFu/W9CA1UL5IIm8IeYbls/kR1pgtecZBsTCDmOsFy2LawibvttqE611gCGppnkaH7WwX7cNjwXiuZcoWdaJZXUSda3ytY4pUd7IXCGtA/RrFIraZO8wba510fCb6v0XFUPYCljYJquE6kWRMHAqoLvLuEm1m1C2XSGAOx5UFpQ5PWAmbt84BrayrmbDs+djVz9r2qeuhULpJ4btLmjwp5/qgWvqHoklFJSpbfD1C/0mjrndlpqDXzO+40omKLmTkXue0nhos7ZxeX8VZ1Np1bSsIf7TbAfANDDPwZFS+JJMz67kX0R1wKQpwj+DSpB3BKAD1Z0JGZkS5tB31XZwm0hNUm+HVQvcRa9CjvVJfkTEfHZh7A/DE6z2mAcnxWrIEYJLF4/2yCvI2FIG+E1joK0kB10+8xdn2nkfWMv36PNBnn5XCCJRQI4KNor8+dZzMskn/M6SEhDyhndJeljCamSUtD3OO+tjQoWZ+5SvE+GdiYJzAvx9/kvBoEXBYw6Cl6/oueFBOLvJCC9DFa/ANTtVJGKQ6wGxKKgxWBf5Ebe4xNDCw4QFU2rH0psoZ9FW+i7EvpS1LrRbqEb7blzISFY8QBQZCdd5VWis93aFhpgMGoEI1H1zynL0Fo71/r1jCU0FcCUC9PMvLXj3HGxjncP7WCPb+YCKeeElh9GfLKLYBfHLBe8SbPo570fhfNgFbsHUntxcBDrc/EqFXOfiqJRKwIkyhfVqVKtC+5cUHUpGhGF38eM/qywL1i57/Oo8OmkUXR8IiMxWA6IfTCDLfdcNTYFU03m36eMdfBg98Ut5d/DH4btKO9dkdhJssqWmM93zeLFS7syVNY0mReFRtf/SxMfwkwjUlyfSAehvoh6EFo1d0YBQslMZRo12e5zF2ix8/5QMyL5wK11YGAfesZ+qeam0ITdSZGj68+F34t8hREg1EsJn/WyTTCpoMJJ3EplHvq8enr3Fld6XeLg6vtcCBh5T3OT8b2iKkTXD3c9FR2eCGA/QmB7NR3b4Q8DgzJ85a5NBQX2WUb3k7yg3IOWgrwAzZu9qDXnfUBFq6kfSlE18Dl/JB9Su4F8KLJB6fT20NZ5TjQaLzc88b/ERm9NB3nN71K0dm6woyjTMW0/d7JAWvohnynIyznQE0Ei94RNbeI5upK/S1hMIdeCSmrUaiSUSEqOreSzF1SI45ck7uvEXiQRuJdx42eoAG/0XtYt+cI/g/vkyOD8XlA5dPyEgPcuVJnuPMNy98YWeNAkZwtpwR50ELj3TUY903PGrETv5a2VvQFQSJFCOlV/m0WJlqjtYhuB+3llvs8A5tQcAfeKiJC3zxc2m5NXn+VjUGGoJH3tvOOpAvKegPykpmvWpGtBp5OaaXjoOI3tWcXmvymcZws08IZCI5vfhDbB/Hf30U43pwK2QMVlO7V5WxupUq3yHorc6/X/IK1Meg8jWgbYr+NWfHpMnL7gkUjOkiXwCujoCZRvgzHYDm4MwknaKbYVLjJvX6rZycn+fAqJXfD+W61P/af09cwqyOFBxaSmatdXJ1GSawHwJHjfe6E5twBUxu99ViJ5ax2Rf3ezkocyd4iuNKc8l+cuoGsInLIQBwT5rSWGthK9fzN3hGLKNSkFSCGJZNkmILmgQlQ6o2ILrpr3ANxfivoQVaVaSkQxkUtl36K+/bPCCYCr9F+N+tn46v2eQR7wr0FbPwLrvwDYYRsMZQ4naaWQqsgt/Kbk4H+bQxYJVvCcKzuJ2W68rQ2A3pbCk6au1Ik18ufPNsiHJFwXqVaBk/nmyhwbKXpKDfLsDbSLHsJXhLfPGSYMn4TmLk3klFs+dwB5jh7/Cnls0ntUgJWqnfdTdEiz6T4B37ulJ7G69k71jL8lhSS6gA5Q8AYSm2BFBz4b2vgEVaqVObte70+oD1DXnymtIQ22AfhR5x4Zesp8Au0Bauv3AQLqK+nYAaoFwI2EKb4H6MNfBsdGjtbx8wnTw7XnN/Q3R2vaqG2oCnxoNMG/b0IUH4A8DrpBzm6l/rha3gGRuwL3QqbbZV1eH12UMsOiILNDmpibgqjkQFVL6oe8ShPAPbIiNXLu5GfZF0gVWYnytTB/HUN+LCqSDwfUTHa0Zz3l2k2i75d8V6io8b0JfafKETYZwFUEhuTuCTGF5K5iLhxakHGT7AxaIa1GgnadTdDuFcWP30bt+8ZXdR1MgD9EoH2J6fZEkkf693309SE6HkDXJzqup+j/4tGVXcfexi3/2gbcZ2jiUYDBQNwEvrAQFFj05k9vNciH/Hfen0LCVfUBEG2xp3xRog5f+a4I95ghCPDDCClc/jNZzLNWY1QUrmRwj4Tef0mX3EfPXd90qFAny7krqkDkzdW03g3scJ4L18uMovdSA8fD9vP214UFDaGg5gsD1ia4mADgS5zI/6qcD1bOuko15uegwf02MRWcjboZo8ZBkraKIgdjbHD/J4DO2UD8/Qbq30p9Ww8aWd797LuW276repewto3AveLGxE0B61qlky01A+RNO75eb7CFIK/975ebhFQ2vGhJohZRsrCvD352L83lHRQNXgtTMgKMH7M52XWmvSH7YWPbG/KzKWW4mJIpVK5PLXCdaRZGqK0qbBrS7TSmggVx5tzdZ22BvRvgImiTbt5V+Df//31i8FYxd9kA/STzyLcIF9zg/am4bu99dXoLxwoaIrx5wsckSyS/GRYzyLXzs/2jREVOyiYYttZ83r3ps/l6QnVQKZjnvGn1eYS612a78t0A9LpcdbCvuUi0a1GnujGeB+9ymzzzdjWDL5SEpqeipGaCvJwblYuQQibJ8ld5+EqqqAc36630ni6hRNcK+IGgSQUiKujTOSH1CFjBAjjMtfTm3w5vbnSvkug0iGizKHyhaI3Of1lUNBdjYZTOXycGjWHSgXtJ/l7NXdF4/1OEiVwQW+Q+FXa/mD9rLZx7zFL6N/6fEqGLESCgCAY+8RWfQfq5UxWb/vujFrpa9xiiWiziqepK2LOl1i4wfBy5dFlFAVKYYkJrTthQK4lkKUkeDTw+L2IXJpzzkqp4v1saBXUoz/h2GkaRA+CmY62N8ufJsZb/v62BPToC8V+rZFGTzQF58wE/6Kv+qs0AeVm4+o/o75YiplS7E448A1Dp9R5A9SDN2RvBRyZZfLAYGJtYlphlQpGJWgILKcnXkiRcZe76lvS9mMD3rgwoh2LF3JGlBT3fX6WH/BgAUMLP9wB0+4G3S2ZzV7aonSC65ZmN3JuyiFpzNW6BmeTZweeW82V+Hoalgtn59eIe834cPuT/wY0rF8mOsEQSncTM+0kmkSxom2AsrinyV5OiWELzb7nWlLJUN2InIUlqlzFPXW0Vv5dumv9qNFJKzLubNmUD08ppMJXenN0Qv68ikIrFMkmjaLhW4mEFfZSoUKRKYgy7iriLqPwee8v8KqF/yYy54/Pca4zI2HJ2xtx1xJ87tpi4KFRBWUrDe3NdwX83cm8GPY5pV5Y4j8WLsv1bAvV8/ig0fFFeP/WOqtdlbIkpGDGSzbj3P/0+q7M2gQaCY2XC+zN45vP5vmP1s+LQt8VUjb1Z/U83sUijpFdz0e92qAKsrBYslNGbLW863r3sbIcWfEvyrwk/SIpDbKSrVdBDU4MuvofSCNFbBkAlXenvlmYsMfhkyVm8x7pXpoqMC0FyNO9d4QW+3uX3nGbuIsrk70+5QJZUFH+DyAJrzF2nylNczLUBsVQ+lcVK3oUZNs0RAcUrJd+RMMAR7/2kuyQBd+wC3tiMgM6NBofibPfGit3EMuswH9ebVbIloGbQrLmyk0zy5HDOWM1eJFV26nWy0Jp36oeaOe/70gBVqMJxuFFViMwdlA3SoCPhNZQCjTa0+dSnFqX7odfpzGLuQr44JyYul59JcekGGpHXKsAPXThyKknb4bG51k9FX47nL9R4u94RvjZd57I6qzqXJJ7uQg3Rs3hyqxV0btQAeVQsBlv0+FKoxjPq9uZej6bTGcilOssg4p2fchdS6ON8gZZ3RvUZzXoHRd+/KRTJJzehIjqpI9S+rR6thT6zEo0meKhLqgBns7YB4HurqXMHQ6yUkt8g2Urz8PlaEaeq5uxBIZDy5IlbiVrspT6rocUvE4qS5uNDSXYWVT7XZPJo6l3swL0NQd40vig36m2Gr3dkwUPSAh257iVIDua9O1OoZiQZfB9qBMLnbwVNBg5Y5UKKKWiaUSl8qrUwqej9mJRRcCFIVPb6/VHvrfkUo/cdKexJuEAFNI14rEfN3cKFtsMQzdkLJRnNvjyxqmjpXr1REvVZ3GOhxfrrTXx+6xY4UqrqHQ7c25iTJyXF8+mBuTW1CqUxkL+uXkuwGkNX7n02xQNeUGX/J7YKoMKvw345P2XQiB99lamGAi1SyxqhGoxmumxFkAQQJsuRe1+fvGarHmwBR/anvyuhe6JNLtq8zX0+t8GLokLk9TC/SGQmUNBM2gIk/4dZuoEKwBtL8Jz3a6bKploE8MXAhC7nrWn18+NGDLpDucUdTh/cBsXJZnqjcFMBcZS7HAqCuDdF8LCRQiNF9G57zBrFQf7ts3VzBkAFGWVSF0DVqEG/lyiKpLyo+P+VghoKFkbIbVsN7jOSxNRyMbFlAP++iUJJn19tcSxrzf0VqlagGJtGy6jyOAzwaDZiCreSLnTJaZwi8i4O3OcAyMvNArULwKaJJkrFwPCfCl9i3hyR3Htsf4wy93pJq2iZeu8HcxG8n7gl4YHHdv6ialyydh9Ek+w0FY/sHvq+2dySqwKf5yFRnGJxLNnOWfkPV1kcVUNr77wE9xxLMo2c9V1Rn31agGczsHsy7NrWGC3Y690J0zVNY7nRviPYmhJl8Roptc8Y5EsRlXOrayW4oiJebmzwV04qxa3GnQybdc1moxIl9TxCFdAU4wI8g+7lQgGE5zLY+Swxu7TNCXc+Bdl9SVPmWZy78uJI5mEJqTrz+9z0+ZtVAD6q1qLxhZELm7T/TVJbiYj3L1XIKL56KON+D3VVNvb1yhF8RxtWqroRHeUhWjk5KIBoTiQvPC71zew7tJFIMKCS6EFJsFWuMJuih+KkDB+2tAsre297v0rAowYATyD1J5TSRwC81nF/IOHOR9QS22Al0AZbcr3rfG3C+6E8d8RhS0tEPXflvMXRj1J5i0KCaPcByZFktOPRtQxlm4kWAHwouV+koqZXqPfV6ZB0joA8ZINKitYUkLfJp/zPRT9dDTTUdVELOe8bCbXILNfM/1wi0DbgDTUFcHZCPrlopZ759VS00xUGKYmyjWV0Lv+7BDsfTWt9cjapmSoUxdNg8JZm9wMVGXyEqs/d0i6lNJtMEMhskMrejO45LTZ4dwuti6NksrekEE240epRqdW2znlNsRhWLnb0OitrbfXK0sglz6G/uV11lomnRabXzM3sOdkW+Q+UriN5mWRnwuC2kebnwDBIBTpuqECSVYEGIAVp6mzTWgriBeD3QnSdUIlUZHrr79IjVM+dkkguhPGZ5etjmPSJfz/Jg+k6F2Q4d1oDf6EUK7ayHaXMNVOe32iXhd+N+CDfzL6T0sz5b4iSqt0gKql2fMLtuBRbXS0Pcrs0CVeR6AGQ/SWIRAXgtxAAPz8EUoqr9t+foCGEKqbyL2qzh1jrwM9P6EUkWvh/RGnhlWoLfY13JMhdSM7nCtkhZKmBZ+uLyxLLbCs96dN67K8K5/PcmAMgj68wtMqyEUSU8RNF1qdGPbyhrjUfD6puYyS61E7h7DA10i4ADwDwxPI15vtjH5itfRxhq0XDfIagpLxymf1kAu79IfLnOabNtuHai+VtYj2QCOAp6Q674mocPCp1RRwQ8/4vsCHc18Me7lncM4ccsuyx6NSWkQY+sdEcv/4mmJ45qmYOgjx8u1UT5qmMOxRJFH+daOP1QyARj2knR7apKXhQJHQXtVP0Ho62aY6/lSAak0TeDIBXRUHPNX0A/Nj8+yQD1B/Eo6eN5k4rScr0VuP3Zj0OPjg/rBHKHcvinZ+95z9Si4JMsetbgCpmttsoJqNaWOljDeeS7gDEMuMK6TrlQH6OgTwKKtB9J2F/xkaqMYtR1ZgKpJ5p+PcEAM/J1asXLXrZE9rv5qvwFLmEQTg+wBNFAyAPb+EtAPa9AgDIlZvF+ADlfS5LgMoO4IP8xSF0rTt5oUsC8L+BUqYavUWfy8fi7hzl+eAitNOz3DkqgD84cZEcN7RB7ga+RCmllkVVI3F+1O7bjTkA8kRFPsMYLmVraVDyen1RaXw0imc0AE+eJ8qBsRhH6xwurGonjlBH2/CLT7DdZoD376Ik69PVObWU7gyVRynF4ldNdGeT4O2WQFMJ6oVBsU8MgBcdvG2wYe/x8H1netVSdymlgY9tMkaBy+sznL+ggQZ7Ck0mFEFI/uH2JUv6D6Qcy5e4nWdSPxtxlXwQ1+Wi+Lk1AstW4tlgE3BHgki6vvFTr3elSBgVSM1jnvUtgSVqb8O7h7L2naOodosqNAdPQHJ9EoCXROHA4QP7SJRdIXnNexckqF4VP/+d4vHeTtSWnjve3W2Ou/hHNZvuCDqfBTmox4N6SLJzZDO7bWjhmCHgaepoZYr+sHLf3IRzcleoDSmr2Cc5UPurSCfb7Z5xo8aNVRFNcwu6TEC+XFR1N9QkQl2EEqznJrBElSThw+L73W5RhbxHRN94wGKDVEAz+FcL/wkAkPeJ6lYC+O/HrR1Az14G+LE+bijSbiXpKoJ/VlyA5yCBZX75j4cBXt4reuwCBJmiSSKRHFmS7fxpy47zEmrgy1W8Of8XylBtsNwbIT5VI/k53jF/JcwAuNHmQ1d+IqLOrNq1zMM/pDoCdepts7JETaLh3o4y/TYEqUAH32spqAdjm1mVH6hv6/Mqa4fHAfzN9rvX2xU/d+HdsGTJwH5tHsG/gBakrbEWx0pvnXeGo+MA9GjH6iUwtgtsgmlXhvxVhvOnOlx5X05i0yBBEldA/z85H5qQ0K7gu/2mADFddzSWTq7MMvfgRguG3vrTzXB+ii1itQ47J+gbDl+NHIwSYQak8vFAiqOUu+Dn3Y4AH/DkRCHFVWroYhOd3NIAj+pWNHeOHYEqe2cBqDaLxLSK5oggP9No5Kl6pCJYCX8eyjv/qITdt8S758cZV07PsLeIrYFXi5vY/ar3+0JF1STdnQu9dycSwS6Kn2NDwIObNl8eW5teQ6tOkrJyZ5iFFuCZH7wlTak4orw2jEIVBYUGFgPxCk+U5a2YWQlIqSKdZ4CfT6KBnysATwB9dJBsjAnw3BPgZerz6NSBDMC/nMfxpmJLB1WEnEX+RyloHo8CwUQ2wRFWydpLRrcATBG4SXHhL5x0cg6DfC7XD6nW3amSM5W+5u8Ov4bxqu+NuQUPNadAD9J2i+Ar/FSIq42tZxaKjBKh8v7CRU5sJ5vE3kGqMG9sU4pGq4ROSgDCIi/dIT4xIYmk7KzenbACmCkQ//1R/HlqWmqRSSxv8L1kAM875ofV4tapurw9gii/H6bqdVz5TJ8bxQC4kSHH29wHzP+fBIUgM7y5ecv432EOnptUJHHMEyXD/dJarp0KdZRd8EkJeoyqtnP+9eIkqTs3pQF4cMj23PlxabPYZvTWvI50Rm1SIDYmPjHyrFQk90WBFFPZpOifwayid/350jXnAu1/AgWN/bv8NjrNi6ICA/RPVoFbUqpGRA4PSo1LGzi47h7A3oqVUkWJz1Pt0wopV/u3qwdYONahBDpurUWelo7vbRRBBGACmsssbr1+bKtgpgEuCEd4CuAPUO0YJxPomu+jCHegnemtXHzDLV3kdB0S0VV2PxTJ+t9LEMkW2KTvAbHTzUoiqewTXpfQl6nCgbT/iP7u0AKk5tU/M1DVpKZqvBtkIXVUTcqIXYMYJ3g6m/yQddID87M0vUUDTjCiqAY7hD4/Udd45XVTtrpthwgi5PL4UOxIrDIx/crwrkoBPMrZ/5ZA5jfV5jUEwQIJ5UfMe88ujr5Jgl4WLnJS1dNPonP/FqoSL0Zyv7z78TbT4vjSDBdH5T7qn5EQfMuLW693rfDjUQ6kR8MHn57rlIWNum3hFx1VkxGw2wKN/LnI4kvRQRMmtaKcO01/zIB+yeePDT8QkEgOJJduCZd8pURqsx1BaH97mrefJFy8gkIV8YmJ8vABdQOQSiCTLCdaVcejdnkwK5pOE1DFLBDT8tLP1Nr9EID+k+dgV2yJJO2cIBDIkN7Snaw+kVQDbwHevKe1eqGMyrGZnsFkJJaSqpnRbCe8W3CjBrDrDwfNM4y7HjsTstnRKU0EeOHh35PYO76sp78X3B9f697qAb6Cy6iT3GCTkogks7G+NqAaylXBybtTKZVG2cgqtMCb14DSid77jxJWHnOSOr9efG7azWaZm07fHkdNUqkD998TBhwlGTxCtTgsJFgYrxQb4swbfRA4J0j+mvcu9h10/30qPJ+RzzYlmjPoCyGuk3eKos1F8XVu8LC1KQH7cRTtXoUPQlZ3Lmb4vRhtZTyp2m88TaLVcIJ07f9UvvAG4KHgkB6sCQE+8KMBV1vjhm7JUM1LDqT39c+EeYuiWhAPi3o/ld25/M+mabRtqQDvrPCDPxuLY/jzM/mfvLcpSZFTSF4anD9Ifi/JvyqhTbBIJNdqT5usAN5UJ8fftVTYfITyXZHRdMhu+lcZUDUF6aqGwMOBfBVgD08KkmDoahMoUeSGLHcIwo18chPoiTLA93rfTxJR6GgUlsTy3mRLiy5CcLxL2TU+KLwQSdxsKEIE3PGAGvtlpmYSOHMWQFnBXlgezIgHRdNnZyVMUms3zr/Q3PXM0tx1hgAo4KLNvY+ep3FAWGngZVenFi7tMz/I0tU4PWxLsOANBxQdGUokuYXgP5Jq4APv/Hz+DfUWbUXVLE5tT6LFFHn/nOB9dTjXyUhgJ7A+FO2yoGdlHlcmsRhRUXdV1gUH2mXS6LgTRKPVtstlHrSvT7fcS2NoxlHVl8PX30pw5y3vp1m+mUgBwXwmCnSW8t0RKT1TMkxrF5xgkdS2t1L12OLIq1M7PMrioppuvym2xLRMCW4TCWiUigQa9tj+RxVFe/n3ZLnrCYqvYPhHEsZEQU8Z4B+k53aJes+d9WjYoIVnOlVNkRvUPED2IQPqfe2x0sl5YSAy21LadoNX5htQA3spyhvCRvH+W7PkA4MoirTrafh3ueEQJYQ/cHTTCVwk03nQCzCiL+ub5OZtAVB1VoA7qKx8X5pm5pPIRyB6V5rovWotKmzGdVuChtthPfMOiXj5NZsdec0rU1oD+xHAnCa7iOC96abTjd974l56q5wvgkrphIVuApvggNKR+yyre6yK8qqQMN+1GcVSjdCVcv2m6Q6JFRLRfZENu/2/iEBgT5VOVqxqpmS/N/9BUBaYZOW9UW+ypWvSDeqG3juLB882Hcgn1cBreibYYYQA8R0JqZ/qVA2ZRyGBJjdvs0AeN62yAwYt8ym1EBZSAu2ieuAhDw2iXlBoqSoT5R7Ko7K1/8Dw+2vG3JUX+dzj0WyGAGEdRAQViVBSwcRUk+gCsXXwOdLzKPceXgdl9gmS+1Jcd1/WxXWR9gkJ8jc8X38TC4pG7n9VAJUnCmpnGpNBqfcIm53taQ1CAnA3hlEEdHQD3xET2Gu7xy2MD/L4oFXkuIDOd22KnpBap35WNJ3hfzplxFBtsbtFyvuzVofgRtXnG1gy8HTJUaQA98gWcHUeTu0dflqqauNKPfPVFFE/PWqHkgWI6fORVfHzAe7LjjyqovG3vDZyGTEDAB1UfCs8jypwmY+8Q9z6gUADr9QiGUokRdXy3oQ7ZvveffOefildrBoMcHRO5wOJJdFRRYhs9rbHVbmikg6SR/iBYEItQDQO7NW1qGWuG5F8Iytn+MEz236SgSWxK50ZTfjj/RwV2srOYLuGB/i7KSSSdYDKu02qNEPvsTMLcOJ5Opbew9/TNi0XbTWd689xKgLLFIdJVk+k1DMr/TjZ4LKkVa4lxTbbSEfDc0cUxxvRcxSvx0GAbppuJcHxG5WX30Ov//EwwMt7wMJi+p3Gny8OIAz9kGXlphI0+Bcl1sCXF7dL4uZT5PeMBTUFdhwopQm8mKrxJuj+fP4eR9WgQw94wiOXLpOJTNsmT0qop5TnSwAEOISywCEPXfgGINB6lXIoLKWNCMOt+vSNhORwht2jInhAbwd2R8t4q66jUsUzV01ACahH5klotyQVk6xqShrtTPLntkuqVhuNdkL2zl9PwClH7QYtSORhB+uvAP0UXuTqJM46JbfEoD4vdH8dhC5LZTmf5Y29kBKMpKb7QaOfQAMvzqVnaNoxlJj2E7SI1KKGX4lNcJYSSVas/Yyj8NiV3aLwAdWbhBpRC2Ef1Esp1W1qsfV+JvfRHiWdxAehbuBMKArZ3qFCFEAUY0dxMKIH5dKYpvl2UPggSoZwootdFm9J2Uas7lww5XUFgdWr0Tov6uGSBU8oqmoPhb/YfwE67cCkK0iA28Up6WdXVCqW85OoWFThzisSJ+eqLJD2/fk/hKIniqqRBVvPXRTwmxwFuYbCUkJyTOJ4GHwlW2BLeVhq0TTbRrPxmJ2cyqKD3GvD9IdS57wulU1wLn9pFDinof3w1fZG8K9X0XNsRZS93/NDCa9PN4n/kOwkUuCAYRb4mt6b5Zy19VDt8V6SwjWuZqafV84xAu0P0+vkoa8FLSTRld2K5Z9ljI1IUVCR3E23myg3w9Z62FDDY0Mr5BPZBMeaC3wNIlsCejSpxryLtUE98ATHjiIzE7ETsAudxtdcTAukHBFenlTmKvNpCmSoXiJlsrXaffQA8gxQjoBua+QabfI0dzC9t1XwhIHOWugYc30WWGWndbf4ukikByOv2IVIFRr43KJQBKsK94JG5Q0n9yuKiFSeJEuJpDGPK1fuFhIq1kpUxHVMeHGLey1Lly59IooouY9BGjwoSLV5Lyemd3uqRid9cPNn+FDqyLBowWjAeor3en+CDzS28khA0c9/jcSubKMyAi3dnPfPR7CbnebdpfCBNfCllBr4Rh/MSQErXlA20s17Bc3DhXDVQ6cp2Bab5hJL8q9BOzIkm9Cog37vZgFiBQpp6bSSzBM4fCy0aW58FcUfo6L4TPrpygPKrd6QyL8VuRPsZEDhYL7M6xK1hwUALfLo+Dzda+tEz42/VX74hYjeprdgRye5KVaTDCZINkoV8EZYKVeRSILn/ngam2B6n6dmqQxRNSeHQ7+fUiJ5f7h/QNx8gNrpHKl2WcW0gQxyKiKd3N0bduv2YccHGed0WvBIEME5Ie3CBEcdSvlRyIAmkoirhKhXbcc6I6KoE5v0vmstepMShcn7VzuIB02kyjd0xe/k+/TfZ0GlBc1KIE1TAJQoGqxsYO5/VcArw3kt6IheFjsuinmY5+0hAZmI35mMur8kuYxcDCJ+/eAr+jKWDzz/zQ3KFqMiwYq5wsKdILkvMtYC6L4sI9HgPcM+IXkvZFncRkUFlZTv1vcTjAZjF4TV6AlBAcLnklCRc1FFI14Q+9Cb/2MTko0VKygXwRRUlD7JNqmZ0CMVXderfIiVzRb892SogY97s02aQ/mWCF+vokY9b1lSSALuDxINcWxY8pj2fiKFyHNU5fFkkxbJguy+IuZN/95kHXCWyO5bKqLrlIUqAQdckFZyYT8UOb/huUkhZgrK4hWGTZYT97bOInMNPNFZCTXwSv+f/52YoKUBUPlbg0+0+8+AZaBnyYpAaCE7cU+QTqqoK396C8GuWecX8//roO2PinAqt8n5z/K2v9hSgI/I9CvqoKAWwVIT5l1A4mGamzclUTo0srWG9lg5WRaaeB/NnLdeP76kkexxwxEk9PGxJZLw8TGRef4r1SSSpM55upK2xu8BDFqTKbWsfOB1YjNhPYOmQX6QkQlaEHTQjuXlCY3ZqjqYigCkwTnsrHHUyzXMnoGe6i6zQFwVE5abz+qBnQAD10ZdRVotKjDb5Lz3fd4mF2YR4Fu3kPDNzXLItzRjm1rZ2MG7MEGZf6vnpML5MBAfUASaoOl0CfkW49tE+ZPw/MpXble3OQENEjQqp+f1yRl+dmXaMudfGrs5e4XCZ2mmFEhIhvvJBHmLWsKCyyTf0gDVJYuNWKjMC1G/Ir+eFyV1nk0/nPLqzUmlNn4g67V/exiKnFqUg9wwhx1GGfqcd00Tksvtd1SqRe7zqcCnmRykChoeA3VO8FA2MZGdstoR+ZoTrERyoUgkF6JALi7Ai0wQyd9qGnhOHJaSSyT9nwYLagZOibqVIIQPCWsZSlGmflnsDFUCuAcFXhlQycXy5+S9s861dqbA1M5arMlscPGPptX3ZxlXdrYK3EvorVrvxipLJKm8P2Yjhzl6FAPJaM7bgK1uKxJMZTpiYD9EnCryaqe5jjI5ewQDvC5EKjS6kCqr3JeFEvw6kHqLCqRKsQFUtabLUiJpLEsIQFO4tkoj8BOyvD57DmklaIogixlQf4IbO/zqIgOVr4NCyzsfOz0omIy1Cxn7Qb3FcvN+FHdClqvfNyS3UHaBAkfhXJbKp6RR16GgOTjbvKt9KRkrPQwAujd/SiPAFXDE1hL1PuW7k4T7LbX5/ASqk5yVhx3cSvVAQHeQq6Apnukb0HPXFrSeLejJjwsfK4lRuIwmSDYWIzqH/ctMlVH+vQnyXUWogbhg59wsud1K+4Rg15JMA4+vNPhpyyyBGdlgJh1VM61kwr9FIjdM1YTyde82su5c/nruf/EHVBND4mwXAG/t0S8/Buf6iT4H6OLABoZtS2ajV0TFamX8aaQirT0j+ULZs8S7V/dhbMAci1sA5l+WUANfqmiD1360gyhvpsqVoPmviPZXJ0JbQf8F6gx4+uetFawCzdIsU1esgadtP9dLSJETtu5JNPAMjvAgekZVDXwu/4UEBneBLTeBzfIsF2lJMgKYoWFP+NzL4rYF1dbNCCKUUdvTgkbv6fBJ+wZ9uhaGiDsurDz0TjiQl6LamgJGdFFTPvhQ6n3E1ADZ3OBRswnw4YTGB6BdV6XwbcMlB9WNeJDIuzpGVKoSgP6KFBp4E02pBGK7JGkL8qDx/ExoLniWEj0ByMP7iIDzW4F9QzZFbemcP7mKF/mCkFzwwgQaeFFxXSMtLNXOOPiKRvXJbIIt8IbBJbvdu3887uOkGnhp0k6V1/s1aZcYBCe+qX4PKLFCBnmY6VD+rjN6rkz+ZAQUnv5/Cl5+CfWQ6XyX9y4Ighq6F0xvDesu+4osP7dUHzZvhT6uHsbJFhUDVVWAiOLBXo//Q1I6PDNOMiek8DhPWto1XCpuCrbMXPwDbepE6qYeiMJsRexyowZJ47z3TfHgmUVwnwHy+IokHF3rzpCXTnEWaKxdTEV+eeZzQNXdfuziGtMsBX/bEWqwrb4+OchJxFTQSGEa0YsvzVgiOY9piHfE7l41sxH4FbJYNsMOoLLxu3dxVlSNyE8FU8LXLlE3qs0ROEk0Xv5cvavovX8NbILJY1gjw5PZmuQY7hHxilmN4KNAHm208oFDXFCgU2phxD4pySV+GMfQeUeusYo0qT6Pl/e/NBBPA2+2c5CQgXsTPTNMnwIuL9uK3MYKflTlJs/Zlap4qUPJumZ9VN5XfTk0xDCLkl8B9M2euxJTfCa/tHRgWeDropunwJM+gkYpVTnCbRsvqCaRhI9OQq8XAfhb0laJVlOJwIgthU2wWdzovX8j6vNuBlWDCJl20n9n58tdae8Jpuu+F16UK5Q8sBIxORv/SH3PgH6k+fvu4sXLnmJlrP6ZWOgRCNLfvojyPVvFn2fWAX7mm8PWLb8+VFbflIhekoM6Ymdd7j3gLlElGbrGzrirPxJpgXwvSVMTqnCs3J4hs298T0pqjkoZA1ZJzUtRWxnYmzu/DuoM6UjUBlF73UUWqi00CsG2XhYpfX9lNHclXTksu7Bg7ihgkN6z8uD19/d3S48EBo5iA0dAj4mmXssYK8z9ct720M6l/tEb1HlcIzbBWRWnVWrg+/VCW4zx3ifDJmhNTOQHO0JUpKp84UMRhW+FGtdcUBYYu+S5Ep+fsIS0DPDe6AyAx/NHCVbeCZ1rcoNkxY7cjrGnJoAXaq0tAD78Adnyc/8r8PxQplfTQTl4MlVJKQRck/JhqYd9A7ZiUrwUKipI9H7YmuGGWDbJqmM7fZDnhRdBPHRWDuX9EokqARAF9nITTUqSWG3/y4eqaq34feZGEa2Udwv5cTyUWGAigL2d7VA7Q9HRAiQ1YQQlUXB47ljRNalcIEu15k79flHfU0FiDsZ35DUjCUEdGfZah9UH0CdB+wHVOxDBDvQfOa3qDHS1I0d6fcfa31va8HnlsF2nvF9mqamWZ8K2EPSuw2vEec/6ONLuhs5oheY7pKr50lKa9yTXrA+876UDR0oXqFdG3a9osIOkqVhLlwHe+yMWX7OIU6ctye2YRWGJSV6X5JxJOt01beANVBj/mIa8/reRLZcbQdQaSpq3iyOfyRkH/t/+rFDx8PkD+lw70UMVcjJsbyJ2FqkMsYhawTZ5Y0yb4ECmhoIwvdBosMLuAPwcenkiCkRUoR8YySEoz5TwVj/wpenzK28+nsPb7TbSP7WPu9Tom34umSeFfe9Jh/0Umrs3mGYcFP1YWmIg0dzpB5c/5/vAjdI9dRG9xmuUqmhGVLgEwYxtpvIdKJA809eg+oGfm2tG3sN8DXIf82bSIIaa+h7ObR1V89+ud5R/z/jiL89SYy7zb6y70Y+51/sRaJZGrqvi+vJmrr5HYHZ4lhLORlgGFEChHzFkjABVuo6f0/ELfLWyRe/H4YN+9lP+vcqDGoPQPF+NJkEqaJqnGrWgWcxnFS6xKs8/B1JKua+NEyzz9KZojhYhus7/bCZ1lRllgzeFiJrexBqTRICXNnueh1fE8BH1O7YCNb8ek4tz0k0ysGjRoidE8G5pIgIVReWPAPDGlEgWg201J0u0UVEY6MuRKVkA48Mmm2RQEUiSyWuH50MB2JTZ4tHuxUQGpLHFrsHaCOeeHQZx3cd2Lo6o5trwJTd9AiAzo4fRWBrbuXu41tzxgr3DUC9kemUSX/TgYUstDeEjIrNW0ljzOmr7mtQ7mraryuDaWk4H6vsGgIyeBraCOvcY7KotHZt7RPjg/39M1IG/g1XFwuqRdmeV/+tshApr2xHqZ9rBCanH5nL9B5tO7GRUBDAi0LzWyIKIq6LV8C769yYsAqAUoBO12xkfD+3nURGGrQsoIALxR4UnJQNgn/EB0MP+2kDLHgPgbRs2cGn9B1fjQKP6pjJgPYKipP0pgjvUcPakZTY+8Kb6DYls/xymKVZhi2/kWPn8C1FdGHU+eZ0sStXbCeijohs8uNA+E399GOYOdRqcxDrbzJ3Z6cED3h+G9TWqChE1IeFV53X2nAbMu/Fosoigc5b/fna21tUkWigIwOpH0dJTc7mB5yGpBFBDtxwAFjLf4MAlUVQtS96EB1Br4M/0vX7h2uL6fI9IJFjnxpoX1Us1LQBG9bDdHR/YjOeuU3oCNxgsdAo1Gfuov+AmPnezk+a4dqHNkh6zCGjzdL/nLI5qkXqV9zkvdG9V9KCYq7bEnRmATnCOZkZVlT7w3idi6mdZImlUFb8XnW+MyCFoni1zpT7wzvA2WTckb6DB9O4+zP0B5UFo7sIPTKcAVPj3XaTuhhsZraICTPKAyXZYA5b8fytXNd0XE4mhuAAvpf/oC1pezFJvDduCx5yrwO/mzg033KgAeJuE8a6K08hB5Ixhz4qO3b0zuxtuuOHGXAJ49MlESXIsm2ClgUdSWNMpbmbdcMMNN9oE4FHYorrGNwzwor2OKGJxww033HBjFofu7XikaKkblkgywNPxQNnrumO3btbrhhtuuDGXAF408G81YJ1LoIGn6l0UGukdgRtuuOGGG7M7lETSPyemY15JaeBvkc4vDuDdcMMNN9oN4NFNh7vGN+iGqTXwV2Ts5OeGG2644UaaIdWF0N/DfIgNzWIVOXHvxq8H53QA74YbbrjRBgCvHfOka3wMDTwO6x3uf9gBvBtuuOFGGwI8N+udYB+ahiSSXq+lcZBk1Y0AOpwG3g033HCjfQDeuBFSN52EGvgSAfyr+ZROA++GG2640Qajs9w3Ea31TEOS2AAPDTx1+jlMRe8O4N1www032gXg4RduGmrk4gG8jfj9u2B1jPPs7na9brjhhhtzBuDlGzIZO4/17NIjdcokW2sd9Hu2kbL3J2kg4QDeDTfccKM9RrmfLMkcpWF1oweieDRIpsXhV+jK5ADeDTfccKPNAB7+82iqa+SOjdkTBIeVSHoXyAkdwLvhhhtutMcI2mahIzrMxqiFYB/6dtY7evkr/d3SgSUD+0Wc0w033HDDjd1ssXDDDTfccKPNRqKmwkzJuMImN9xwww033HDDDTdmb/x/LnPJkhc6h94AAAAASUVORK5CYII=;" vertex="1" parent="1">
          <mxGeometry x="490" y="194.38" width="126.9" height="67.5" as="geometry" />
        </mxCell>
        <mxCell id="WtDKhErMnv2pkWxC0K19-7" value="" style="shape=image;verticalLabelPosition=bottom;labelBackgroundColor=default;verticalAlign=top;aspect=fixed;imageAspect=0;image=data:image/png,iVBORw0KGgoAAAANSUhEUgAAAUwAAAC0CAYAAAD/2BWfAAAACXBIWXMAABYlAAAWJQFJUiTwAAAAAXNSR0IArs4c6QAAAARnQU1BAACxjwv8YQUAADXZSURBVHgB7Z0HnBvFucC/md2Vrkm6O9/ZBmx6C8VADKEkj5iQFzA21yUXwPTQCaHmYXg5Ai+BkEBiQiiBQCBxkc7XbDAdQ0JLTEICxnRMTLF99p2kq5J2d943qztwkXZX13x+7/vzEz7tzu6OZme++eb7vpkBIAiCIAiCIAiCIAiCIAiCIAiCIAiCIAiCIAiCIAiCIAiCIAiCIAiCIAiCIAiCIAiCIAiCIAiCIAiCIAiCIAiCIAiCIAiCIAiCIAiCIAiCIAiCIAiCIAiCIAiCIAiCIAiCIAiCIAiCIAiCIAiCIAiCIAiCIAiCIAiCIAiCIAiCIAiCIAiCIAiCIAiCIAiCIAiCIAiCIAiCIAiCIAiCIAiCIAiCIAiCIAiCIAiCIAiCIAiCIAiCIAiCIAiCIAiCIAiCIAiCIAiCIAiCIAiCIAiCIAiCIAiCIAiCIAiCIAiCIIj/CzDYWRGCVUc6vmkyZT5+m8xMuPU9ti78duiQJBAEQYwAO6XAnLF409c0xXML/nkKSs68geMCxDtc8PObQv6/AEEQxDCjwk7Ed8MfBoqg7Fco5itQPJZue54D20UIc1epfQJjAgiCIIaRnULDnHnfZwVKqe8KFIRXMwYlmdKgdFysJIwfNZ5e+knFwvYp3KP8Eg8bQuVXtlT53gaCIIghMqYF5hlPisJ4R/xMUOBGzOjELMlWoS55Y1Mo8MT0x3smebpS81Gofh+kwmnBkihol3YbyaufnlP+ORAEQQySMSkwpz0v1OK2+Bz888eYw70hcz5jBsD1nWX++8vbgCd47Adov7wKdc0JWW77cnGX/8SHz2Z9sBMRDL/l6eOTqhRgSvoIN5gwMpobTDzOuKYPfOemYQrgSabwBEAqaSiiw+Cla5dXsB4gCCJnxpzArArHj0XnzR2MsaNQ+CnbJWCgCwFhT57/2sip7LOKpfFvcsO8A62WR0nDZcabMraUM/WKxtqCTyubeyazVHJ/TQRWRkLMgDFOzdKeSaapv7+lc2tQyHIzRQILqB3L9h+maTzw6T4lT7x+JEsBQRCuGBMCc1q9UH2Hxo9QTPYjAWZ1FsFn4iD7NQ7aNSj4XpKCDxKpW1DvOg0NmEqm++J93sNb3dlU57s32NqzeyqROh9vfBWqZ/l4+n287uaevt7Gp+ZN7IYxSlpgpj7AP70w7IhPhcluZxr7U3ONfzMQxE5I5dJO+U8dGPo0xnk5/h0AwbC9CByNMdm2N5nC/PCINb+6tb6+3oQhsMMF5syG2H4oKK9hXJyNAiyj114AW49D0vpP9ir6/d6vf1RglJafZ4L4bzzlz3xXgcNStlQT2lXhYP7nqLVOx/vfjcf2zJB2pc74Rcvr/O/AGKRy0ebJTFWlwPTAiCFWCfBc2hIseA0IYiejKhKTcgxHYbCPTTKULt79mqvzPoQhwGEHMWO5KKlsiP5cFeZfGRPnZxSWjOmmyX7ZE09MbQz67pv8cfy7qdKyZ1FY/gKyCEvUHj8Ew6w+fLV/blv3hs1VkfhdjENLZmEpL2Df9JiwP4xV8vNlrzbCHRs7kkHyOexYzrJCsghiZwHtc2sO8jJs+Ls7JTUTPRNhiIx+HGa94FWHxC8WvfFLcMh8oI0seBkH4VfH1/j+ph6kF1ZFovfisdPwU5QlvWzpd3Gu3d4YDHyaDHdNLGalS/H4cdkegOnXG5Ca1xwc94z8XhOOzRBcHMqYuaixtvQTGAMYyT40OSqjIMRYATDznsqGuIm9yyNAEDsB0+/CmqtoHhif0JzSYjsKwBAZNYEZDG8sSoFaDSz2UxRtk7JLAPEvNDLc0hosjlje8kM60Uap4HAaCjMmR2cG9i6vCmFc3BwqfXPgcCH0Kfi8VEaBjJorpn+Sc8/5rbWBL04Jb5yoRaK/xedWS7ErhFJfHY49oIL2s0io4DPYoUhfT2qUtD6Wx4S4FzXN95tD/leAIMY4yp6Wr0KBhIvEKhTDEBn5ITkO8eoiXd9Lsbxl+LtQc2GTMqZjrFMwdjv0dH1HCsvp4c7ykk2xBrz+95BNWAK0CQOu0sST01qCJW+hLWN6VUP0vlMXx46JhMo+6xWsBtPchPfo3eoaARcdsbq44pM9CjZVRKKzPeB5Ewu9eos0XpSblyQh+UplODoLdiAepY+NqqWZMbQBGA9MXyBGwMlEEMMLNzfhp11xlVZnhTBERlRgVizsmoI2xBUpMJ5AyTnNJukKxpNHt9T5r20+c5LlrfWm+nZHZ89/ZMkjmjHFIl34j2iZFVgQU6ePq2yMP4zPaEQN8fuKAi9XNcTuyjP0wuZgoF7hxlHpcyh8Vc83WoL+B17bF4omr+28F6XRQhQSZZkyhWPhyXjdGbCDEUI4vichjTlCrEXZKp1Xa/HTbh0bFPwg78T4+UAQY5yeZFx+3MkxbuTDEBkR3aUyvPkgzN18xvhc24RM/JOZ4sqmUMlzx4ZF/kQen28aIprc0HbXisv3S9Q0RPc2gS1HafC1LTL8Vzx2NQq9PwfDQkmy2Hko9H6Kp7abW84YtIMwz28KljRueVzaKk0Gv8E/97TJnYF3uO098e+b5ApIleHOgzgXZ+nceGxZTckLMErULO3dwzSTH4PDu0LheGFLsPi+LY9Nf1x48/qiB4KpHitM4yTUmiuzxqpud0PxuRZ5avdIJDTmY1WJ/79UNUqdQJSB0dnmkFQa2/6rKVh8GwyBYRWYFS1dE1hKv4oJdiV+tVGTxWeY5sGOt/03y28lB3fOEMy8G3/SbunT5iuc553eWJf/UTDcHkgy9VrOoMYw2d2toSIZHiSqmqL7MB0eRC3029kfIwuTLWoOBSzBXdHc5mO652qULjfaep6FiKFYQUFbHAmGw4rOpgfR5nkfyhrLM4+mg5cUxm5srClaOdKLfJwa7thLYfwjuzSYgfXoFzrEKZayIhw/AIX+HXjBKeAKfkJz0LcSXCOAa8COvx+85YVdvl7gHtWIa9zwCsgXhmKoPV1F/u4VpzA3FqcRQIAnINjJj/SMF7qxOzfEHgqw3sZQ4DG3d8BOSP7jVbuiuzKFH8AFlGEN4DqYMQ8zP+gpKP1gx/2+sUN9fT0YXOOrD75igmBGMUsm8kHzKPId6MmUYIqSMHoh1rV7ycaVJwx+9l3F4nbZkr/FufJnp7RCmLfE3i6+aeWPURkaZLsdFoF51kMdxdEiOJcBv15k0PS2IInlFeaKcYP0QldGYkfjr7gFh77f3T4p+0yI1FUtoXFLrK/9KxBVPNjm4z4vDhfNn+D37DYJBlGUbLc0B/1yEQ6oCncdjra53+Kfx4It4nMUwjUtwcBr0lGVBO0a1JRvgG1NA0LgS2YRUP0/bK5hIxb0HUSBmXIQmFgwb6rCd3QkxHqd7lf10MfFoqj4j/iuZjilRVPAf7WEim/Ndr6+XoDJBF/ztU3jdVM7DhR2LL7//fDU3pirCXgHn3QkSfUXM4lChHXgsY343tbikb/qDJqOfOuO93INJq5otAKVg4qJphbBVBPlIFYNFZ+tSOGF/xqc83aRMn/XPKfYirsLLpOzQcUkvU+/Hc+fiF/K0z+SRdDBFXJ65szWz2Q5FyjJoiAahM7Ep/xHhlC4JPblazBdoxFL3tl6brmV0apwTP7zDSyEaiZM7FKYirVZQ6VBZczUMMuqMIWGnd6S5jp/8/bPlsUnCpRU95X4UkrAMDSO9zDkPRheK/Ba/ADj/058seEGOTrL9jvOel4aakR+bHP8Tnwf6AQxDXyFKRMbm6Iw/Bd0vFfK5Cz2vrnu1tzXlxUQ2NNgJ94aPw7vcSHmSdazkixJk4Kzd/CdLed9id80nlH+hZsnzFko/bCsrE8trMeR4mSUH8fgjxrvfCX7An/bJ5ivJL4H9KRKQc2SWCIJNN3NARcMSWBK7SvFTr4Cf/kFkG4o2UCljP3ZAH5ZS23hmzMibRM84P05Vpoalt2hI1mLTeDIAc3p1KWxYxQBC7Cgj7K5Rlbs1WAkg02zy9Zgo+b//FrnNYKbP0pXELvrRJNQvVc2V+evlZ5zD8tbjFn/tt01+KI+OvztwH719WxIMwiyYZklBLMPtmWw6j3T/823Q8xV5Zazh4Spf4gVxT4YXsDTqJ1/b9vDaD6RZZU/nnVdhomkY20KpGdP5QpaV9gqlHW3NdXlN7nt9fsDlf+AHzv7MmoxcFVTTeBOtKPL76fiyOVusOzSW6VyFJiVDVb1O5mZyj14/Z7gAvwhX+D/rsYOexEqBvJ34SiJ3WabX8Gubwr5t+uggmFL7o5PMVNGgWQVDFh6bwTK/cc+bKOxzVgelZkr1Xrhje3KYms2+np79340h1lwFQ1R+c9RXHDslMzjXZt/LEQ3dhw3e4TvzohDPa5Md0Cn4d3/CMODQIHpyg46aKdPZUPspCT73luQDiLPLiyF+BC1mbrD3vKdkCoofLcmHL8MvdKrscWdYSsshbmQc/U4KSynoaZXHYnfqpjwZwdhiQ0Q7jE037FSWKLTacIbh3Q2Ci5udRKWOOS+oWN1ICSFZXVj5yEe5n3RUVgCbBCGPnekhKXEVBKOlQ4tD8b4cnCdBzmnHq9qcUzIxNdkaNeWh2pwSLpLEUwuZ3F0LgkpAI6GwQlLCcfMo+aViqCTbonU6N1cJNIfp7rLcOA16UthCWKJg4DYjnos2Gs7DMyjdj031Va3wjL9cNhFNujqhvjDqQ1+L8umZW190ZDMO6iV8E3vfW5bLgU9DAp6sWdizuXX18ldC7yKJR1yMcVzFcFeku0mN2FpPa4Qf/6tKdb55EnhWKl9Uusz5BChwZBTHCaq8qyypWcqS6Zuxt7sZHszoOjA4r6/O9B38+ZxE1DtjR7v7VIWoL/3ULvr8MwnujBvXhYqeVB+r1oU/R6W/T2oDe3tkLd/m6a4fNnskhZr+4pw53fQdvIwVkH7RiKgDe99WUuodIl0IlVHOmtM3fgTasT2i10IsQ7r3NzmOWXWdMLKJe2nMq48ivd7CSXXbz/r8D/1+gVDX9jCTOUxx2orh7w5uqHwklVY2kH7RKyweG1UCrHol8d6sWGAjKTnjjMrcoDLvKSYt3R6uHPOipCvzT5xuq0Lhz7ClPZF1XMAGAkZiJ+bUEdh+btPU+yoV3v/G4v/x4Oc/ySvmued0MnxrwmOj4QhCkzA1rXLrrZpUqrMEopWgzkrS+XljklkORW3Gwp7rucnKPCuH7pBX0zLB/HUzHB7zfJQ6b8zpWDpl5EHw+Q+QOHuup261jBnLtx0YHVD7B6e0v+CwuTkbOlEuvnicEn9NjpNfpQfK9p78kfR3+OjnsUfeChkv1CGCj2IwvIEKSxnLoyXVUaid6OVR9p09s5+mQyngWWK4vmmFJYo9ALVSzt/hs3lCTxtKyyx3F/VFfVktNMtkUJWh/hNmI2Io7BEm6HJRWV6KwwUzks6fojCchHISf8MTkEB1zK5tPPZqobO2m01tBFBvkUnXXhbBHO2FzG0DQbUrYbtjW+WwCtri7CzYK7sTTlyopcbP3VKhMZ7+XGsu6jjTBFGr7Rh56yN4DAajnylZxbeZD4MFQan4//+0znh0AYq0n5bEt1gK9p1rI0GWk6lfw4cbpfo3OTYTWAdZ9Oe6/mpFJYwXDA2VQXlrmPvWJexk5NzVfAzbGsrYG0aPoGJAigfbUYLVE1D4cCkrTJrQDMKy9XYrX8P7V5nJdcXvle1JHYjMP05NPyebvssIT7Gt/296NuBC1FYfowvIaRpQgaTXyzsNYMEahvnarCuTg4zZ+FQOgnxJ1DbvE4a1W2uQ3nB7xVJpWp5beHfZZA2dgYL8Zr54FQmTPzd1JWTW+tK/iHto1g2t+Lvk0PTLc0L0huITgGzobgt/vip4d69YJCY3NnOzETuphUclDl6JrEcFdQdtn5+PYNj9uiTtsdGGAkEO7dySddJ9kmEZfADZw5HTdhlRMBXVDX1AtO8e+EvvwcLYdRmw5liaBom1hTel2c/HsnvY5DXx+RkCId6jp9xZbZJKrBTQWFzGub8chhuGJw6cTffJZnPqfIzbNEpWGKuHVuODS0JsTvwHzTuw7jsqcSnKByuaKnzH9oyq/gZOePGu1vnv/DuqKazMtvbC/PXXR3mEc3B4mfLj2pDrTIWxmOLRfYV1vth/2IKP7Ip6H8ogp489ERemtBN1H7hGNvL0GCGLotrWup8F7XOLdpQs7R9D+8u8Rfx2GxwgvGVepKf1Dqn8PPvrxLaPw+JY9mwa22FM4P/5Lx3LgwS3pt0FoYo2Da25Sg0mTLOMQljKW6Y+rbHDQMEfkZGYFrNXr9z3wXve+2SgHsbWe6D6VSS4efHTnbv4YYNVWBKrdDDHDVM/Mg09vUFG0Sqqz3rvdA/gOWkTMSb3GlFQgw/6LxnPwqGN+223QnLVWFGYZjAwaVrDdOx9+yDzvn5wleK9XN7TyIDdN/xRQkTbpB2J2tx3obYL7CwQ7K7tMsjXvyWycxzWoMlq4IvoxbbEDs91QMLXBjHO7FeLfx0L/9lcvHbikXduzLNvBGF7IXgzCcoKC5qCRatkF9q0OtumKwBhxO7OV4p2NJoWdHslScwHb2W5Rs+it2FAsVx2qS0FSYLSn4Bg8WHciPl0I7Q2L9HIbBcNi7CIe2hLpL1aXpsu9XZUymrQ37dm6eu2XJSQT9yvNxt1Q2B3k5uuTIKsBzK3DoCMN1+UyZOOOUDgKaM58VAMhh2Zi7uAN00D1MVZY5bkyL+th5s3R8BM+UWKB5rZSy5eg7LrRNjnA9NYGLHmfLYa5hGeh0XxnWwH7vIQAgb1wvXDHn1dfixV0PT+XodlYp7mep9xkx1oQNMOxxrwk2YjQMcrhyXAk0O9bfWNBPWXIrHwOv5F1Y3abSVcsy5c7PqpEhgvTRkOJUMP5NKAcqO9eASxxf6ZGhye2J92zwcni35yihtBdY18T7j0OY63wXe3iITtco7IZlcYwlLOwTE8XO5JnxHt9YVr6ps7jo09WmsCY89Cs7C8n3TNCtbgsUXSmEpHTRcSb3KXAhLLJiWREL7VnO/sKxaGj/LNNkyF8JSWsx+pkHsDCksZy78rCzFzBVuhCXWqNWoBZ88lEBmU3cjFoRS1PWp68aJZhbpyKlzTik+joQmbxfbueL0ceDxajHsmX/ffygq903CynEldoJHdvZ27ZUoDOyN2v/ey0/z7zXe69+TG8rBKOEe2WZefzZUg5tZRwoi7SUdAXGJD1Y4w08tOIVcfQlbiQL8+KagbwqOkk46fHXghIPeLdoHhaeM9cxtfdGhesmxPae67Dslb8L6uBqSZ7tXbcNmUJh+MEqBc8ExU+ZdiSLjO9hmH5ARKK2h8nePeDuwZN+Pi/B651Wx8BnzapZu3mr9iUasf1M+KF132OqiI3y9/j1TTBwJzsjAgGs1kdxLg/he6/Yu3tMDxXvhO9unOVTyTXCJK/uMDITFRjYvxeImaiZ7cKHe2BQseh6FhqgMR+uAdd6IyaYwBwUCzz6mc/26ZXXjVkv7XzLccRNLmRegNHPwIFozdhYmhXLV47MC66ficHjyxzHpoLkUr/XZXylQs+e39RWkfraizh+X+ndlQ+xa1IBlMLp9GIsQOj75xnh54BcrTyjW+xfzfRrPOPWM8sFrsBurah2Flcyx81J68ya5FiBJFp/HbOL5BsA0L2Y71xL0y5lT9wldWwmauu7r/yhs2za8aiBD91eA1FLX4OfMykgcbdPi5+AwVOYmOxiy5iutJQ3aqSw1DVOswnz8WQf1uYHD0+qfh/j7b6v+fb92khtlGO2oz3HO5zTVFG8cSI1lIP8xK5s3r8R/QkzX5BoGU8EFTIghCUxsf6zIQWBKDVNYo1q5PoFtUlbUnfleRnrnmBn4HnwOGXpOE6nrm08Z37XlYVlG0x4SBuv2XegviO+J2T4++y1YoZniUjn55bb3QExUYLo5VmjQXKyrgdplJPRVXl6H3HFt0JbBpCjkTh9oFKFwz+5ob7wNsz3bseIKsQ77s1ua6orvl1/lvOw3WByH3/xEF5W+TTB2U0tdQC7xBqc2bD5Y+TiOmg37Bjgi4oyplzTVFVkBrtbc80j0JhzBOno+sVp14f/OwR4oIr/PaIjujX6GJ/HPfZ2vhTbuUec1VxV+AENEwdpiGbntnidEHjfB1YotNeGOCtSYb3dj2kMN/Hm7861V1kyWVdbf4A4UtL9A88se+NovtUuHzXlS9rNWFeRufsNWMPa2KdjNXrOoJdOsKN/Xj5HVcbJIJg51ujMKi82QMs9tmuPbmOl8S9U4OUvr31Jopjh7A+/rc7gllvfQvOQyrIgV249MdcUqNYaDUvshuTyX4VbTF7wPyQ2b8zwTyr4P9pjcYLdEZm0tLAdYeTZDTbUT34FyiSmH7Nk1eobq7MnTnhe/liO8bU8Kf6EVh6yM0taGOXkAB4RlZRiH0Sz1F5Z1i4gBRB92mg92Q/H8Z+pYbPofN/txKHcpdm9oUHfacsHSKp9NGsmLH59d/p4Udjrrno1K3+/ATUydMF9BGXJ2a7Do3YFDSd41H21NjsJSzs3mXJvRiB50+X3m4ujXFcGX4ZldHZ8LbKOpeU9oqvIO017ospjsGxL2wn4l3iXLpDPTeSt+dnHPLpzr803GznM53GzvTfhfgBFA60rdmirULgK79QZMUYoan7qy/oTtGsmADTO32Eh2b+Jz3xUrLs9uHlETVqs7QgB3cmIIFG63t8wpWWuXKBIqgepI/GPML5qzxHnglMMh2jCxB+E9KXvTjDeZjsNMMebo9MkkMb2TrEi9PcBI7GV/vfjnO6zoJbskm8cVAToV3/V1dLcyGxMRFsoxxdE+2YGu3fZcQY/VNswUc6UvDJlBhUwIT+FaSMXWYi87JXsi+DsOqy5snBVYZc0Bb+g4gpscNUNxODg/oQs1gRvi5f775MT8ma3xslSy8158CdWyWjlcjAqU+Sdz1+JLWr/FthIgBVrRfb3Jzu9aIT9ZwFa4Bt3ApzTOwd+IVIc7vi1DaLDCl4Iz7djJn9QybMISXxDqAYaTAi/nRecZi2sisRdNYXYIxlPMMD2gcB8zxe5VDfHDUUmVzplC144MBvc8NY+NyOZwkbPKPqtuiK5BOX5I1kSMq/nfmCZbwfZaRX8KcAlKtz+2hIovdpx6KSyHyRQXd243mMfVtDxTs575K5ZyFpgghm7DzFcDtrlPGpZizZmmcafV/1JabLt7mYbVqRzGnWwWnP3l7Tr7KY7YtqEq3CE91C/h+84qMFHOFIKekPv1rN32XMJjyPMmS41hgdlaxTorwm0hHO7ikI3vsuU5fAVJ1Giu6IHNC5+ZvU9s2gShBhriP0XHzPmupjMxWKPrcPry2QFLu6tqik6FJDyML/cQF1lD2SIuiZUXP7jyW2n1HZ1Rl+HL7VWE76FFlWzD1PvEiZNK4gtQMl6wnddWwONC0y5pDvnXyq/SPovC5zfgQlgy6XHjrKKxtugN2BEwdgL2tSfI/sT6UUr/bBg+CO+IEJuMFP8V5EhVkyhmiegeaIDcBVRPMUihDaIX60R7yjA3FPDP34v0L+aAnrSNDgvWqWWbNsj6ub1GyLb4vzMfCa/nOjfz1PtnDu3rGHEj4C/LXa7E31LlwzoYxw5Urgcg7DbpAjZEp4+cPa/3gaMNUw7JFSGcJAzTe7YXijzdqRztMMsGXR3iRXCBmS7rd1n/6jpZb5g2hT277fG+uGFZZAvyHHeoGBYGHZQrvV3YO8ig4EbM8F7SkI6FtDhpJG5bMWfCh9KpUxTpnCY2df4aC2OKU/0WMhQF4C6mituW15VYMVY4DPek9PhdeNZRWOLd39c5zFtWW/yq/F7VGN8fG6x0LlSiygkGermrF3de0jSbvYXG3ovQ+fAoXnM/CtiDZWwmvqsFKCiv7s8LQzvbtfgCb3WnkbENJlPOaaktfAl2ekQPNrwfLp/r3+QmdVU4OhU7irNRAM4CIz5OKLJBYSMwBswI6feuKQr2pJP60O79d5TpTwlD7GfvcgAe80/gmU+lnT4u3oxshPe0VhV+Di5IywKY5KSH4pP/CjkgZyYhz6HpZB/7Gw89cF3Te2ylvUexrFk4AEko9l2pYPlq1/YJ0oXj1B6l/+mwmYvbPlKF2p7wmLqW7DfQ5heg+oLyWunyKqb01Ijx2AZrrfBx+/sdmOlE0pgAnJsoNbtgNBjSLAZ0x79Rs7T3BDCT5wnOn2mu81k2LxRW4/6hx65DM8kPmZuZEgLWom3t4mXBwIotD0tHE2qIcs3MhZA9zkqubdcsOo3zlp2dFrTSxorD6sewnL+cGik9cYKbz6BN6YKmoL8FnQ8vVzV1fIsZSg16O5PNtb4/yXRyj/SqcOwKFAL/Ay7At4walHJeS13h4/B/ANSo726Z5Xccbsp3zEzzeuxbLhdymTPLNGZ/Tf+U0+NQrTjOKaLCCpz2ZA6c7t/YkjmKTMxYytox1B39Pv6Ak+7Kga+GHGDCyuinzjpxZlv1gCjwWj/Y9jcrUGQfcKKkl4NGa5nTC5Cnt3dR9FsNyl2MW25QFc8NUm33Gjg0V9V0cHgK1RoVNAZez1c6rpvBgtgl09H9D0WbTRKM9lHaeWvI074aa/M/wX9uHPheuSR2kjDgDnwfB4FjlIR8/+xhDfi1zcH0ggszwt1TNdCPTRTpj6w4ZVy8GYVoZUNsNjoBfse2WW1GWOvZmVd4lvgfiESYVRWqGzrOEcJAL3CGsFsGE7DuNuEQ6RpN+H4VqWZSwA7EElorlHs6Y3dgZ3cRuHqL+HzDmNM8u3A5jBTSPTNKy9Fic7zbjCdudko390/Rkh5TPIuC6zAYMQT3buCZtSX3Q/KO5bV+95EKafO45iT5dSPpSmMdwExXzU3cIZABFYws3r0BkekYOsMTeputhplIzwJUXEwfy+jT7Tf4FLlWha14T6ujHNJsIFTSMzqYOz6yTClm7nanwTGs82RrwvEKg5mPMkfvedoTjf+7Ilbub5GOne/fJ7SN4+K3g9DlVrpl3m5tbuWizbNa5oxb11IXeBK1weNBZzK4/Vv9t3gf3/rZjbXF1jBYrqauJLVfooyWwbQ289alXDBvT7G43HLzvwcOT7t7Y1Fed/x3OCxzniKZJokv6QdNcnWkEcTU5Y6RI2vQFtZiyHCTnhdYsDzEeuzSzrzvs4Iejf0By3EEhaUENaDizLui9pv6nIfkTGp1uSxpYyV1NIapwN0E33+VPi2IU45BQ1k2A1HyCtNBpwnHn8KNRKELzdFa6wCc0ul9ndvdqz9UVMt59bYRIhICODBomAc6LgE9PAyrwOxWlL/lG6Idy9pOYKKSZz6eKFLPXnFKWquUdrCNLPYAntnCgy6OZar6WsXSjtNaa0ueb64uWVvx4DuncP8uV+Iwf2JHd+CHK89OL5Ra0dy9K0umFgmbANgtwU7vozzNd+/A9xmoMWkaW4RV4SQ318vZKmivvaRldslDsDMjhI4V/0WuKpc21fjWuLlEHVd0Dra1U2EHIlxPjWQxyIF+YWA4jVZNoeS0+6BhWvfzOsV3mBycrKdOerXGC/oU+wTWDVRjkDHy/WWTGtzVg4exbOMsBgeEokKk7dUjLsWHVWA+WVv4RTDcXpECORtGbGdMkQHd+KlvDJXIrSLSTh0eOxeHdrezzOONXbjJl1SHY/OaQoEnWs89UIYJ3bRlgqrwpm+gXeQRLCvn2TcSId5iau+Ji6v8G9N56CxPMdGMJ45zdb21D7p5LQrLh2GnRXRg43tCZeY9m1b/85VMsY6ZmPbQx3K7CZcr0wg0QPKV6PBYi1VZk50oVuoJaBveF8tvErhYsCHVE8vcAAYEj3Or7YQc6G9ujiHQqsZlTKDraY/9gtJxAeGsM336R+RYik5izpPfax+QmNBlGA54FcXRCcvy+3q21zDTCnsCxIjLpm0eLLKGuPXnROrnI76y1LA/IBIqfbNmSWfI4HJozr5aZFaIvwqTn9E02/+e/Cq1wmQy9kes9NOYfb9Zju9mecXSzu+01vq2ClVAL/25WBtl+IurlbrxJb9gGurc1lCxJSwrwrF9U9xcgnn4OrjDME3zutZgyd3unLRDx9STTG4V7gYmV2KSexnhVUJwHYeuBmrdfVi4MWwAn2Mpf4gOi79Ab+8rTfMmboQcKSksnSbstyJJI8RzCcVz5gprZfftzrGZizYfoKrqSucpsdnub/3fzdzFHONIrVs6TWVlKWHK+OOl4BYrCBzLzWmwzGGodUoxFW7fprkhH+J1avqWJpmpVaUF5QZw9pSnk6fDheR7SLD0/jloRBUyFkg6gQwmA5BkOCCzZLG1OZmQSknafmEZKTgTusn469mfYYH13eFHmcaQpfyISOTGWb4Xg491HZ3qMdC+x/ZmzLy+oyzwkDW1CYujoiE+l6f0BVg4boLBZX17Rxj6uoHvlr2zOP5zrIBXgFsELEqlzEseO80vlwxHL2/b/vg6WvG4S81UzhQUN7YGi+8ExkZxROJiUo7UOzivbqrztYxk3tCDfqrjIreC/aU56P9u1nzgcfSQvVMVjq/AxGdlvY1sNgEYEtgCc3OXpVXMD/HhJ9olQ4XxSDnzLBJiLrYgFvD2ogQ7aG7fd5xkfLb1MNW0Lo6+TEcvOYh8xWt3XmVWffK6W6w4g8RMhxKsQZ+cXRnJPbyuU039/kiwJD7i7SV9d8OpQ8JMDVnejZgKG5lRtH76gvePLyrIK4ycN7ldHguGe3ZLRdCxw8DVDm0SrPTP90Wh7snzSqx7zAz37L4ROu/Be7hdGFYW5P3RMv/lA3NRq8JtU0H3PGW/gNW292CoWQZ+CWMRxjbjUPflEa2YKMBEJLa/YzQKh1+6yoeCziVzcNkdsGE6WqxkfG0u900b9t50nEsmxLd7zM37Q3pBEVuqG7tlPqYIkzkvIZhF/Gq69YNFioELAa3Yzlln6YlTpc5rTgum93VniMO0pm/+zUFuyyUrJ+BoMycb8mDprwiOZiU+DAIz55W6c0GucjQgLOUWFymuP52DsJTa/FKPyVBYBqx7VCzsOEKFxAoce7pfRVuYv2mq9V8yICyrw13/CcyzMgdhKYcUvzh8te9OGKsIETV4UU6e21yZuezzfMa401x6Q6RUd4vACLMAhoazywdEjqtZWNurveuYjLECTdFc+WVNXWemoV/sJi1XM4cVpTRTfkzLSeeAquu72J3HPorhZwoMEhOLFD9vOaXDkpx9ytL2PWD0cOxMTFfDNXtGVGBuierxXIcv/GvuUos+7AEv0iAwNxJKC8vKcGwu1zgKXH6Qu3vgO9ONi5tDJVewfo2nYkn8TJPp0vbkzuYpgwGB3a4K3/yR3BnSHjfvmHWmPJDj/tG5IXihF60STuWG5exSbgv7aYLDRE4qLDO98vOBsHEwDCTF/+ZXNHQfYZeourEdhaB5CKZ1F6pmZK5iJivGXjuQXuzWIV9oZJ+Z7eTU+1bB+vi/5V7mp4Mj0oa5vR+2rycBfb2J90DaxG0vF7tqhpvnfEVluNNayWz645sdwxK3fpa1/pJTZ8JwSO682LEDoyYwCxK+K+UUQqd0aAP+TBPwrZag7z450wdfslbdEL0Gy0TOxHHcViENS6JgDTbPKb1n4EhlJHo95+J+xzX8tubX7WW++e5sVTsQBj29f105onks6LE0HKdOQ2WKNskhDcjFVIR7R9v2MPgyGNMOwXIb80ffzYP4x55PsZN82TGxAI2D8Yeqpo6MM9BO/EMcOjvVMmEov3Nb57KFFfXFN0Bv50ap3DlHMzB2dkWkM+NuoLuX7Au7+ve4Cmw2FfwKzErX9v3GU/MmQmFeQTcK3YXglBPG6iuWtLsK9auKxPAC83L8vObtUn8bDK9zv8unNTBw1jC5EEOOHR61DZ4WnsY6Khti53DBmrKsfScN2i94wDg9EiqzJjoFwxsnpsB7OzauXHqqjaaiX9laU2p5MeXsHW939L9wJCKD1F16yay9KG9vCRVfCzsDgqXchgYNlpK9S3o2fhyXHd6edumw3sodRV/Jdv5YbAhKQvxGLgwLg6Tfdmk6TsUENadOZGU9Qw2nQwaYv8SAO+/yKMShTFf+VrkkelFyQ9ufpQmq4sE2Wcl8PN88FjWauzDV/uCSbGFFgbxN+FPVlM7yul1UYY5e5UdxRHawovgf6P3sgzZ1z0IlzyjbP5ns/iHjfB64ggk1L3N+hOVohwdQ3ToXs2MXLqVyri6pWBK75utr/Au3HaXJn/tJ3GRXPNd1FBob5HbGM9KPhtN0FliP569hruzy1m0Nx/UqAI6vjMSObq31//XGnwD71x5Rf8qTKFUKfX1u1xsYNYEpaan1r6haGv0+jjHu2mal9C4poJLr225rxkonD1ghPwwW45+uVqu2EOJDQxfnLguWvtB/gHl7u/8H69BVucQTyC2pPfDpDbCzwM0h73/uxP1HshRWtneZXKnGPjMX10XizzQE/X/e9kzVoug+pmD1KPAct/ewo38hTOG4GhrLfUVeg1vO1rAiuFzg2HEIh3nYFx1uT3h3Gf9aVUP8I7nAP2bw4MFMG2VcyfiDIqFDpAYmTS7u9p4Rwotl/GNTdP7As+v4D1gf+JKsdy8UlrnY8ESvXpgxP82z/ZifqAwPDEN6J1m720zkHH7/xiHxWVXheDMaDT7EZtkphFpSvaT9MFDUaVjg38EyL9j6J4grapZ2fYx/3g1OGU0LSt1FG/djmicrlsb+8eYhLA+EMkGD/MkiZbyD59zscTW6AlN6T5sB/lDd0KFgbUePszTOiPdwrHF+66zSL2Msa5ZEv4vDk4VYEi52kh+4NXvHEKxq2Vy/ZbSXYR8pFn0Exzm57djI2IPJL/yXtVxePKI2QffIqGX70Ym1pfoogCPcx9DVaKuhYEMtSwlzBTbwV/GdrBLCWA+m6sPx0OGY0//g4P6dZqM/eNp0HpTnbkpZXlcmtcx30F77FA473dYdGSx+HL6I4/ozCIPCpgcQ6diAV3F4PxPcIkQx5uRIYK6HVl+BJg81L3t+NIEyD9iVKe77Nr6OAx3upuGdZmJHMlNYpkSOJjPDIy046XxmvEYRpvnjykj8H3KhHLDNqoXbdx3AMpyW1p3TD8ahuut44FGzYW5JU13J780EGqc5uw5L/ugvhaVcVm1px1mmwlpyEZbIa0ayd1prKC0spz0k8pIs3oI/L1dh+YdEge8Su1W5RxuVFzpqSVzAqNhYEynjCTlbyyld/3D7RLk/PObuTtSAf4IvtwaGQVha9zetj/NQzRSD6vSS0IcX9v0QHzAiCyhnQ9gErivcKz/Sjt8Do5IZzEpnPOvpSGgyGGpxD+fKD2RAOrgkPX0RNWA3MpxZ9aVhZoatdrfKqtV3mq/CIMGrXdtLd4jAlLSeXvpSc63/583V6SXZpJCrCsduxTHRg/jrcwk5Wa63d32nde4Ey6Ek7Z4lRZ0Lv7SHuATTR5rr/GcNZYfHkUDvSzoLBjY6AnPF6ePi6HhYADsYIVfadfaKyvUtBxVqtSK0C3h54UYU/JfC8OFsHrDRMBtr88HQ+z5BrasBRgXskvy72darpppCePmWvKdNFJrp2TsjkAsh4mAqtqYRYc0OYr+GwS7AzJnXdVIYA0z/o/AHCuNLMePXQg57OWP5/OLw1f7K5RfsZvW6ctHgFPc+hvWuGnIAe72HVBE/E8YgRp7m2NBMIUbNi68x/89wCPYcDA3ZSQ4+z9ZSC46zeITLLX0z0lzng1W/yntExuAK53UK7TPC2K14i6cdExr2RSK8ugCvcRnktgX9trzPOf+BYyoGutm+yXBKtOHvqhB68l7TFHJTtGHeIVW8qIN24vLZJf+0S9VaVywFK5p/zEdhEDDh3jQ5JgSmR2kPoNLgZm9hC2vrXOA3dXQFbhzwvNU29O3XP9Uxx3AVsSTl7bw00/7bYwFVTzgKTAYwagJThliJXhbCp66FQYB5faVH75KB0x/CYOHWx8VIwFrvdJAwOOUMzRwXLZIb592Zy7BzAKynJtbrSy+bmjcfM+y4xK1w2ASttaocRFKTe11XgQvTyHb3Z+y5VFKcrCsJuYd83D4xGF5fnyvbeOusEnTNi99jNTwby83VSv22SGEtxIOgBirdbgUiBDrMhPIz/GtElxIeEwJTrnnJ0vuEOyOXVhP86sagr35gebeqpq7DddH3PJ50Ny/8y3vBH3Rv4JzlFbuNjl1oMHjVpIuhxqjGiTaf6d/c25c4Ds1Ry1xrXwxtbwzuMeLJk56as9s6HNr/DQYJs5ax5XHHdCZ3jPu14/4LGDxwPjooOFwlpGdfmG41O1koa7iintxUF7j7rr/1ivSiEw75dbEJWmsogHZt8T5n4lhM/Qq4QFirC8HDRX2p6gIt8JE3WRpnDh53zEqirXyS6+iL5mApaAWeZVo+n4Ll9LCQQ+lcEUIuFLOCG8aJraHi85qr3Xd46L/AcmHvKEw5GTOf03sX/VtFu2F0veQ2NM0q/l1FuKOAM7vNt9gGVLfOwsJ5YuBIZUPsJNCNRagBOC6ftdWdgDWq4Lu0uYKNXWEJcloci6m6QLsVP4AJMy+97h/6JYRICYX3YiNLoDfgnzDKPHlG+RfBsKhL8dipaJ27EIXnkZgnudLtwPJiKfwuDbBRlPfPYW3+bXN14Mu9cDiDP2KjmoBazzj8DXnWTA000KGWJX9Tn9z3W9F9GTWclLBW0m1VhecAfN6eaJEokFHS/YFG0gsrhfO7ptnnSqA4gbZt+N4j65vxz6cLCgpn4NB5Fub3m/gplgNlmaZ/VR4piN7FPx6NjWt/YOUJe1kder9WYjhKQ5erFTXiEHTGn6JyU7UZmsbm4W/FYboYj7Va2v4Hyl/H8o1isfwdbTa3N4UCz8qYxqn3CbncemLXgFiO+T9Mlj3mF/3hMjaaya1G5MIZHfh3Y6Z9wO2IzLAmgn1R25BATVPchuV/Kg4F5+Gv2tdmOT/s7MU6PN9sKNrC1pqCVWyQayIsRTNKdeP6txiHKaaedw7e53w8PMn6bengXVRccXzEeDfWtU8ZZy/optmyLFTygttnDHm5o+GmMhK/jllrXoqtDbECvhAe5aSWqqI3Bw5VNcTm4PEHACDHecmsURN9Z0ZC40dn56T/68gVqFqgSDU2FSlGoaZ4QPT0CoN7CxLrdof460eyEYsTra+3hCR/oV8ufRsbxU0/lqF5I7cQyfQF1q29WvmmcUzJQ6HJFIXr3SYPxKL/WhnbdhJBdcRa1/NXeJXdWqKyIzyjKRj4E+TAtHorL2rxYVBksp4CSOoF3GRcCLU3GeiNyW1eYAdRjx2YaQi+pnHDuCQrPBC90VNVMHYTpqKi/Ipjzj/QvPBKL/N/vnyYFZepq6yFnbSydzaV5atagaJhmfSZSVFQ3Gt0vNvbes4BXYOpI2NOYEoqw9GfY+9wzcB3/FWrjW7tpOVnfWXPqI5Eg3j8fiuWMwfwvsuNWGJu67nlOS0uSxCDpSItMO9AiW63HCEq13B6Y23AacohsQMZEzbMbZFTEpnldZOxsbAoVuY/fEBYylW/UbP8AZ5YkquwREVo2WFv+SpJWBKjiYJdPn4ch7eGMbaXLCDGqMCUSJumybRvRDv952xpSwkUlsqtO6WdMyftGO1LTzDNmLfjVh0i/r9igrvleplQRsyMQAwPY8bpk4nWusKvvFeoHlYv7bpZCHM+5M7TnUKf/Uz16CxoShBb0t9Fm+C4CZoggTnGGdMCc0twGP4jdN9dBzkjngVVhEhYEjuMtKB0HG+7CSsidiw7jcBEwdeFfsTc8is341ofmDGW5oYT/w8xLc0xCdzeijQMm6ARI8yYtWFuy/j24nuxNrkPuWDseV3vnkXCktjhcEV+HGeSkQ1z7LPTCMz7L2ApjzAuwRrlYjVs8fdUwqxdPne3oU/TIoghwqwVG4XzWpbkJR/z7ERDcmvP81jFg20nc5+2Eu2ZmeeM4zActEDtY6GhzCMmiOFDTa8TsjTJPBO5gPFf7TjADcZZEgfsKRyNp3Q133kDNmKHMiYD152Q+6gwXX1egHn4lseFEM8k17fNXNG/ajtBEMRwslMKTElls5gMyXiYMTjGOsDZK1qhmBk5Ob3LJEEQxHCz0wpMScXCDROYlvcw/ml0C+O0Z0IUOkQQBEEQBEEQBEEQBEEQBEEQBEEQBEEQBEEQBEEQBEEQBEEQBEEQBEEQBEEQBEEQBEEQBEEQBEEQBEEQBEEQBEEQBEEQBEEQBEEQBEEQBEEQBEEQBEEQBEEQBEEQBEEQBEEQBEEQBEEQBEEQBEEQBEEQBEEQBEEQBEEQBEEQBEEQBEEQBEEQBEEQBEEQBEEQBEEQBEEQBEEQBEEQBEEQBEEQBEEQBEEQBEEQBEEQBEEQBEEQBEEQBEEQBEEQBEEQBEEQBEEQBEEQBEEQBEEQBEEQBEEQBEEQBEEQBEEQBEEQBEEQ9vwvpM2Pn0rr2wIAAAAASUVORK5CYII=;" vertex="1" parent="1">
          <mxGeometry x="683.55" y="250" width="62.25" height="33.75" as="geometry" />
        </mxCell>
        <mxCell id="WtDKhErMnv2pkWxC0K19-15" value="" style="image;sketch=0;aspect=fixed;html=1;points=[];align=center;fontSize=12;image=img/lib/mscae/Data_Lake_Store.svg;" vertex="1" parent="1">
          <mxGeometry x="668.88" y="198.13" width="76.92" height="60" as="geometry" />
        </mxCell>
        <mxCell id="WtDKhErMnv2pkWxC0K19-17" value="Real-Time Data streaming through Broker" style="text;html=1;align=center;verticalAlign=middle;resizable=0;points=[];autosize=1;strokeColor=none;fillColor=none;fontSize=22;" vertex="1" parent="1">
          <mxGeometry x="140" y="15" width="430" height="40" as="geometry" />
        </mxCell>
        <mxCell id="WtDKhErMnv2pkWxC0K19-18" value="" style="shape=image;verticalLabelPosition=bottom;labelBackgroundColor=default;verticalAlign=top;aspect=fixed;imageAspect=0;image=data:image/jpeg,/9j/4AAQSkZJRgABAQAAAQABAAD/2wCEAAkGBxERERASEBMTFhUWFhkVFxYVEhgVFxgWGBUbFxYSGBcYHSggGB4lHRoWITEhJSkrLi4uFx8zODMtNygtLisBCgoKDQ0OGxAQGi0lICMzKzcrLy0rLSs1LS82Ky0yLy0vMjcyNzcvKy8tLTgtNS81MC0xLSstNTctNTAtLS83Nf/AABEIAHoBnQMBIgACEQEDEQH/xAAcAAEAAgMBAQEAAAAAAAAAAAAABgcDBAUCAQj/xABLEAABAwIBBgkHCAcIAwEAAAABAAIDBBESBQYHITFxEzRBUWFygZGzIjI1c6GxshRCUlOCkqLBFSQzVIPR0iNDYmOTwtPhF6PwFv/EABoBAQACAwEAAAAAAAAAAAAAAAAEBQEDBgL/xAAuEQEAAgECAwUGBwAAAAAAAAAAAQIDBBESITEFI0FhkRMUUXGBsSIygqHB0fD/2gAMAwEAAhEDEQA/ALxREQERcnOjKZpqaSRnn6mtv9JxtfsFz2LNazadoYtaKxvLdrK+KEXlkYzmxOAvuvtXImzzoW/3pPVjefbayhGRcgT15kkL7AGzpH3cS617DnsCO8LmZcyVJSymKW17Yg4bHNPKO4i3QptdNj34ZtzQranJtxRXksP/APd0XPJ/plZoc9qB2rhi3rRvHtw2VRuKxuK2TpMfm1xq8nkvqjrYpm4onse3nY4OG7VsWdUJk7KUtPIJYXFrh3EfRcPnDoV15Byo2qp4p2i2IaxzOBs5vYQVFzYJx8/BKw54ycvF0ERFHSBERAREQEREBERAREQEREBERAREQEWGrq44ml8r2saPnPcGjvK9QTNe1r2G7XAOaRygi4PcgyKI5057to5TC2Fz3gAklwazyhcbLk9wUuVO6SePydRnwoLNzWyk+qpYp5A0OfiuGggCz3NFrk8gC6qjuj70dTfb8V6kSAiIgIiICIiAiIgIiICIiAiIgIvEr8LSbE2F7AXJ6AOdc+ny2x7ntDJgWGz7x2DTgD7E9Ug9qDpouX+n6f5L8sxHgbXvhN/OwWw7b4tVl02uuARy60H1EWGqqmRNL5HtY0criAN2tBmUU0kH9UZ61vwvW2/POhBtwpO6N9vhXNy3nBk2qjEcssgaHB3kxvBuARytPOVIxY71vEzWfRHy5KWpMRaPVws0s620jHxysc5hdjBZYuBIAIsSARqHLzrlZ15d+WTB4aWta3C0Hba5Jcbcpvs6F1DBkX66o+67/jXkwZE+uqfuu/41Ljgi3Fwzv8kSeOa8PFG3zRFxWNxXXzhZRN4P5E+R3nY+EBFvNwWu0f4u4LiOK3xO8btExtOw4q2tFx/Uf4r/AMlULira0YSBtBc/Wv8AyUbWWiuPeUnSR3iZItf5Yzn9hWWOQO2G6qaZ8V52raJ+qzmto6w9oiLa8iIiAi1q/KEMDcc0jGN53OAueYc56AovWaR6NhswSydLWBo/GQfYgmKKCM0nQX1wSgdBYT3EhSTIeclNWXEL/KAuWOGF4HPblHSLhB10RYK2rjhY6SV7WMG1zjYC5sPbYIM6KP5Kzupqmo4CDG7yS7GW4W2FhYX8q+vmUgQERcvLmXoKMMM5cA8kCzS7Zt2b0HURcrIWcEFZwnAFxwWxYmlvnXtt27CmXc4IKMMM5cMd8OFpd5tr7Nm0IKkzzkc6uqcRJtIQLkmw5hfYOhW/m3xOk9RF4bVS2cNWyaqqJY7lr3lzbixtuViZHz5ooqenje5+JkTGOtG462sAOveEE2VO6SePydRnwq2qCsZNGyWO+F4Dm3FjY9HIql0k8fk6jPhQWBo+9HU32/FepEo3mE8NybTlxAADySTYAcK/WSlbnzQRkjhcZ/y2l4+95p70EkRRSm0g0DzYukZ0vjNvw3spPBM17WvY4OaRcOaQQRzgjagyIiICKLZVz9ooSWtc6Vw1HggCB9okA9l1zGaToL64JbdDmE91x70E8RcXImdNJVnDE+z/AKt4wv7OR3YSu0gIixVNSyNpfI5rGja5zg0DtKDKiiddpCoYzZhklP8AgZq73lt+y6540nQ3/YS26zb91/zQTxFH8iZ40lU4MY8sedjJBhJ6AQS0noBupAgLi0dO8SZSJaQHyNLNXnD5LE245/KBG8LtIggs+TJ/k8kAjfh+TunFm6jK6m4L5PbldwmOS3PZTeEeS3cPcvaIMdRM2NjnvNmtBcTzAC5KqDLuWJKqUveTb5jL6mt5t/OeXuVhZ91OCikA2vLWd5uR3AqqnFWGjpG02V+svO8VfHFY3FHFY3FTEMcVjJQleHFGXxxWNxRxWMlYZCVa+jr0d/Gd+SqdXNm1k51LQwRSapHXkeOYuN8J6QMI3gqr7XvFdLbdN0FZnK3yV9jlLSCP/uhYyV4JXCe0ms7x1dBw7pA11wCOVfVrZOfeMdGpbK7DDk9pjrf4xCutG0zAubnJlJ1NSzTNAc5jdQOy5IaCbcgve3Quko/n96PqdzfEatjyq/J0E2U6trJZTjfcl7hezQCSGtFgNwsFZGT8wqGIDEx0rvpSOJ/C2zfYoJo49IRdV/wFXGgjtfmTQytIEIjPI6MlpHTbYe0FVXlWhmoKosxEPjIcyRuq4PmvHtBGvlGtXsq60t0g/VZht8qM9Oxze6z+9BLs1ctCspmS6g4eTIByPG23QbgjoIWhpI9HT9aPxWqL6Jqwiaoh5HMEg3sdhPeHj7qlGkj0dP1o/FaghGi/j38J/vardVRaL+Pfwn+9qt1AVf6XPMpes/3BWAq/0ueZS9Z/uCDxoi2Vm+L3PUwy3kGnrMAqGl2C+Gz3Nte1/NIvsCh+iLZWb4vc9WGgobOKlZDVVEUYsxjy1ouTYbzrKsXI2ZFDJT08j43Fz4mPceFeLucwEmwdq1lQDO/j1X6wq4s2+J0nqIvDag2qGkZDGyKMWYwBrRcmwHSdZVSaSePydRnwq4lTuknj8nUZ8KDHkXI9dXxxxNJbTx3ALtUYJcXEgD9o65O7ZcKZ0OjikYP7V0kjuU4sDewN1jtJXR0fejqb7fivUiQVZnnmQKaMz0xcYx57Hay0E2DgeUbLg6xtvzYNHGXXQ1Dadx/spTYA7GyW8lw37DvHMrRynCJIZmO2Ojc07i0hUXkE/rNIf86I/wDsagv1VfpEzodI99JC60bfJlIPnu5Y+qNh5zfkGuw8t1vAU88o2sjc4dYDyR32VH5HpeHqYI3XPCSNDtesgu8s357XQTLM/MNssbZ6vFhcLsiBw3adjnuGvXtAFuTXyCVTZk5Pc3DwAHMWveHb7319t1IALbF9QUxndmy+gkY5jnOicfIfsc1w14XEbHcoItex2WU50f5zmqYYZjeaMXv9NmzHvBsDvB5dXUzzoRNRVLSLlrDI3nxM8oW32t2qpc1K4wVlNIDqxhruq84Hew37AgubLlcaennmaASxhcAdhIGq6qCGWoypVxRzS63k2NvIYA0uOFgNtgtznVcq1M8eI1fqne5VdmD6Rpd7/BegsTJ2YtDEBijMruV0hJv9kWaO5ZMoZk0MrSBCIzyOj8kjptsPaCpEiChsv5IfRzuheb2s5rhqxNPmvHNsI6CCrWzCyu+qpGukN3xuMbnHa6wBDj04XNv03UV0tsHDUx5SxwO4OFvee9dbRNxWf158ONBN0REBERBD9Jp/VofXDw3qtXFWnpFp8VE531b2P7zg/wByqhxVnpJ7tWaqO8HFfIonPc1jGlznGwaBck8wC8EqwNG2TWtilq3C7iTHHfkAticN5Nvs9K9581cOOb28GvDinJeKw1sn6PCWh1VMIyfmMAcRvcdV9wO9bh0e0n7xP3M/oUmcSTcr4uTydvaibb1iIhdV0GGI5owdHVH+8T/g/oXz/wAc0f7xP+D+hScleCVqnt7VeX++r37hh+DnZHzXoaRwkY18sg818pBwnnAAAB6bX6V0pZS4knavBK8kqt1evzame8lJxYKY42rASvJK+ErySoE2SIh2MjnyHdb8gt9aWSGWjvzkn8vyW6ux0ETGmpv8FZm/PIo/n96PqdzfEapAo/n96PqdzfEapbWrzRx6Qi6r/gKuNU5o49IRdV/wFXGgKEaWeKwevHhvU3Vd6W6sWpoRtu6Q9GrC3vu/uQcTRkf19vq3/l/0pzpI9HT9aPxWqJ6KKQuqZpeRkeH7T3Aj2Md3qWaR/R0++PxWoIRov49/Cf72q3VUGjJ4FeL8sbwN+o27ge5W+gKv9LnmUvWf7grAVf6XPMpes/3BB40RbKzfF7nqw1XmiLZWb4vc9WGgozO/j1X6wq4s2+J0nqIvDaqdzv49V+sKuLNvidJ6iLw2oOiqd0k8fk6jPhVxKndJPH5Ooz4UFgaPvR1N9vxXqRKO6PvR1N9vxXqRIMVV5j+qfcqGyDxml9dF4jVfNV5j+qfcqGyDxml9dF4jUFwZ8g/o+qt9Ad2IX9iq3Ms/r9Jf6f8AtNlcuV6Ph4JovrI3MvzEtIB71RWTqgwTxSOBBika5w5fJcC5vsIQfoBF5Y8EAg3BFwRyg7CvSDWylbgZr7MDvhKoKjBxx224m233Cu3PGrEVDVOJteMsHWf5DfaVU2Z9CZ62mYBqDxI7qs8o332A7UFs548Rq/VO9yq7MH0jS73+C9WjnjxGr9U73KrswfSNLvf4L0F1IiIKz0uftaXqP+Jq6uibis/rz4ca5Wlz9rS9R/xNXV0TcVn9efDjQTdERAREQa2U6MTwyxO2PaW35rjUew6+xUZWU74nvjkFnsJa4dI/LlB5ir8XDzhzWp6yzpAWyAWEjLB1uY3FnDf2WUnT5oxztPRG1GGckbx1Us4q1Mx/RsPXk8Ry57tGLf3l3+kP6lJMm5IFHSsgD8eFxOLDh84l2y551q7UzUvpbREsaPDemWJmHsleSV8JXglcNNl7EPpK8krLTxtdfE4Ntz8qymlj+tHs/mvddPkvXijb1iP5Ym9Ynafs0yV4JW6aWP61vs/mvbMmNcLtkuOgf9rMaHUWnasRP6q/2z7WkdftLmkpGwuIaNpNl1P0OPp/h/7W1SULY9Y1nnP5Lbh7I1FrxGSNo8ecMW1NIjl1bETA0Bo2AWXpEXVxERG0K0Ufz+9H1O5viNUgUfz+9H1O5viNWRUmQ8qvpJ2TsDXFtxZ17EEWI1bNu1WdkvSDRygcKXQu5Q5pc2/Q9o2b7KD6O2A18YIBBZICCLggsNwQpzlPR9RykuYHwn/LIw/dcCBuFkGbKOfVDE0lsnCO5Gxgm/2iMI71VuVK+auqS8tLnyENYxuuw+axv895U5Zowjv5VQ8jmEbQe8k+5SbIWbNNR64WXeRYyPOJ5HNfYB0ABB5zQyGKOmbGbF7jjkI2YyNg6AAB2X5Vt5eyaKmmmgJtjbYE7A4G7SdzgCugiCgo3TUdQDYsmidsI2HmPO0g8m0FWhknSBRytHDEwv5Q4Etv0PAtbfYrsZczepqwDh2XcBZr2nC8dAPKOg3CjDtGMF9U8tulrSe+w9yDsVmfNBGLiXGfoxtLie2waO0hV3nfnS6ucwYAxjCS0Xu431EuOzkGod5U3pNHFGw3eZZOhzw0fgAPtXL0lZOgp6WnZBGxgMtzhaATaN2snadvKg9aItlZvj9z1Yar/RGz+zqnc72DuaT+asBBTmkPJroa2R5HkS+Ww8hNgHt3g+xwUzzKzppn00MUkjI5I2iMte4NxBowtc0nUbgDVtvdSbKWToqhhjnYHtOux5DzgjW09IUSqNGlMSSyWZo5iWuA6Bdt++6CaseHAFpBB2EG4Paqf0k8fk6jPhVr5KoRTwxQtJIjaGgnabcpsuPlrM2mqpTNKZcRAHkuAGoWGotKD7o+9HU32/FepEtPJGTmU0LIY8WFl7Yjc63Fxubc5K3EGKq8x/VPuVDZB4zS+ui8RqvyRtwQeUW71FaXR9Rxvje0zXY5rhd4tdpBF/J6EEsVX6Rs2XRyOq4W3jfrlAHmP5X9U8vMb8+q0F8IvtQVxmPnrHHG2nqyWhuqOSxIw8jHW2W2A7LbbW1zGXOeha3EaqC3+GRrj91pJ9i5eVcwKOYlzA6En6sgN+4QQOyy5jNGMV9dRIR0MaD36/cgj+e+dXy1zIoA7gmuuNXlSPOoHDttrsBt17gJjmBm0aSMyzC00g1j6DNoZvJ1ncByLo5DzUpKQh0bMT/rHnE7s5G9gC7iDjZ48Rq/VO9yq7MH0jS73+C9XDlGibPFJE++F7S02NjY8xXDyTmRS000c0ZlxMvbE8Ea2lpuMPMSgkqIiCs9Ln7Wl6j/AImrq6JuKz+vPhxruZwZsQVro3TGQFgIGBwG0gm9weZbGQMhxUUbo4S8hzsZxkE3whvIByAIOmiIgIiICIiAtTKfmDf+RW2sNXDjaQNu0b1H1VJvhtWvXZ7xzEWiZcQleSUfcGx2rwSuMtOy0iH0le6eB0jrN3knkWAlbFBV8G65FwRY8+9ZwzjnLWMk/h8S0Wis8PUrKN0dr2IPKPcunkb9n2laVfWcLhawHbfpJXUoYMDA07dp3lXXZ+LH75a2HnSI6+fLki5rW9lEW6s6Ii6BCEREBR/P70fU7m+I1SBR/P70fVbm+I1BXmjj0hF1X/AVcapvRx6Qi6r/AICrkQEREBERARFGcvZ7U9JK6F7JnPbY+S1uHWARrc4c/IgkyrLSvlBrpYIGm5jDnv6C+2EHpsCftBYsraSJ5AW08bYr6sRON/YLAA96183MyqiqfwtVjZGTicX34WS5ubA6xf6R7LoJboxozHRYj/eyOeNwswfDftUtXiGJrGtYwANaA0AbAALADsXtAREQEREBERAREQEREBERAREQEREBERAREQEREBERAREQEREGGemY/wA4duw960pMkD5riN4v7rLolwXzhAoubRafNO968/T7Nlct69Jcr9Du+kO4rJHkcfOcTuFv5rocKF9EoWivZOkid+H95e51OSfF4gpWM80du096zLyHBelPpStI4axtHk0zMzO8iIi9MCIiAhCIg5sWQaVszZ2RMZIL+UwYb4hY3aNR3kXXSREBERAREQFx8q5sUlTIJZ4sTw0Nvje0WBJGprgDtK7CINDJ+RaaDXDDGw/SDBi+9t9q30RAREQEREBERAREQEREBERAREQEREBERAREQEREBERAREQEREBfCF9RBidGvBiK2EQa3AlfREVsIgxNjWQBfUQEREBERAREQEREBERAREQEREBERAREQEREBERAREQEREBERAREQEREBERAREQEREBERAREQf/Z;" vertex="1" parent="1">
          <mxGeometry x="178.45" y="207.5" width="101.55" height="30" as="geometry" />
        </mxCell>
      </root>
    </mxGraphModel>
  </diagram>
  <diagram id="NjbM8z4Pvq6uYHjf41uz" name="Page-2">
    <mxGraphModel dx="932" dy="614" grid="1" gridSize="10" guides="1" tooltips="1" connect="1" arrows="1" fold="1" page="1" pageScale="1" pageWidth="827" pageHeight="1169" math="0" shadow="0">
      <root>
        <mxCell id="0" />
        <mxCell id="1" parent="0" />
        <mxCell id="Sz6BR0hqmBrMi9TMJiZ0-1" value="Batch data processing through scheduler" style="text;html=1;align=center;verticalAlign=middle;resizable=0;points=[];autosize=1;strokeColor=none;fillColor=none;fontSize=21;" vertex="1" parent="1">
          <mxGeometry x="66" y="56" width="410" height="40" as="geometry" />
        </mxCell>
        <mxCell id="Sz6BR0hqmBrMi9TMJiZ0-2" style="edgeStyle=orthogonalEdgeStyle;rounded=0;orthogonalLoop=1;jettySize=auto;html=1;entryX=0;entryY=0.25;entryDx=0;entryDy=0;" edge="1" parent="1" source="Sz6BR0hqmBrMi9TMJiZ0-3" target="Sz6BR0hqmBrMi9TMJiZ0-4">
          <mxGeometry relative="1" as="geometry" />
        </mxCell>
        <mxCell id="Sz6BR0hqmBrMi9TMJiZ0-3" value=".CSV" style="whiteSpace=wrap;html=1;shape=mxgraph.basic.document" vertex="1" parent="1">
          <mxGeometry x="20" y="157" width="70" height="90" as="geometry" />
        </mxCell>
        <mxCell id="Sz6BR0hqmBrMi9TMJiZ0-4" value="" style="shape=image;verticalLabelPosition=bottom;labelBackgroundColor=default;verticalAlign=top;aspect=fixed;imageAspect=0;image=data:image/png,iVBORw0KGgoAAAANSUhEUgAAAXgAAADICAYAAADiIPpnAAAAAXNSR0IArs4c6QAAAAlwSFlzAAALEwAACxMBAJqcGAAABBdpVFh0WE1MOmNvbS5hZG9iZS54bXAAAAAAADx4OnhtcG1ldGEgeG1sbnM6eD0iYWRvYmU6bnM6bWV0YS8iIHg6eG1wdGs9IlhNUCBDb3JlIDUuNC4wIj4KICAgPHJkZjpSREYgeG1sbnM6cmRmPSJodHRwOi8vd3d3LnczLm9yZy8xOTk5LzAyLzIyLXJkZi1zeW50YXgtbnMjIj4KICAgICAgPHJkZjpEZXNjcmlwdGlvbiByZGY6YWJvdXQ9IiIKICAgICAgICAgICAgeG1sbnM6eG1wTU09Imh0dHA6Ly9ucy5hZG9iZS5jb20veGFwLzEuMC9tbS8iCiAgICAgICAgICAgIHhtbG5zOnN0UmVmPSJodHRwOi8vbnMuYWRvYmUuY29tL3hhcC8xLjAvc1R5cGUvUmVzb3VyY2VSZWYjIgogICAgICAgICAgICB4bWxuczp4bXA9Imh0dHA6Ly9ucy5hZG9iZS5jb20veGFwLzEuMC8iCiAgICAgICAgICAgIHhtbG5zOnRpZmY9Imh0dHA6Ly9ucy5hZG9iZS5jb20vdGlmZi8xLjAvIj4KICAgICAgICAgPHhtcE1NOkRlcml2ZWRGcm9tIHJkZjpwYXJzZVR5cGU9IlJlc291cmNlIj4KICAgICAgICAgICAgPHN0UmVmOmluc3RhbmNlSUQ+eG1wLmlpZDoyREI0MUQzNjE1NDYxMUU2QTQ0NUYwOUYzNzQxMjg4RTwvc3RSZWY6aW5zdGFuY2VJRD4KICAgICAgICAgICAgPHN0UmVmOmRvY3VtZW50SUQ+eG1wLmRpZDoyREI0MUQzNzE1NDYxMUU2QTQ0NUYwOUYzNzQxMjg4RTwvc3RSZWY6ZG9jdW1lbnRJRD4KICAgICAgICAgPC94bXBNTTpEZXJpdmVkRnJvbT4KICAgICAgICAgPHhtcE1NOkRvY3VtZW50SUQ+eG1wLmRpZDoyREI0MUQzOTE1NDYxMUU2QTQ0NUYwOUYzNzQxMjg4RTwveG1wTU06RG9jdW1lbnRJRD4KICAgICAgICAgPHhtcE1NOkluc3RhbmNlSUQ+eG1wLmlpZDoyREI0MUQzODE1NDYxMUU2QTQ0NUYwOUYzNzQxMjg4RTwveG1wTU06SW5zdGFuY2VJRD4KICAgICAgICAgPHhtcDpDcmVhdG9yVG9vbD5BZG9iZSBQaG90b3Nob3AgQ0MgMjAxNSAoTWFjaW50b3NoKTwveG1wOkNyZWF0b3JUb29sPgogICAgICAgICA8dGlmZjpPcmllbnRhdGlvbj4xPC90aWZmOk9yaWVudGF0aW9uPgogICAgICA8L3JkZjpEZXNjcmlwdGlvbj4KICAgPC9yZGY6UkRGPgo8L3g6eG1wbWV0YT4KXB+9AQAAZPlJREFUeNrtfQmcHFW1/kwej+f23IXMTEB9gltcHyhbkumumpkQFHyKuCGoiElmJmF35YlB9OG+gBt/VFxwi4o7Lk9eZFMUF1AQEchsAbKQjT3TPT3/8917TvXpmuqllu7pSe79/eo3k8xMdfXtqu+e+53vfKejww033HCjzcb0mo55dOxV9ecdHZ34Ob662XLDDTfcmCNjXQjYbzu5Z8Hoyu4Xr185/6Vjw/MX3rb6iY/VQL/2uI5/cbPmhhtuuNHOUTuicgXWY0PdR48Ndn9ldLD7Bvr+7rHh7q30/dj4UM9vxoe7zhtbPf+5waKQqx7tu+GGG264MdvgTrSMAfbBff+DAP1SAvNd207rmd5Kxz2nlo9tpy2Y3nxKzzT9zvjoUPdZsiisW+NA3g033HCjbcF9YnjBIQTcf91x+oLpjasNiE+NDfVMEpBPUgS/y3wd6i6MD3UbsN+E36EofyvTNg7k3XDDDTfaaAgojwz1vIiA+9Z7z1hggN2A+WB3ib6fjjim6Ge7NqzqnsZiQH/3zY1n7ftos2A4kHfDDTfcaIPoncH49pX77kMgfdVOA+49kzZyjwT20NEziWh+uwX5C4PzusSrG2644casgvs8+Z6A+lPg2zliLzYG7sFRQCR/N9E1xNsPR53fDTfccMONFg6hZkaHFxxF0fcD4NyZY5+Oe+DvttjE6z3g8V0U74Ybbrgxe9G7AfcbT9j30SR7vHwnUSxJwV0dk5aP77l84vQFjzSLiJNPuuGGG260GOA5uh4b7DkOfPtdqww9U0wJ8Ia333SKo2rccMMNN2ZlCDXzx+Ud/0rSx7U2sZo6eg/4+C2nGqpmZGJowQF6MXHDDTfccKPZ0TsD/Nhg10FEy2zioqVCJgBPSVri84vbTzNqnC+4KN4NN9xwo1XgPl02ByMwXs3gPl1D7x77AMDfucomXieGuo4UgHfGZG644YYbTRxCzwBwx4e7v4HkambRe/kwUktYHNDXq/5x0pP/Ha/pTMnccMMNN5oZwTPAT6xc0EMR9o2gUkaz49+jE67kV2NeG5YI0y6Kd8MNN9xoDsCLemaoexEB7867rd9MMWuAH7Vfi5ssBbRhbIV1nnQJVzfccMONZoA7ImjmwceGu04AuI+raDvzA7w+HZaq6fqq2kW4hKsbbrjhRqYAr4CVgP39zJFPMWc+3aSjaDT2xPOPrux6pYvi3XDDDTeaMLSVL9wflbHYdBMPm3CFNn6w6/cjpz3t8Q7k3XDDDTeyj+BZ/77/E4gjv3bH6U1LsM6QTU4MS8K1573mWhRd5IYbbrjhRlqA56h5dKjrOQS8ozAHG48nkSyloHQKbEZ2N/q76gVnTs0hK4HcAuWGG260WwRvOPjRlT0erAlQjBQjwVoi3fy0+RtbFFVKIJucgiUx6KHwNbUtmNP1Qb9vCrW4WCs4pit/7u4wN9xwY3bASunPJ4a637pRFDQNVrCy2uZBOnYC5MeTKW8KLMssjA33vAbX0m4t/gyIA7BxxNTsyyLg7jY33HBjVugZDDIY+wgaZ49b/XupAT371D3WQOxPlJQ9kb7eaSwOkrlPFrbZ4qrrbl3e/eTZpmpMFE5zA1vjauCMCH181X7d40PzXzK+qvsYoriOJ7fMN5Dv/VETgwteIInjubArccMNN3bDEVgUAKyGui9r2EHSRvhT1jys+6c4B/m9n73dLhBTcT1ssKiA6jHNRQZ7/jugQlpU4Wpey1Iqe9VS8gDQaZfhjw93vYfe7/dpQbqVrv2+cW44Lu0K6es2+vkf6Ov56wnsHci74YYbsxbBjww9ZT6B0Z+3ntZwgtVQMbAApt//LM6x/tR99sU5tiW0OcDf8I5gQhKuf1x+0L82lXZZYyL0vaotJNhNjA73HAYDNrquS+n4u+lSRdeJxQw7Fuj5QU9BETTB+QhQTvfw79D8bKbd0SkO5N1ww42WjrUBwPe8iEBoK3PwjVAsRuIIICPuflUQ4Q51vx6RLCdqi7ErXANLYVXhmpE2HlE6dizwu692zttWP/GxWFwo+n7z+FDX5zkKvx9ADvkogJ3fm7lWnqupKgd+VsTfQAqKqN/dcW644UZroncl6QOHDIpkw3DDChqpRH1ofFXXUk35jA92fyuFG6UkXCepwvXYtACPBQy7gGp8PloIGnnoqp7jCKw/Oj7cs46+bsFCB0DHboTfp+QWLKCzYmi0nnzU2jLs2iR9bYnecXeeG2640XyAV1QBReNv32wdHhtV0BRtVNo9MbFiwYE2+j3g3wxVs3L+S9EwhPXtkyop2zBVA3Cl67hGEq6Iuht5T2uYdmFQn0GFYAEaG9z3PwhoX06v9T7kDygxOobdyHZ6TbzuplMCL54iL1KNAnqNnUkPv6eur7k7zw033Gg+wKvImEDuYgbVYgNa9lJZQdPzh41n7ftoXjCCKJl+vob59CSmZeb3seCMDHW/K2pBqtiFIDlKgF6tkffo8qd2QeNP1bJn0nm/TcctAG7kG7DTwHUC4JlumTTAnkzTX9NBkxfQW5DvcHefG2640RKAv3noKY8hAPo1JwQL9YBNVDIM4JdqsJVIG6BKP7t+e0zbg9GIhOsEq1Dk3AB6w6PbBWVGchSWCyPDCw4ZGexZSdd5MZ3jj9DpA2B3KtqFNfuTQZTeXHO1Kc5vbJGetG644YYbTRtBgnXl/KcRAK3nNn3FRiNsBuA1fLpA0qisD47H7zKYxuXj0cO1wL44X5Jrvvm4hXuH38fIm5/2iPGV+z2P6I83EvXySUqM/gYUEZKh+PvtTLsIxz8qUXpzAX2GDHSj5eE3jS/f7xnu7nPDDTeaOTqF8hhb2X0EkqWcTJxqBKw2WEpjeoJAVaJqSdgKwOP/QIlstwnXJIBKPVzt4jAxbC2FZacAHn1kuPsVtIh8gBQ3P4OHDq4dtIuoXSaGmUcf7t5lovTB1gF6lHPmFkvR3Hj7yn33cbefG2640Tx6RjfZHu550wbYDDSooAHAs9JlB9EghwqY6/OLfn1i9YKX0u9t3HJqT2MFVDMTlAKMt9CxiqLzM4lL/z6BNnj0h7DrwAIC22FZoBChc5Q+NUuAXkP+Waa03HDDDTeaA/AKkKly9IPbpMlHA1HuOCcM6XdvB9ceBfB6AUETkc2sTBlP0AYQXDkWFOwaAOIASlzvxtUh2mUwSI5Ot9lhFhqzKNJi6u4+N9xwo6ljrVLQUOT+rYZplEGtoOn+X/DfUQDP/2dULetPNhWuf+RFpJCQ4pgCp87UUHG0Mjk63eZHwc5X19+cgsYNN9xoGcBPvHXBEyF1ZMuBYqMKGoA1SSs/F7Uj0EO8bmDCNc7FUePJQF4WoJYmR7OK3nnHs9rdeW644UbLKJoNwz3PhLIjhkWBASxTDDTYc4acb00VgNfAT7z52q0xqKDd5LAFTsPdV8AGwcyJa0vohhtuNA3claRxZGXX0tF4TT6mNljf9wJZEhxjzjddu4uRUDVkaXAw/f0mlmMW2jjinsqowGmS3+s2KJVkwXMdn9xww42mDR1tQ5ly9+qgNH+qUT03fX/P2Or5z61Fz1QsKOJ5kzLh2iyFy7iVUZrrYXllat5dcgZjq7qW16Oy3HDDDTcypWcsbdLzyW1WvtdI5GqSnUa2ONh9g2rMURe0hJa4bfX8p8BSmJO0s8GnS//YgiRpN7APPeije06N19EqqgqXFwxzLvq/j4bnwA033HCj6QAP/xYCsp9sPbVBXnzQVJcWzYIw3PO9taqgqZHXld8n1c7rALSJLIWT0y4F8ZmRxiIAYIA6a/rRdvAmel8XESj/H/9fw340oyGKh1VJ31Yqo73cneeGG260DODvttH035knnhptQI9uG2Qb8PpwXNpB/x6d6ztNTLga2kVJKYMGHLh2ti14mF73n/Q7PyCLg3dPDM5fBjAeXbXv08dZVRS79aB9HwUG96vQAAXvtVEnTDfccMON9ADPCdYNqslHowlWaeYxOtx9spxvTQxeWWiKO1d3v3iMfdcziuKNcZhUsOIaTdcldos0CxjZAlP0/gsUdsH/Hh48+tqMp81Q9893nB5QVnEXnslttiPWrWPD8xe6yN0NN9xo6QAY37zGGnbB30XAsFGJJNMqD1N3oiVyvjiqEL0YkBXwmi1JLYUtXVSAz4xR9AxbrblUuSJRCvknImn6nQsmYHxGoDs9swWg9c+hOUEXKQb32NcjbfzGkXwe7O6TxcwpZtxww43mRuzWWMy0qtMVrOTpcnYcgB2XJh9D3eMw+8I51iZIHMrf3EVJWjrvn+4p0yGlOu6SQrvgKIF2AeUCUOadwA5UzMJ9cmS4ZxCWwXcsf8LjouYDBVjSoIQpI6vuGU6UF5hkJRLRQT0nqjl3ihk33HCjOaAu/UfDP0MEjwYYKJ1X9EwjTT6KzJtfuZWLdpIAvNbhjw32HIfzV2kVOKXsfc3uQdwimXZ5CDkEJDOJMnr7hlU93uYqVgBBL1ZJMGsl0VDX20A9sVlZIU4HKoD6Bm6yTdz92WEqyg033HAjG1CftqAexfsikgWtgoTiqLXX3XZXPKUIeosWAa4EapekBbJAgUNgT9z4t9hp0RiGAdAN7cIl/uLpztcxQpTLT+BDj0Ir7CSiFhnp8hRFk+joGslVev17beK1ZzKBdQIvNj1f0IuJuxvdcMONzEA9ClTuOrP7ySNDXUeapCI1kybw3LqJAXOT9UYpxVKI0GF5ZhWppqAhgsYgK7tfDO4a0Tki+R3cG5Wlipu4EfbH6Hg9eHSidh4VPtca7vKko/Squwd+XSSZaTEZvSeZlbGVQ9qF6afoioVzOsWMG264kYp6MYlNRKYRkevEygU9FKG/ikDn0zARo6/3iWf65nIzaZEPxlGJTCFxaao8iVYJwDJFErGSJul+B8s1HzDXDT36YPfJ40PzXzJy2tMeX+Xv96oWpVcbshBinvA6LPmMNxec4OW//dMdy7v3d+DuhhtuJAb1aQH1iOgUNAXa1RHofJFA628EQLsQlW4/raJVnSQnk/qsTHFEfe8dK7oOThu968gbX288Yd9HE6i/nA6/WscjUDFoJGKAfTr+whKA++kLHklz9COp4B2PPycF6Rcrc+FoGTfccKNxQJ+2oA5QiwIzUBWUHFyBBCMab0gT7K0VjTDAKfdk1dmoyGqXmzes7lmgKZYsaKYaC9te9WiXOHQQBgH6Zxmgk/jhFHh+76fjaFnonBzSDTfcqB+l8xEFUCMoTBrqOpWA5ccETBvAV4t/CitAStpjJeumFTtNA+yun4m8MEulyBpZzEyU3vGvWWrIQ1TQu0x3qFXdsStVx9lADDTVyMqewajzu+GGG25UgPraKtSLrayc/xLw0wRGv6CE4GYAOUAdfPWdq8rl8WNWdTLVzKbR7Gt+QVRU3LZzPF2WZJpiJ9rRcAQe1664KKoe8sH/4FyaAzfccKOFQyLVKGoCaoyxVd1HUBHSe0cHu9YRsGw3TocUpYNP55Z1U4G9bSsaZ9jXMIVFpGgZ1FF32y+g0rlq1YIcrBFsYVdPfMUMd7GiBPPX5JyOd3fDDTcqwCY6Sbr/E0iylyf64wMUpV8LfheRIqgXgOpEuQjItqxrVTck9kqHHQAWFkNPkOxSaIl2552lHmBkVfez6T3conrCluLOwXbuyoQWh/rcbrjhxp4O7gTs4WgXZfoAS/iFE4BcD38XALri0zWot6zFXbA7sDsEY+mLHcSDZxnFyV20CD1nLlATIlnEPNNu6DesVy/GobFGOVFt7ZG7b55YseBAF7m74YYbHUGUq4AQwECgcTgB54fo61/GjLe6BXU28SqxbK/Y4r6lugFGCQuMKHJ497CBQPLy0ZVdx0rUnkSm2OrIHZJKmudvWmolaPQRy2OG1TYwLVsU0GtOMeOGGy5q19Gk0XgP9nyPwPs+RJMAjg3DoSg9mUVtKntd4aOlo9HWUxkMh7tvh4WAkWKusK35NN3UrvOuo2t6Dx8JDMQG4xuImWQs1RTQZ/eagGZzihk33HDgLt+Prug5jGiN7wJQVfl9mHppMajbsnwkbbfxYmOAjDoawYlxbGXXCeIWOWNH0sbgrj1pyKLhVCyg2kAsRlcmI4fE35Itw+lRn6sbbrixB4M7wJDA4UyYeu08Y4FQMAWmX0qjretBWgHqYlvANsH3G/6fpI+gX6SAKfx+VA6hnWmZeUIbja7qOhYt+LCAjTboMRPup7rF9FPt+kTUzsANN9zYg8HdtH4b7P4cwHQzg8x4a3qPzgB1Aasd7EUD2SX935X09Xw4KW6MsAUQ87J25tnDlFFgIDbccxiSwVtPbRzcqxiIfUf6qTqPGTfccOAebN+J1/4UANVw7MOG+mglqBeQGAXtsrPcCGOTaVVH2nqjBydZZkQEPKdAPXzt+Dq+fL9n0OJ1I1sLTybpEMV/e/UI+8o7cHfDjT18aAkkNZ44CTy76VsaP4KMW106xVG6AXUkSQHqzDtPoKE0WQWfMTLYc+jGs/Z9dPi62eNlr7msCgm07uQ4Se/5l+xXX4ijQGJ6ZpKbmfxzfOW+z9PndsMNN1z03gEOGx2GjCyvOZF7SUkai9ghbGNQt4qcrjtogfnG2Kqu5etX97xQt6Tj0Rm4Me4GUj/hxbHA0g7ly0avnlAOucUmmre6fqpuuOGGjiDLTaTJgIp57lKWGvbRcvcg07ZO+pCan1MBDr3WxbALXj/Y/aywjG+aQX3dbgLqUZRYyn6q4g5ZdP1U3XDDjUigASggMcfAW8hM+mi5YQPqUOMwgP0ZPP/EcNcr1w93PXXGNU3vnqAetajSwrY83E91LEE/VVLMuH6qe9CYFzqyeEg6I86b9WtUe50sH/JOeY01a9YER4rXCV9v3N/vzPhziHMtARigPR4kh1z5WMwE4BncTZHOcPc19PUc2BuMr9qvO3wd0rJudwV1vSOR90f5hZehcIybmsR1h5ySZDRRW58P0z5u7L5jlh6OACjb9fo7FZjXA/89Zkhxze1D3fuBf2eKpjiajS9M0SRrqSk0cetvD0eWACPw7IZX30PmXaJ3itwPIkpmjBfUQmwTNe4vC2996fHqkqoO3Fu1e2hLcA9f5yGHLHvsokWLnnDEEUf8exvOY0spGsjq4C8jEXyGhUxSFLWTjt9C6ojGH1HAV6370+5IzcBGYefpAWU1FXfh3GT70952+9CCAxy47zm0TMfixYuf4uW8D+V7/S/le/Ofpa9fzeW8lQq0Gn6AjjvuuH+Rc9K5zsW57DnzF+Vz+S+Yr3nvc/T/5+bz+aOOW3jc3glBPoic6TyH0PVfTMfncX669otzub6+pMAbBnY616H0GufQ+X+Qz3l/pPP/PZ/zr6d/f5eOVZ7n9TTwWuZnvu8/if7mPDPXufwXMe+5XG5+xBwE5/J6vRPod79i3h/+ZonnNbCwdJavP/da+ttLMP85niPzWZjPw7+Ijs/y+T9Gv/s0/TnWAvibj1u4N9EoP9kuMr3s7AdK4hWjeqxupONScPDhhtS1bIl3K4AnSwVeTOOashmVDf/tVWtV5bGDwD0gcs/l/DP7+5ZO9/cNTPte3/SRS4+aJiD4Mz3sT2aAaHill98lQDzCy/sPLB040pyzz+83X+V7HASWJYBm36K+/4gC1kYWErwege1Pj1y6bLrPs+fF97SIXJAkutbARu/hIJqHb9F13qev3xz5PjNfOAgw31uPrpHzEjgfTud7eKB/6TTmhr4fwWIYfv/yvX1/3q/N+/MHzPujz+t1DdBD88qfifdjfKYy7xXvgw76nOy15L0xf5H/TPzNQQcd9K+NgA4Bxhr2HM/aCbIkXvDjyhiM//96iurPpgKm50fRR7uZ3C9Qt4wOw+One+fdgQImXncmTsrePyL+9i6xuvsOARwC1/0JQG5jwC3me71d/P3EkiV9z6/3sFeLfinqfL2X8w144Lz4ClDEYf6v15vCVwAdAcsvhfJoEOQlaYjF6dV0/uB16CgAdLFwLFy4cO960Wg1cKfrfxud6x5zLnvuknkPDIp4TRzm+7x/hrr2mgBPi8Yb5HrN3/Z6P4oGZbtQ4vMhgP4rPhO+ju3+Yv8F9eaqYieV864zC1HOm5TXDh9L+4/EtVxBr/uIRuZMQGcDFRQRaNyXEHTi6OBN0w8oQBCJgksm4N9MnPQ3SA3yKmlKURHVI/m6G0SplQtqzxe2JllQbfJ6ihfjHwut5aL43T56986TaBrgCIC3oOU9QCB3dMwIPrhZKKp9t1o0pgQQNcDgtQTo6LXeUg8kw4vIwMDAo+k6r+TXmdQLFAH8n4U6aWSBqojce/Nvx3WZ8/I18msYgKXX3IrXE/DHIqPO0VmTTqJoXxYIXhw+EvW5yOJEc38o/e4WibTpem4kmmffeiAs75l+9wVYrPn6H9afAx/43O1OJO/9v0Z3PZU2BV1fvfeMBKXyyboticWwieohpRy32vjryejsbCq8emE4eg98ZuZwVC+0yvoVPS+kediyMcmCOmijeNBpWBRdFL+bR+8UoT+HAONOBpyijlTN9xyZNsqPK8DpJLD4sqUvbKQO3p2A8OX5JflX0XnPQXQsUbcFUv9LDYKLjt7fas9hrneKzzfJwLzJ7/Vf0iDAz6vkuz2J0h+SuQHNgdejcy4G/YT34Vn6ZgP9268DuMH7Ia77Ut/rDxY5OueKqDkOIv4lJuIvqAXnR/J+GgF4M+f8Pniu/oJdBL3PV9LPXktfj6N/vwY7LtmxNRxZMjiMrux+MThyw/G2xocmaBKCw1gWnMq+7tSDFFE9Rbqvvj1kKjbNssq5GLWGuPiPbksexRd5B/Brqfp1UXyVhxYPGKJbHHig9IH/4wew3SZPR+8Xqsi0xBFeAd9zRPe5ODy2gMqyZcseS0B0JdMCOB6kROUi/btIGMrOwX71fxgFuNUWEU5W/plBj8Dd7BLM9TMoTwpXXY9uUHz+s+nvRvm6H+Tr20gAeFL1nENfH+0UnlprjhSf/gia898quuVBAtZl8rOFlHDGHCLxTHP4b/wZvY/fj3wmn4jadVR7TdoxnM6vxfkC/6JG74941EHXCkSHOEabHclHR/WGwtm02rpIclemP1JU/17IC8OR6lzUz0sUf8dwzzPpvY2LPDVuoZO0RyS/njeZHU7OqWnMAyPg3SinG/5bpjpm9YYKAJKiWwLFrWrrv9WqK7xt+DfAgMDl8qOPPvpRjfLYQuUQ+D6TznO74qtHQBUIrcIA/yFZXBDREnB9swGQ0dH7mRVUR867gd7DN8rcOJKR3tlhiqQmNUPgaXICtFDwOXfQ6/yXXsBkQY+grTrr75iWHJjL5deX54W+p4Wq1pzKTgg7FPNZWXVTvYVQ7xg+IwspU2GD9T6/JFG8Afnh7g8FrfgGy5F8K3zgR1WzaDEiA32DSNdw9dTGbmRl9+tGlz+1a7fg4qkAbKt9b/EVNYO2bSJ9f+0dy5/wuD2YqrHAXAvcEHkhYsWDioQWlCf4HknDKg9MJ86ZUYFP3FHmyPP+VyX6tRGr/21s0cHXCh0AOaDI5uLw2KAsEJ0GUSOpQEJztgCALJEpviIX0CgYm7/Pe7dqgAdw0eu+qiLaVbRPtflW5zyA5mJMKBkG0zXh3Ul4PuMsfIj26dz3BwBPfHofzTkSqf1L+g/ENdBu4Bn0Pp6F90ifx4s9jvh54SoKHdRRo6JVrom+7k1//xO1k4JqaSXdp112sckdIF/peEzcCF5z3AIS48NdHwc/bKJLC/JTLfSE1wuKGJRN4VpgeTBu//+PtBCdOz40/yUBcM6hKD6oIj61e396n7cmLHoyxWQwa6NzDO1xAI8HJOqBXrx4aReoBnpI3kyAtMbqiL3v09f/pa/X0vF7KBbouIYA8xfgW63O2TsZybK+vr7HRVAaLbu5lIQRAHy/bN3NQf+HxUqAlwFoq1ArDQB8AMxImIbA+7cUCb8RAAzOGWoNra4BR0yvk2uAx2bdu/9+OT+D3z8OO+ywRxpunN9Pv28WrXUoSqpx/VoqenxFToAWEAAfU07/lsWuCcqcQLnS64NSuh8KJrpH/omvFUevdyt2Pkw7lTjxfSdopEb59yVLBvbDIsIAX7A0nD/O58br3GL+TZ857s+kUbwGecMRUwUqyumVOdiuFjbTnhGxskbfeLBsF7/4YXJRJKtdcVLUn9UsBV/xuXiyRebK1CRGbwWO4v+0/uR99uVz795UDT7Y8A1u6AbiYFFggiIXJAcFQEQHXe9gCmQTAd3/QUUBfXXarXGS96a498sYGAv24c//r9zcoGV0xEf/fnMcHtvyvv4HhVZgbr/IKpdJpUjB91OWEsl/pR7tUI6CwZPnxzXACxVD0e9/Yp6D18h7dyAargbwlfSM/xGREvKcXFov+k+Q8/ioklgWZPdh9Oms4bc69fL3kjhm/v3apYctfWKjAI8CMPrbzXyeXdit6ToEfA/9O1F1m+h3F6a9FzXIj6/qWkqgc81m0wPV8PLCzU/NEtBLpPsgrun+M2Gz2/V7uqbDBTjXVL73tm+yjUpimLAxUMfNe5jkNOSttACeJXOwu9o/dOobGw8P3fBLIRsjLfc/hWrAoR46Aa4Cg9Uu+n2S1BlZ3S4l25sSwLGFRAZ47kSyy1vsvTQEYE2bXHl/UE+I9A86dbrGe6EMUeD8YQY6jmT99zdy08v57dx5a5nLLogML1DmMNUAQDO/Y7XXC+oAaadKzn6KP4Mp2R0cdJDNE5goPpf/nfqM7sXnWA24KgCeAJ2veZKLlz6c0cM+T137D2Ru5Z4SsI06+PMx9xjXC3yjkQRreTH0X4f3I0ln3Hv6NfFvLgr7vexS0kaveqtPfidPpvL6t8OvBpHm9iD52WOAvoU9Wkt4Tbw2l/rfPTbcddrE6QseietcrhZ/plbnt3cgWqGLX7HRgvR03MVztNzw46a72KFzt+vmZG/oNYqbzh+FCBfVixKlqyKayQC4LXCVInTFM3XGVgcufxuAPRQa9NB/4DCOyjrYrbBZiVVWcfxKtuxMw9yBcnv62ZsQrYNyYkDg6N6/VK6pEVCxFgXe71kiGWjI9cGvu4le95OgveoBi4reDyYw2iTXxwB/OX1mJ+L6DQ+f827C4mHlnuWkZJS+PpRgXasBHmX7WQC8vMbSpUufiB0gqlF5Z1Ow1Ij3W0Pt6cPQfP7vzP3BRWE2X5I/twGAD6gs7Gx0UZbJr+D1LI0ox9/ovB/MMnI1kaAC+tFV+z6dm3FfDwUHqBtwwEydFJtM30BOWQBXzdHqZbS7ODh4/o9buLd69oniy/9cdq0dbWwkJ3TKLcM9T8JOCXOapB8rFoZNNl9yTnDu3cXbR0d12KLSQ/41JAelZJ+ldxrQp1MfAvb80LJE8GqUsDcSnaV5nwBB0bmr6Fren96VaKrid1JKX4uHV/JFKqzx7yrrrr3N2AlhZwBZJu0I/sdUiebzL2yQAlHFU/6XgqIsO494L7sCKgj/x/8fJI8rC4nm1QD4Lw/0WQUNv+/vabuAMIA2uhCruX8RNPPleSEFzWL/uVApYX6RmMcicPjhA/sgikQxk7FxEEsHq5k/vj4Qq2CFaEWtwIFkErscEQTgK0QBopRqFgjJANeLBhMEKj8H6AKUuAJ2SgF9KUP5pFHTmJZ25MKI5iTljk/H/YtcHxLMNNfvonnaaWs28q9qFXWaeG7NPcguk8NdJyBhiiNuo3MTxdvOTrePrOo2+Z3p5QfN+Si+gpIxiT/idQXYVbSeDahXi+w5oudod5N+gLMCeXmfSDYiESw8swFFrjDVJeuq2nRXn01UjvfVtywIAI8Kc46S98c7gF/UApB67zOoyOz185AtCt0gIB4uuVdzW2Cp52VSfh9+YEN5ibOFq+bX2CgUGtQoYhsccb2djVw/gcYxlsKzlbvYSdX6O8wZkvW6lgARZqM7KST0oV6yyWbP7hry+d7ZoBPC235Y1Y4Ozl82NtjzNQKZ7TAUC7pCiVNi8qi+xCBnzLWQWIVJ2diK+c+V179ctfUz9xXVbAR+PLQI0/3+4gaFBW0Rxf/jpCf/u/RmjRvFi8ySi9Q+FJXMnXPgLg8IQM+4EDKNwJFgs4E9fBiONUg89nqrswT5wBsGrodlEDT0huVjZ/LAkthjoAOwHFMnotE88yqTZ5AImpwKqwFRjMQtKmPXav5aaK5I7tpeP0fi/l/6j+jvrvLAdq7hiJeVRZMyP/bzyP9cbAHCAwndXq6UrQX0wcKXz58h88+J4c/LewT/Ldp6WQyRiEeuBnPJks1/iilbrXlTFgcHiMcQV7CuV66XNfMcTQKjeVF9USFXHCVpJSJs8PQAGm5DN5UA6KdEAmh6lZI1LnYMwWsed1zgOAla1DioUp5G55w8JQ2WuWxrkGcqjIzXjg0MxQbjR/Est9yAqmTLxc/NKL5T656halEc+yQD/PQsHKWgxB7bcQXyaTj5crk6dOcEdMyLc5HN1dB5IwdgaBPc7JRQpTk5H8CgZY70s9NqcZIhquOCClogn3+HALoC9c4410/neEVgGxD42uQvRZUnrp2v/3zzb6t2ui8ooLKVqIdUW6Dk/0zE3Ov9knn4h1QB1XVsUfASHByJX4BID/LXOlytLjj6QrmwCxG8f2bU7ylJ5dGm0pWLzhCNC/jXog5kzgjMPdnx8P19m8mxUI4pn+87FgVcoCLs91YO2gq+GfzuuggTsAnyKCeAeReBzY0AKST/uGCq1ID/ufyOjURtc4uLwf3L+TVgWfuG/PVBPsgGDQ9xQBBIa9uZopEhihpQTxSN/8BKU3smk+x6sJOiKD5wYV07x7TxAbjDjQ8JLrX9LcwSsIePSU4QIpI/IWWiR8vz3hnym7mfnv/Dq2/zvYt5bh5iRcmnay048iCg1J4enJ/2+cG8PhQy4opNLSG6hR2w2AcYyoGoJqmIDQ9E3CbRGlgYkEcN+a3UuIagOpbmZADXHBhzcZ6EvXRgMLYFC6TcN/h9tYPprBa9i/xUFSwVZFcU+nyDa6E5P0U+M/OelRFYrblUxWYnKZfNghixKYXXg7KDRI1CqwGtmof73avnP4V09CcR6PzfGPumME8/zVWqxRlRO0euHIX+dWJV17HBZ6De0xH9/d0UCFzolR1TdS6qyFLUb2pF2FwANqFq0M4PMlA2IovZzq9nkmmye+AQGpVDmRPg3merNW9S2/1im4B7GeTtzbdFONMkD1652KX/QBS2MBf7kJUmRhp7aSnifwsfLZYFAqi15IZcoXqTsii4WzT/cfnM8jn941Vi2OwofAakqN83UkmSXrIE0+QRsMDVoiJCXPwqVYEbUEKa47dz4+2U3ES1XZbMFQqOvErL3230s+eF/3ZNR8V1fFLM2pg6OKtasjjqvWFnxu+hJDvTcK6CF8sH0txnWQxEiuFoceTNT3vE2HDPyymiXIvOTgBvABDTN0UGsAJUIGwy9jAdn95M2vAguq0UUbyG3uvN9jPoCz/7Kilf9vrp6JgbPPS0auAxTl2fkjRgGWWfmh32b78YPndbD5V4+g80sggq+0I2tm1ylETBwk03FsQFSA0aoBOWDiwzgMv0w/1StSg2DAAWMU5jcHgzftc2/1gGOmQcJfTVrkP52xwmydUjB/B33k0ig4xz/WXJJSqHvT/jGgBK5looISZl9bYblG1+vVB1hgJ9gwYX8jdo2tEReNhEg1glyFNVK3HeuihICpEkdwF5IS16+9QC+IAuWeItwWKDOeWF51ZRJukoUSluHlNu8sFKK1Z2NOI5j9eFeRvmIFzYpA9pOCLc/GxHrEELvtD740YXnyVwn4CkD2CPiB2Ab6POnj+MDi84Sn7/IkXH0OL6dNs9y5tWttiVqjjGAbZvfketXVnKMa9Zi4YksmlR9Amwd3AXrLgJ1wJH//eNrFqQmxMAX6EiocYSQeTenuBeVjwESUrvG7p7UZzoFzI4VJWitZyRKub87xFQnCKAFAFMnfah6Ht+Di3e0G6PtqxYJATga9AciJJeaKWm+a/QdX8HsjwoUOLmEpQ88eCcbTV3KWSM9PXbtIj0V4nGte3Aq83r25Z434W/uxTyNOLAaOdgCaLu0+gcP8Qig8UK7pV03p8hd4Frq5egVHTJQdyi71LTIYpsmNWCNy/8+/A2wmuY92Dn8wvCkzfS5MP45JMff868d/O6X7GHz4dpz3cJf0bvVfdVW+ifwdNzUrbivd452P0sAp/3kXPl37iwZxsd55ebfazR+ntSyvmQBd+ua1mq5NmKwc+ZGs16sav1uWXhVx/qsnVJii5bhZ1WjfNNOee6dqVqKqMj7/OyZW1DWma62k3Hkrp3Jky6zpst1USGEc9svGbF3EByiOpGOh6fJhfiRgKenqN6/f/jq/brht/7CHPF4STqYt9/Lqp+lYf+VJ1nXnJfO8TMLWOJZJCLGTh8YB/9/iIWtr2SetbLHGygHQ988beckszCQCyfg9Z+bWphEDyoFKUs1xLBOQDuYT5+Wy/7hmdU6epAp7Gczbx6OR03WhjVV+m1um6N3YEcgIR8b34ItRsqai/UlT1zrgaVvuLJk5VEsqINJOVRQlXDJpE5Nrj/E6Lel3m/BNqN9phdU2FE1v25e07t0S0PY0XxRo0z3P2j6TV2HtrOMz7gk2FARXriwHApC/rEdtjZpVQJhaZJLCkJxlzpTaANEiTDOiOOJH/X0eS/a/TaO5v4nqPOExQ48eKalJtN+x6ymrvOjD+jlkf1a636Zq9pk5xlWSnlEUA5Sa4kZo4tyHnFafMYK8jM549lNdYVes4B7kQ3fckkk4d7TiAF0X9ueceT/z3qfSOyrxfdCxc/MtTzIgLqO63bZGzZ5NQGm8wm76CuVwYLbLvcKypZBe+Vy8RjJIOCpMmyAyC7RfoDugnzZGb0j705C2U5V/4zKCvPMIp3w405v9NSFOxpaBxud+pe3EBOqp4vDxL46XdonRX9EchDyQRqZN+8sOw9ZdRC44Nd66bfvb8Yht1Nx/+S5PGDpIj5r9uW7/eMqERntehef0/n+xhomiRGZIjit1tjtl+j8lhes614W5rY5bZQJzALS6pqKdiCk6XsUePvNNs569dN2zpvp1VXLBWwL6Sshi23zaOCGq9sfuTA3Q03IugPCAGYZplM8HwX2WDuEkV4pLKIVr0XDgJOKIns5sWLbXezIIoniwD2dZ8GICPJaZOkJvK+Bd2oyKztdGqmsuQ2qhOoFt2bXQ3z+MzFo7XfyJYkTUFoQYCPD4rNJoa6jpfXmXUjMq09hu5VvFcSR9FQs/iimc//HAoIFLgYUy3yGkfRlCmQIcUICnJUIUySZG6pwjPdWukeHHVDu+HGnj50QRLUUmwWV0jwzElfgfOjdgdxh6ogPyBouMLOqrg+aQMpzzNM0LgDVgnNUcQ3H8lOAP0OaVJiVUO/JX79M7BgIHuC52MHMDMn0bHXzeySSbuD8zZx/UAcIzJugSgNun/bFq39KvTfJI1TutdSQkrGUDGQx6Easp7rHncVOgbukGrFbgzk2bkyoGSo4EJKpjsabA3nhht70hAgZWO1a0DFJsizFctdtqxFSEb2IPNV43nuG+Gz1j5/Bn5H9PoTq+YvA6hzM+ypCvuFYdP20BR0YRHYHkT33SUC+rHRoa6f0fdrUAewYXXPgvD1cGu/9dy/tZDETthUEg92LZeFb9aieFnRIUXydEFTMv6bmy54P8BuILz9wgeJ4pqoZtqsP79I+YAUG1hMhJKZ0JWa7dCo2w032jmCN31sqW1jQoqmwLTqw0iE6vMmBXfYPaPQLOhqJhbWUmzFBnzKKOz5MFu7p3ZCFMA/KdH9nfDr4SYqXOF7P2wa6O+/Tr+zChLSrauf+FhDARE4T7Cd8Fg8O2GzyOC6aDG54a4zu00OcLY8aso9O5eQiZL4cMQvaCqVe336Pz3kkGWPlQ+9Tg/VTjHUUrzgJ1QCtliT3/dt6zz4hodvGDfccKM6B8+tCe9RxmGJpMioxMb5kkgkVeS+F4rzwlYXYhnBVNCvOtSOnLjyJxEoX2e6TdlG5Q0BL4N9QZp2ILLHAYtk+tlm+tm1pMz5H9Kzn07fb1Te+7GjeNs1quf0gPdvdRRfpagpSaOOAvPfY6KJ5SrIzhjXsrdcE6pBZSWvkFJWqmRKaEyxjBeTDqezdsONhilZek5fliKgE4C/zV/kPzNJYFUR1PXmP67aLYbZgyK/1i0vXrwsSJYiKUoR+Le4SXkhSdcqjvw5urfJWlgmb7HR964GF46qiwknam/adGrQoHverAA8pIRojcaJ0UJSakaZDiXSCgvIW3dD/3chuijoyUmvM4bemaGbpZ2UMvz+18yTpheNHo5aKnd/inV0uLlrcG4loDtZ7ZRLSSSScCgVf6A4FE3ljt1/j6Jlo7CnyNe5JZfrP1i/D1LInBfYC6TpalW2V54c5+gekbvthZv4vFPSoBv0j0TwLdXFq9X8INNIusI7PCYfR38nNrdpaJLytq2vT6SU4mvOFNAvxFUwDffXhGGSuqqaM1WhkCoS6twDQCdcFNXh5i6SSk1ViKUTofDtSSGoKLIP/A9reDQ1whqsVD0EJmsldLnng7GwlkQrAedbTc/Y4USa9bo9aVP1vbV/O2W5+K510vawlVF8mX+nREma7RqvwA9k4UkRugk/VO7BSlJI+rfyNG8HSkaDSa1F61HoHQqVAKkX9odDJxz74HqJCAgJplp5ikZeYy5SBfbzq/2+oLKCMgq7un54k1PVJA7MJRLz1Tzu5/DcdUqgEFr05sUA98jFrSJyNr1nk0kkQZty57GLonYHDT3bBNbw168D7sHOnZvovAt/K/4x64e6B+DiaLnuRDRNs4+iSDVHhheYBjqtlExqq9dTZbuWwD4giOAlo5420Sl/T+AH69u/0rm3ivWrigJmLTpTkXrU9nO+sQBeQs0jyEODm5L/Gt2h0AIOFhDG890c/jjanUEial0Q/Y+g6QTa2kWZdO0GQN9Zbe7wvow3Pvmsm8iuN/9huILaJLpxprwN84UiNlswl18PvTQ6jMEkC3psAo23YBs/F+eu1j2V1VAa+L1Nv4Ik1erKJhjdwGJQssHuzOzOKcErgVtNm5NKCvjLGiTvoobXBJ7rQdOMxjcIawnAQ4VjpZxdK3DNaxv0yMmMnkm9XauUR34sDQcfFQ0YX3BugDHblEzUQ4hksvXuyZ8CW1sL2NT9idvGVfRA9cL+4uWeqPK7vIvaSef6A3IadIMvCwNWG+YcGgKXMMAi+qaH/VBrKOV9Hza1oOMi567Cm72yn2x47tBajs75KbSZO0yVuKu562x3YDf2xyRlxL1Fc7QI7QTp/Rxp2hIuyR+Dr+pYRvffUhz0vAwAQOnXnxp+npQdyXyTc0smiS5I8xO0ZQzTLrUWdn7tg+lvR/sbl2eWVO/XqzpU8AjLY6JCrmGTr11tCPBTosWvaM7daoBHf05OXk4lLHASZcsI+aI/J4soPmLb1zlbEVjUQ0gmZgfaTkZUqZvztpcbcgfdb4KuN8FR7ohTeZR/Xir79ljg4v9Hj9MzQetU23LPpcgUSisD6rn8OvSCDZqBe0GhW/250z8L5s6vnDvQCbRQwjpavPnlXmqDuZtxDWhcTXPzBnoOP0fHlWgag2DB6M0tGBakpaJ5VuVrUBRkf8cUINEuKLxbV+03n4tz8zNbTELJcmvJIxt41jvLlfL9B6JLl1pYGsUaUdLcdrhauBDJQ8POSppiOwK8WCmMDfYEdFZL5JKhlmvnYUVleqaU0HumxKvsd7W+NQsqaRYTZlEP4aHEPX4aklABkpBuPwAfNZ/1dkaloE2cBjR7jmDhMBEuNZvQRWRtXNQ1T8+dKY1fgjDUuxhNvWXu1GKYZO5KdefOD+ZuhADxHOn2NZtzF6YYvcXeS7Fbw+erdy+yY9FtA+sdwd/0eq9U4N6pAZ7e9yIsGiklkhuxu6gH8JW7hvzVCaXYRTsP3k7cQjyL5r1QhPx+9nBPlxRtIsAjgocV8awBPDrZqIa6pQyabZwXlTXPIIpv9UOoTdgOYXDaoQB3uiKqSm7xUB28WPsvCyhH9Tdjeyyy0o42qwEIL4rGGTDnf1sakvOCWIqYu+mmzx1ZSNP1nBiKaufNxtxY35X8p1EwFLqnqu9Uah3syYR7tJcLkNR90VmmavxXq0VhKuFu/W9CA1UL5IIm8IeYbls/kR1pgtecZBsTCDmOsFy2LawibvttqE611gCGppnkaH7WwX7cNjwXiuZcoWdaJZXUSda3ytY4pUd7IXCGtA/RrFIraZO8wba510fCb6v0XFUPYCljYJquE6kWRMHAqoLvLuEm1m1C2XSGAOx5UFpQ5PWAmbt84BrayrmbDs+djVz9r2qeuhULpJ4btLmjwp5/qgWvqHoklFJSpbfD1C/0mjrndlpqDXzO+40omKLmTkXue0nhos7ZxeX8VZ1Np1bSsIf7TbAfANDDPwZFS+JJMz67kX0R1wKQpwj+DSpB3BKAD1Z0JGZkS5tB31XZwm0hNUm+HVQvcRa9CjvVJfkTEfHZh7A/DE6z2mAcnxWrIEYJLF4/2yCvI2FIG+E1joK0kB10+8xdn2nkfWMv36PNBnn5XCCJRQI4KNor8+dZzMskn/M6SEhDyhndJeljCamSUtD3OO+tjQoWZ+5SvE+GdiYJzAvx9/kvBoEXBYw6Cl6/oueFBOLvJCC9DFa/ANTtVJGKQ6wGxKKgxWBf5Ebe4xNDCw4QFU2rH0psoZ9FW+i7EvpS1LrRbqEb7blzISFY8QBQZCdd5VWis93aFhpgMGoEI1H1zynL0Fo71/r1jCU0FcCUC9PMvLXj3HGxjncP7WCPb+YCKeeElh9GfLKLYBfHLBe8SbPo570fhfNgFbsHUntxcBDrc/EqFXOfiqJRKwIkyhfVqVKtC+5cUHUpGhGF38eM/qywL1i57/Oo8OmkUXR8IiMxWA6IfTCDLfdcNTYFU03m36eMdfBg98Ut5d/DH4btKO9dkdhJssqWmM93zeLFS7syVNY0mReFRtf/SxMfwkwjUlyfSAehvoh6EFo1d0YBQslMZRo12e5zF2ix8/5QMyL5wK11YGAfesZ+qeam0ITdSZGj68+F34t8hREg1EsJn/WyTTCpoMJJ3EplHvq8enr3Fld6XeLg6vtcCBh5T3OT8b2iKkTXD3c9FR2eCGA/QmB7NR3b4Q8DgzJ85a5NBQX2WUb3k7yg3IOWgrwAzZu9qDXnfUBFq6kfSlE18Dl/JB9Su4F8KLJB6fT20NZ5TjQaLzc88b/ERm9NB3nN71K0dm6woyjTMW0/d7JAWvohnynIyznQE0Ei94RNbeI5upK/S1hMIdeCSmrUaiSUSEqOreSzF1SI45ck7uvEXiQRuJdx42eoAG/0XtYt+cI/g/vkyOD8XlA5dPyEgPcuVJnuPMNy98YWeNAkZwtpwR50ELj3TUY903PGrETv5a2VvQFQSJFCOlV/m0WJlqjtYhuB+3llvs8A5tQcAfeKiJC3zxc2m5NXn+VjUGGoJH3tvOOpAvKegPykpmvWpGtBp5OaaXjoOI3tWcXmvymcZws08IZCI5vfhDbB/Hf30U43pwK2QMVlO7V5WxupUq3yHorc6/X/IK1Meg8jWgbYr+NWfHpMnL7gkUjOkiXwCujoCZRvgzHYDm4MwknaKbYVLjJvX6rZycn+fAqJXfD+W61P/af09cwqyOFBxaSmatdXJ1GSawHwJHjfe6E5twBUxu99ViJ5ax2Rf3ezkocyd4iuNKc8l+cuoGsInLIQBwT5rSWGthK9fzN3hGLKNSkFSCGJZNkmILmgQlQ6o2ILrpr3ANxfivoQVaVaSkQxkUtl36K+/bPCCYCr9F+N+tn46v2eQR7wr0FbPwLrvwDYYRsMZQ4naaWQqsgt/Kbk4H+bQxYJVvCcKzuJ2W68rQ2A3pbCk6au1Ik18ufPNsiHJFwXqVaBk/nmyhwbKXpKDfLsDbSLHsJXhLfPGSYMn4TmLk3klFs+dwB5jh7/Cnls0ntUgJWqnfdTdEiz6T4B37ulJ7G69k71jL8lhSS6gA5Q8AYSm2BFBz4b2vgEVaqVObte70+oD1DXnymtIQ22AfhR5x4Zesp8Au0Bauv3AQLqK+nYAaoFwI2EKb4H6MNfBsdGjtbx8wnTw7XnN/Q3R2vaqG2oCnxoNMG/b0IUH4A8DrpBzm6l/rha3gGRuwL3QqbbZV1eH12UMsOiILNDmpibgqjkQFVL6oe8ShPAPbIiNXLu5GfZF0gVWYnytTB/HUN+LCqSDwfUTHa0Zz3l2k2i75d8V6io8b0JfafKETYZwFUEhuTuCTGF5K5iLhxakHGT7AxaIa1GgnadTdDuFcWP30bt+8ZXdR1MgD9EoH2J6fZEkkf693309SE6HkDXJzqup+j/4tGVXcfexi3/2gbcZ2jiUYDBQNwEvrAQFFj05k9vNciH/Hfen0LCVfUBEG2xp3xRog5f+a4I95ghCPDDCClc/jNZzLNWY1QUrmRwj4Tef0mX3EfPXd90qFAny7krqkDkzdW03g3scJ4L18uMovdSA8fD9vP214UFDaGg5gsD1ia4mADgS5zI/6qcD1bOuko15uegwf02MRWcjboZo8ZBkraKIgdjbHD/J4DO2UD8/Qbq30p9Ww8aWd797LuW276repewto3AveLGxE0B61qlky01A+RNO75eb7CFIK/975ebhFQ2vGhJohZRsrCvD352L83lHRQNXgtTMgKMH7M52XWmvSH7YWPbG/KzKWW4mJIpVK5PLXCdaRZGqK0qbBrS7TSmggVx5tzdZ22BvRvgImiTbt5V+Df//31i8FYxd9kA/STzyLcIF9zg/am4bu99dXoLxwoaIrx5wsckSyS/GRYzyLXzs/2jREVOyiYYttZ83r3ps/l6QnVQKZjnvGn1eYS612a78t0A9LpcdbCvuUi0a1GnujGeB+9ymzzzdjWDL5SEpqeipGaCvJwblYuQQibJ8ld5+EqqqAc36630ni6hRNcK+IGgSQUiKujTOSH1CFjBAjjMtfTm3w5vbnSvkug0iGizKHyhaI3Of1lUNBdjYZTOXycGjWHSgXtJ/l7NXdF4/1OEiVwQW+Q+FXa/mD9rLZx7zFL6N/6fEqGLESCgCAY+8RWfQfq5UxWb/vujFrpa9xiiWiziqepK2LOl1i4wfBy5dFlFAVKYYkJrTthQK4lkKUkeDTw+L2IXJpzzkqp4v1saBXUoz/h2GkaRA+CmY62N8ufJsZb/v62BPToC8V+rZFGTzQF58wE/6Kv+qs0AeVm4+o/o75YiplS7E448A1Dp9R5A9SDN2RvBRyZZfLAYGJtYlphlQpGJWgILKcnXkiRcZe76lvS9mMD3rgwoh2LF3JGlBT3fX6WH/BgAUMLP9wB0+4G3S2ZzV7aonSC65ZmN3JuyiFpzNW6BmeTZweeW82V+Hoalgtn59eIe834cPuT/wY0rF8mOsEQSncTM+0kmkSxom2AsrinyV5OiWELzb7nWlLJUN2InIUlqlzFPXW0Vv5dumv9qNFJKzLubNmUD08ppMJXenN0Qv68ikIrFMkmjaLhW4mEFfZSoUKRKYgy7iriLqPwee8v8KqF/yYy54/Pca4zI2HJ2xtx1xJ87tpi4KFRBWUrDe3NdwX83cm8GPY5pV5Y4j8WLsv1bAvV8/ig0fFFeP/WOqtdlbIkpGDGSzbj3P/0+q7M2gQaCY2XC+zN45vP5vmP1s+LQt8VUjb1Z/U83sUijpFdz0e92qAKsrBYslNGbLW863r3sbIcWfEvyrwk/SIpDbKSrVdBDU4MuvofSCNFbBkAlXenvlmYsMfhkyVm8x7pXpoqMC0FyNO9d4QW+3uX3nGbuIsrk70+5QJZUFH+DyAJrzF2nylNczLUBsVQ+lcVK3oUZNs0RAcUrJd+RMMAR7/2kuyQBd+wC3tiMgM6NBofibPfGit3EMuswH9ebVbIloGbQrLmyk0zy5HDOWM1eJFV26nWy0Jp36oeaOe/70gBVqMJxuFFViMwdlA3SoCPhNZQCjTa0+dSnFqX7odfpzGLuQr44JyYul59JcekGGpHXKsAPXThyKknb4bG51k9FX47nL9R4u94RvjZd57I6qzqXJJ7uQg3Rs3hyqxV0btQAeVQsBlv0+FKoxjPq9uZej6bTGcilOssg4p2fchdS6ON8gZZ3RvUZzXoHRd+/KRTJJzehIjqpI9S+rR6thT6zEo0meKhLqgBns7YB4HurqXMHQ6yUkt8g2Urz8PlaEaeq5uxBIZDy5IlbiVrspT6rocUvE4qS5uNDSXYWVT7XZPJo6l3swL0NQd40vig36m2Gr3dkwUPSAh257iVIDua9O1OoZiQZfB9qBMLnbwVNBg5Y5UKKKWiaUSl8qrUwqej9mJRRcCFIVPb6/VHvrfkUo/cdKexJuEAFNI14rEfN3cKFtsMQzdkLJRnNvjyxqmjpXr1REvVZ3GOhxfrrTXx+6xY4UqrqHQ7c25iTJyXF8+mBuTW1CqUxkL+uXkuwGkNX7n02xQNeUGX/J7YKoMKvw345P2XQiB99lamGAi1SyxqhGoxmumxFkAQQJsuRe1+fvGarHmwBR/anvyuhe6JNLtq8zX0+t8GLokLk9TC/SGQmUNBM2gIk/4dZuoEKwBtL8Jz3a6bKploE8MXAhC7nrWn18+NGDLpDucUdTh/cBsXJZnqjcFMBcZS7HAqCuDdF8LCRQiNF9G57zBrFQf7ts3VzBkAFGWVSF0DVqEG/lyiKpLyo+P+VghoKFkbIbVsN7jOSxNRyMbFlAP++iUJJn19tcSxrzf0VqlagGJtGy6jyOAzwaDZiCreSLnTJaZwi8i4O3OcAyMvNArULwKaJJkrFwPCfCl9i3hyR3Htsf4wy93pJq2iZeu8HcxG8n7gl4YHHdv6ialyydh9Ek+w0FY/sHvq+2dySqwKf5yFRnGJxLNnOWfkPV1kcVUNr77wE9xxLMo2c9V1Rn31agGczsHsy7NrWGC3Y690J0zVNY7nRviPYmhJl8Roptc8Y5EsRlXOrayW4oiJebmzwV04qxa3GnQybdc1moxIl9TxCFdAU4wI8g+7lQgGE5zLY+Swxu7TNCXc+Bdl9SVPmWZy78uJI5mEJqTrz+9z0+ZtVAD6q1qLxhZELm7T/TVJbiYj3L1XIKL56KON+D3VVNvb1yhF8RxtWqroRHeUhWjk5KIBoTiQvPC71zew7tJFIMKCS6EFJsFWuMJuih+KkDB+2tAsre297v0rAowYATyD1J5TSRwC81nF/IOHOR9QS22Al0AZbcr3rfG3C+6E8d8RhS0tEPXflvMXRj1J5i0KCaPcByZFktOPRtQxlm4kWAHwouV+koqZXqPfV6ZB0joA8ZINKitYUkLfJp/zPRT9dDTTUdVELOe8bCbXILNfM/1wi0DbgDTUFcHZCPrlopZ759VS00xUGKYmyjWV0Lv+7BDsfTWt9cjapmSoUxdNg8JZm9wMVGXyEqs/d0i6lNJtMEMhskMrejO45LTZ4dwuti6NksrekEE240epRqdW2znlNsRhWLnb0OitrbfXK0sglz6G/uV11lomnRabXzM3sOdkW+Q+UriN5mWRnwuC2kebnwDBIBTpuqECSVYEGIAVp6mzTWgriBeD3QnSdUIlUZHrr79IjVM+dkkguhPGZ5etjmPSJfz/Jg+k6F2Q4d1oDf6EUK7ayHaXMNVOe32iXhd+N+CDfzL6T0sz5b4iSqt0gKql2fMLtuBRbXS0Pcrs0CVeR6AGQ/SWIRAXgtxAAPz8EUoqr9t+foCGEKqbyL2qzh1jrwM9P6EUkWvh/RGnhlWoLfY13JMhdSM7nCtkhZKmBZ+uLyxLLbCs96dN67K8K5/PcmAMgj68wtMqyEUSU8RNF1qdGPbyhrjUfD6puYyS61E7h7DA10i4ADwDwxPI15vtjH5itfRxhq0XDfIagpLxymf1kAu79IfLnOabNtuHai+VtYj2QCOAp6Q674mocPCp1RRwQ8/4vsCHc18Me7lncM4ccsuyx6NSWkQY+sdEcv/4mmJ45qmYOgjx8u1UT5qmMOxRJFH+daOP1QyARj2knR7apKXhQJHQXtVP0Ho62aY6/lSAak0TeDIBXRUHPNX0A/Nj8+yQD1B/Eo6eN5k4rScr0VuP3Zj0OPjg/rBHKHcvinZ+95z9Si4JMsetbgCpmttsoJqNaWOljDeeS7gDEMuMK6TrlQH6OgTwKKtB9J2F/xkaqMYtR1ZgKpJ5p+PcEAM/J1asXLXrZE9rv5qvwFLmEQTg+wBNFAyAPb+EtAPa9AgDIlZvF+ADlfS5LgMoO4IP8xSF0rTt5oUsC8L+BUqYavUWfy8fi7hzl+eAitNOz3DkqgD84cZEcN7RB7ga+RCmllkVVI3F+1O7bjTkA8kRFPsMYLmVraVDyen1RaXw0imc0AE+eJ8qBsRhH6xwurGonjlBH2/CLT7DdZoD376Ik69PVObWU7gyVRynF4ldNdGeT4O2WQFMJ6oVBsU8MgBcdvG2wYe/x8H1netVSdymlgY9tMkaBy+sznL+ggQZ7Ck0mFEFI/uH2JUv6D6Qcy5e4nWdSPxtxlXwQ1+Wi+Lk1AstW4tlgE3BHgki6vvFTr3elSBgVSM1jnvUtgSVqb8O7h7L2naOodosqNAdPQHJ9EoCXROHA4QP7SJRdIXnNexckqF4VP/+d4vHeTtSWnjve3W2Ou/hHNZvuCDqfBTmox4N6SLJzZDO7bWjhmCHgaepoZYr+sHLf3IRzcleoDSmr2Cc5UPurSCfb7Z5xo8aNVRFNcwu6TEC+XFR1N9QkQl2EEqznJrBElSThw+L73W5RhbxHRN94wGKDVEAz+FcL/wkAkPeJ6lYC+O/HrR1Az14G+LE+bijSbiXpKoJ/VlyA5yCBZX75j4cBXt4reuwCBJmiSSKRHFmS7fxpy47zEmrgy1W8Of8XylBtsNwbIT5VI/k53jF/JcwAuNHmQ1d+IqLOrNq1zMM/pDoCdepts7JETaLh3o4y/TYEqUAH32spqAdjm1mVH6hv6/Mqa4fHAfzN9rvX2xU/d+HdsGTJwH5tHsG/gBakrbEWx0pvnXeGo+MA9GjH6iUwtgtsgmlXhvxVhvOnOlx5X05i0yBBEldA/z85H5qQ0K7gu/2mADFddzSWTq7MMvfgRguG3vrTzXB+ii1itQ47J+gbDl+NHIwSYQak8vFAiqOUu+Dn3Y4AH/DkRCHFVWroYhOd3NIAj+pWNHeOHYEqe2cBqDaLxLSK5oggP9No5Kl6pCJYCX8eyjv/qITdt8S758cZV07PsLeIrYFXi5vY/ar3+0JF1STdnQu9dycSwS6Kn2NDwIObNl8eW5teQ6tOkrJyZ5iFFuCZH7wlTak4orw2jEIVBYUGFgPxCk+U5a2YWQlIqSKdZ4CfT6KBnysATwB9dJBsjAnw3BPgZerz6NSBDMC/nMfxpmJLB1WEnEX+RyloHo8CwUQ2wRFWydpLRrcATBG4SXHhL5x0cg6DfC7XD6nW3amSM5W+5u8Ov4bxqu+NuQUPNadAD9J2i+Ar/FSIq42tZxaKjBKh8v7CRU5sJ5vE3kGqMG9sU4pGq4ROSgDCIi/dIT4xIYmk7KzenbACmCkQ//1R/HlqWmqRSSxv8L1kAM875ofV4tapurw9gii/H6bqdVz5TJ8bxQC4kSHH29wHzP+fBIUgM7y5ecv432EOnptUJHHMEyXD/dJarp0KdZRd8EkJeoyqtnP+9eIkqTs3pQF4cMj23PlxabPYZvTWvI50Rm1SIDYmPjHyrFQk90WBFFPZpOifwayid/350jXnAu1/AgWN/bv8NjrNi6ICA/RPVoFbUqpGRA4PSo1LGzi47h7A3oqVUkWJz1Pt0wopV/u3qwdYONahBDpurUWelo7vbRRBBGACmsssbr1+bKtgpgEuCEd4CuAPUO0YJxPomu+jCHegnemtXHzDLV3kdB0S0VV2PxTJ+t9LEMkW2KTvAbHTzUoiqewTXpfQl6nCgbT/iP7u0AKk5tU/M1DVpKZqvBtkIXVUTcqIXYMYJ3g6m/yQddID87M0vUUDTjCiqAY7hD4/Udd45XVTtrpthwgi5PL4UOxIrDIx/crwrkoBPMrZ/5ZA5jfV5jUEwQIJ5UfMe88ujr5Jgl4WLnJS1dNPonP/FqoSL0Zyv7z78TbT4vjSDBdH5T7qn5EQfMuLW693rfDjUQ6kR8MHn57rlIWNum3hFx1VkxGw2wKN/LnI4kvRQRMmtaKcO01/zIB+yeePDT8QkEgOJJduCZd8pURqsx1BaH97mrefJFy8gkIV8YmJ8vABdQOQSiCTLCdaVcejdnkwK5pOE1DFLBDT8tLP1Nr9EID+k+dgV2yJJO2cIBDIkN7Snaw+kVQDbwHevKe1eqGMyrGZnsFkJJaSqpnRbCe8W3CjBrDrDwfNM4y7HjsTstnRKU0EeOHh35PYO76sp78X3B9f697qAb6Cy6iT3GCTkogks7G+NqAaylXBybtTKZVG2cgqtMCb14DSid77jxJWHnOSOr9efG7azWaZm07fHkdNUqkD998TBhwlGTxCtTgsJFgYrxQb4swbfRA4J0j+mvcu9h10/30qPJ+RzzYlmjPoCyGuk3eKos1F8XVu8LC1KQH7cRTtXoUPQlZ3Lmb4vRhtZTyp2m88TaLVcIJ07f9UvvAG4KHgkB6sCQE+8KMBV1vjhm7JUM1LDqT39c+EeYuiWhAPi3o/ld25/M+mabRtqQDvrPCDPxuLY/jzM/mfvLcpSZFTSF4anD9Ifi/JvyqhTbBIJNdqT5usAN5UJ8fftVTYfITyXZHRdMhu+lcZUDUF6aqGwMOBfBVgD08KkmDoahMoUeSGLHcIwo18chPoiTLA93rfTxJR6GgUlsTy3mRLiy5CcLxL2TU+KLwQSdxsKEIE3PGAGvtlpmYSOHMWQFnBXlgezIgHRdNnZyVMUms3zr/Q3PXM0tx1hgAo4KLNvY+ep3FAWGngZVenFi7tMz/I0tU4PWxLsOANBxQdGUokuYXgP5Jq4APv/Hz+DfUWbUXVLE5tT6LFFHn/nOB9dTjXyUhgJ7A+FO2yoGdlHlcmsRhRUXdV1gUH2mXS6LgTRKPVtstlHrSvT7fcS2NoxlHVl8PX30pw5y3vp1m+mUgBwXwmCnSW8t0RKT1TMkxrF5xgkdS2t1L12OLIq1M7PMrioppuvym2xLRMCW4TCWiUigQa9tj+RxVFe/n3ZLnrCYqvYPhHEsZEQU8Z4B+k53aJes+d9WjYoIVnOlVNkRvUPED2IQPqfe2x0sl5YSAy21LadoNX5htQA3spyhvCRvH+W7PkA4MoirTrafh3ueEQJYQ/cHTTCVwk03nQCzCiL+ub5OZtAVB1VoA7qKx8X5pm5pPIRyB6V5rovWotKmzGdVuChtthPfMOiXj5NZsdec0rU1oD+xHAnCa7iOC96abTjd974l56q5wvgkrphIVuApvggNKR+yyre6yK8qqQMN+1GcVSjdCVcv2m6Q6JFRLRfZENu/2/iEBgT5VOVqxqpmS/N/9BUBaYZOW9UW+ypWvSDeqG3juLB882Hcgn1cBreibYYYQA8R0JqZ/qVA2ZRyGBJjdvs0AeN62yAwYt8ym1EBZSAu2ieuAhDw2iXlBoqSoT5R7Ko7K1/8Dw+2vG3JUX+dzj0WyGAGEdRAQViVBSwcRUk+gCsXXwOdLzKPceXgdl9gmS+1Jcd1/WxXWR9gkJ8jc8X38TC4pG7n9VAJUnCmpnGpNBqfcIm53taQ1CAnA3hlEEdHQD3xET2Gu7xy2MD/L4oFXkuIDOd22KnpBap35WNJ3hfzplxFBtsbtFyvuzVofgRtXnG1gy8HTJUaQA98gWcHUeTu0dflqqauNKPfPVFFE/PWqHkgWI6fORVfHzAe7LjjyqovG3vDZyGTEDAB1UfCs8jypwmY+8Q9z6gUADr9QiGUokRdXy3oQ7ZvveffOefildrBoMcHRO5wOJJdFRRYhs9rbHVbmikg6SR/iBYEItQDQO7NW1qGWuG5F8Iytn+MEz236SgSWxK50ZTfjj/RwV2srOYLuGB/i7KSSSdYDKu02qNEPvsTMLcOJ5Opbew9/TNi0XbTWd689xKgLLFIdJVk+k1DMr/TjZ4LKkVa4lxTbbSEfDc0cUxxvRcxSvx0GAbppuJcHxG5WX30Ov//EwwMt7wMJi+p3Gny8OIAz9kGXlphI0+Bcl1sCXF7dL4uZT5PeMBTUFdhwopQm8mKrxJuj+fP4eR9WgQw94wiOXLpOJTNsmT0qop5TnSwAEOISywCEPXfgGINB6lXIoLKWNCMOt+vSNhORwht2jInhAbwd2R8t4q66jUsUzV01ACahH5klotyQVk6xqShrtTPLntkuqVhuNdkL2zl9PwClH7QYtSORhB+uvAP0UXuTqJM46JbfEoD4vdH8dhC5LZTmf5Y29kBKMpKb7QaOfQAMvzqVnaNoxlJj2E7SI1KKGX4lNcJYSSVas/Yyj8NiV3aLwAdWbhBpRC2Ef1Esp1W1qsfV+JvfRHiWdxAehbuBMKArZ3qFCFEAUY0dxMKIH5dKYpvl2UPggSoZwootdFm9J2Uas7lww5XUFgdWr0Tov6uGSBU8oqmoPhb/YfwE67cCkK0iA28Up6WdXVCqW85OoWFThzisSJ+eqLJD2/fk/hKIniqqRBVvPXRTwmxwFuYbCUkJyTOJ4GHwlW2BLeVhq0TTbRrPxmJ2cyqKD3GvD9IdS57wulU1wLn9pFDinof3w1fZG8K9X0XNsRZS93/NDCa9PN4n/kOwkUuCAYRb4mt6b5Zy19VDt8V6SwjWuZqafV84xAu0P0+vkoa8FLSTRld2K5Z9ljI1IUVCR3E23myg3w9Z62FDDY0Mr5BPZBMeaC3wNIlsCejSpxryLtUE98ATHjiIzE7ETsAudxtdcTAukHBFenlTmKvNpCmSoXiJlsrXaffQA8gxQjoBua+QabfI0dzC9t1XwhIHOWugYc30WWGWndbf4ukikByOv2IVIFRr43KJQBKsK94JG5Q0n9yuKiFSeJEuJpDGPK1fuFhIq1kpUxHVMeHGLey1Lly59IooouY9BGjwoSLV5Lyemd3uqRid9cPNn+FDqyLBowWjAeor3en+CDzS28khA0c9/jcSubKMyAi3dnPfPR7CbnebdpfCBNfCllBr4Rh/MSQErXlA20s17Bc3DhXDVQ6cp2Bab5hJL8q9BOzIkm9Cog37vZgFiBQpp6bSSzBM4fCy0aW58FcUfo6L4TPrpygPKrd6QyL8VuRPsZEDhYL7M6xK1hwUALfLo+Dzda+tEz42/VX74hYjeprdgRye5KVaTDCZINkoV8EZYKVeRSILn/ngam2B6n6dmqQxRNSeHQ7+fUiJ5f7h/QNx8gNrpHKl2WcW0gQxyKiKd3N0bduv2YccHGed0WvBIEME5Ie3CBEcdSvlRyIAmkoirhKhXbcc6I6KoE5v0vmstepMShcn7VzuIB02kyjd0xe/k+/TfZ0GlBc1KIE1TAJQoGqxsYO5/VcArw3kt6IheFjsuinmY5+0hAZmI35mMur8kuYxcDCJ+/eAr+jKWDzz/zQ3KFqMiwYq5wsKdILkvMtYC6L4sI9HgPcM+IXkvZFncRkUFlZTv1vcTjAZjF4TV6AlBAcLnklCRc1FFI14Q+9Cb/2MTko0VKygXwRRUlD7JNqmZ0CMVXderfIiVzRb892SogY97s02aQ/mWCF+vokY9b1lSSALuDxINcWxY8pj2fiKFyHNU5fFkkxbJguy+IuZN/95kHXCWyO5bKqLrlIUqAQdckFZyYT8UOb/huUkhZgrK4hWGTZYT97bOInMNPNFZCTXwSv+f/52YoKUBUPlbg0+0+8+AZaBnyYpAaCE7cU+QTqqoK396C8GuWecX8//roO2PinAqt8n5z/K2v9hSgI/I9CvqoKAWwVIT5l1A4mGamzclUTo0srWG9lg5WRaaeB/NnLdeP76kkexxwxEk9PGxJZLw8TGRef4r1SSSpM55upK2xu8BDFqTKbWsfOB1YjNhPYOmQX6QkQlaEHTQjuXlCY3ZqjqYigCkwTnsrHHUyzXMnoGe6i6zQFwVE5abz+qBnQAD10ZdRVotKjDb5Lz3fd4mF2YR4Fu3kPDNzXLItzRjm1rZ2MG7MEGZf6vnpML5MBAfUASaoOl0CfkW49tE+ZPw/MpXble3OQENEjQqp+f1yRl+dmXaMudfGrs5e4XCZ2mmFEhIhvvJBHmLWsKCyyTf0gDVJYuNWKjMC1G/Ir+eFyV1nk0/nPLqzUmlNn4g67V/exiKnFqUg9wwhx1GGfqcd00Tksvtd1SqRe7zqcCnmRykChoeA3VO8FA2MZGdstoR+ZoTrERyoUgkF6JALi7Ai0wQyd9qGnhOHJaSSyT9nwYLagZOibqVIIQPCWsZSlGmflnsDFUCuAcFXhlQycXy5+S9s861dqbA1M5arMlscPGPptX3ZxlXdrYK3EvorVrvxipLJKm8P2Yjhzl6FAPJaM7bgK1uKxJMZTpiYD9EnCryaqe5jjI5ewQDvC5EKjS6kCqr3JeFEvw6kHqLCqRKsQFUtabLUiJpLEsIQFO4tkoj8BOyvD57DmklaIogixlQf4IbO/zqIgOVr4NCyzsfOz0omIy1Cxn7Qb3FcvN+FHdClqvfNyS3UHaBAkfhXJbKp6RR16GgOTjbvKt9KRkrPQwAujd/SiPAFXDE1hL1PuW7k4T7LbX5/ASqk5yVhx3cSvVAQHeQq6Apnukb0HPXFrSeLejJjwsfK4lRuIwmSDYWIzqH/ctMlVH+vQnyXUWogbhg59wsud1K+4Rg15JMA4+vNPhpyyyBGdlgJh1VM61kwr9FIjdM1YTyde82su5c/nruf/EHVBND4mwXAG/t0S8/Buf6iT4H6OLABoZtS2ajV0TFamX8aaQirT0j+ULZs8S7V/dhbMAci1sA5l+WUANfqmiD1360gyhvpsqVoPmviPZXJ0JbQf8F6gx4+uetFawCzdIsU1esgadtP9dLSJETtu5JNPAMjvAgekZVDXwu/4UEBneBLTeBzfIsF2lJMgKYoWFP+NzL4rYF1dbNCCKUUdvTgkbv6fBJ+wZ9uhaGiDsurDz0TjiQl6LamgJGdFFTPvhQ6n3E1ADZ3OBRswnw4YTGB6BdV6XwbcMlB9WNeJDIuzpGVKoSgP6KFBp4E02pBGK7JGkL8qDx/ExoLniWEj0ByMP7iIDzW4F9QzZFbemcP7mKF/mCkFzwwgQaeFFxXSMtLNXOOPiKRvXJbIIt8IbBJbvdu3887uOkGnhp0k6V1/s1aZcYBCe+qX4PKLFCBnmY6VD+rjN6rkz+ZAQUnv5/Cl5+CfWQ6XyX9y4Ighq6F0xvDesu+4osP7dUHzZvhT6uHsbJFhUDVVWAiOLBXo//Q1I6PDNOMiek8DhPWto1XCpuCrbMXPwDbepE6qYeiMJsRexyowZJ47z3TfHgmUVwnwHy+IokHF3rzpCXTnEWaKxdTEV+eeZzQNXdfuziGtMsBX/bEWqwrb4+OchJxFTQSGEa0YsvzVgiOY9piHfE7l41sxH4FbJYNsMOoLLxu3dxVlSNyE8FU8LXLlE3qs0ROEk0Xv5cvavovX8NbILJY1gjw5PZmuQY7hHxilmN4KNAHm208oFDXFCgU2phxD4pySV+GMfQeUeusYo0qT6Pl/e/NBBPA2+2c5CQgXsTPTNMnwIuL9uK3MYKflTlJs/Zlap4qUPJumZ9VN5XfTk0xDCLkl8B9M2euxJTfCa/tHRgWeDropunwJM+gkYpVTnCbRsvqCaRhI9OQq8XAfhb0laJVlOJwIgthU2wWdzovX8j6vNuBlWDCJl20n9n58tdae8Jpuu+F16UK5Q8sBIxORv/SH3PgH6k+fvu4sXLnmJlrP6ZWOgRCNLfvojyPVvFn2fWAX7mm8PWLb8+VFbflIhekoM6Ymdd7j3gLlElGbrGzrirPxJpgXwvSVMTqnCs3J4hs298T0pqjkoZA1ZJzUtRWxnYmzu/DuoM6UjUBlF73UUWqi00CsG2XhYpfX9lNHclXTksu7Bg7ihgkN6z8uD19/d3S48EBo5iA0dAj4mmXssYK8z9ct720M6l/tEb1HlcIzbBWRWnVWrg+/VCW4zx3ifDJmhNTOQHO0JUpKp84UMRhW+FGtdcUBYYu+S5Ep+fsIS0DPDe6AyAx/NHCVbeCZ1rcoNkxY7cjrGnJoAXaq0tAD78Adnyc/8r8PxQplfTQTl4MlVJKQRck/JhqYd9A7ZiUrwUKipI9H7YmuGGWDbJqmM7fZDnhRdBPHRWDuX9EokqARAF9nITTUqSWG3/y4eqaq34feZGEa2Udwv5cTyUWGAigL2d7VA7Q9HRAiQ1YQQlUXB47ljRNalcIEu15k79flHfU0FiDsZ35DUjCUEdGfZah9UH0CdB+wHVOxDBDvQfOa3qDHS1I0d6fcfa31va8HnlsF2nvF9mqamWZ8K2EPSuw2vEec/6ONLuhs5oheY7pKr50lKa9yTXrA+876UDR0oXqFdG3a9osIOkqVhLlwHe+yMWX7OIU6ctye2YRWGJSV6X5JxJOt01beANVBj/mIa8/reRLZcbQdQaSpq3iyOfyRkH/t/+rFDx8PkD+lw70UMVcjJsbyJ2FqkMsYhawTZ5Y0yb4ECmhoIwvdBosMLuAPwcenkiCkRUoR8YySEoz5TwVj/wpenzK28+nsPb7TbSP7WPu9Tom34umSeFfe9Jh/0Umrs3mGYcFP1YWmIg0dzpB5c/5/vAjdI9dRG9xmuUqmhGVLgEwYxtpvIdKJA809eg+oGfm2tG3sN8DXIf82bSIIaa+h7ObR1V89+ud5R/z/jiL89SYy7zb6y70Y+51/sRaJZGrqvi+vJmrr5HYHZ4lhLORlgGFEChHzFkjABVuo6f0/ELfLWyRe/H4YN+9lP+vcqDGoPQPF+NJkEqaJqnGrWgWcxnFS6xKs8/B1JKua+NEyzz9KZojhYhus7/bCZ1lRllgzeFiJrexBqTRICXNnueh1fE8BH1O7YCNb8ek4tz0k0ysGjRoidE8G5pIgIVReWPAPDGlEgWg201J0u0UVEY6MuRKVkA48Mmm2RQEUiSyWuH50MB2JTZ4tHuxUQGpLHFrsHaCOeeHQZx3cd2Lo6o5trwJTd9AiAzo4fRWBrbuXu41tzxgr3DUC9kemUSX/TgYUstDeEjIrNW0ljzOmr7mtQ7mraryuDaWk4H6vsGgIyeBraCOvcY7KotHZt7RPjg/39M1IG/g1XFwuqRdmeV/+tshApr2xHqZ9rBCanH5nL9B5tO7GRUBDAi0LzWyIKIq6LV8C769yYsAqAUoBO12xkfD+3nURGGrQsoIALxR4UnJQNgn/EB0MP+2kDLHgPgbRs2cGn9B1fjQKP6pjJgPYKipP0pgjvUcPakZTY+8Kb6DYls/xymKVZhi2/kWPn8C1FdGHU+eZ0sStXbCeijohs8uNA+E399GOYOdRqcxDrbzJ3Z6cED3h+G9TWqChE1IeFV53X2nAbMu/Fosoigc5b/fna21tUkWigIwOpH0dJTc7mB5yGpBFBDtxwAFjLf4MAlUVQtS96EB1Br4M/0vX7h2uL6fI9IJFjnxpoX1Us1LQBG9bDdHR/YjOeuU3oCNxgsdAo1Gfuov+AmPnezk+a4dqHNkh6zCGjzdL/nLI5qkXqV9zkvdG9V9KCYq7bEnRmATnCOZkZVlT7w3idi6mdZImlUFb8XnW+MyCFoni1zpT7wzvA2WTckb6DB9O4+zP0B5UFo7sIPTKcAVPj3XaTuhhsZraICTPKAyXZYA5b8fytXNd0XE4mhuAAvpf/oC1pezFJvDduCx5yrwO/mzg033KgAeJuE8a6K08hB5Ixhz4qO3b0zuxtuuOHGXAJ49MlESXIsm2ClgUdSWNMpbmbdcMMNN9oE4FHYorrGNwzwor2OKGJxww033HBjFofu7XikaKkblkgywNPxQNnrumO3btbrhhtuuDGXAF408G81YJ1LoIGn6l0UGukdgRtuuOGGG7M7lETSPyemY15JaeBvkc4vDuDdcMMNN9oN4NFNh7vGN+iGqTXwV2Ts5OeGG2644UaaIdWF0N/DfIgNzWIVOXHvxq8H53QA74YbbrjRBgCvHfOka3wMDTwO6x3uf9gBvBtuuOFGGwI8N+udYB+ahiSSXq+lcZBk1Y0AOpwG3g033HCjfQDeuBFSN52EGvgSAfyr+ZROA++GG2640Qajs9w3Ea31TEOS2AAPDTx1+jlMRe8O4N1www032gXg4RduGmrk4gG8jfj9u2B1jPPs7na9brjhhhtzBuDlGzIZO4/17NIjdcokW2sd9Hu2kbL3J2kg4QDeDTfccKM9RrmfLMkcpWF1oweieDRIpsXhV+jK5ADeDTfccKPNAB7+82iqa+SOjdkTBIeVSHoXyAkdwLvhhhtutMcI2mahIzrMxqiFYB/6dtY7evkr/d3SgSUD+0Wc0w033HDDjd1ssXDDDTfccKPNRqKmwkzJuMImN9xwww033HDDDTdmb/x/LnPJkhc6h94AAAAASUVORK5CYII=;labelBorderColor=default;textShadow=1;" vertex="1" parent="1">
          <mxGeometry x="270" y="247" width="126.9" height="67.5" as="geometry" />
        </mxCell>
        <mxCell id="Sz6BR0hqmBrMi9TMJiZ0-5" style="edgeStyle=orthogonalEdgeStyle;rounded=0;orthogonalLoop=1;jettySize=auto;html=1;" edge="1" parent="1" source="Sz6BR0hqmBrMi9TMJiZ0-6" target="Sz6BR0hqmBrMi9TMJiZ0-4">
          <mxGeometry relative="1" as="geometry" />
        </mxCell>
        <mxCell id="Sz6BR0hqmBrMi9TMJiZ0-6" value="" style="shape=image;verticalLabelPosition=bottom;labelBackgroundColor=default;verticalAlign=top;aspect=fixed;imageAspect=0;image=data:image/png,iVBORw0KGgoAAAANSUhEUgAABLAAAASwCAYAAADrIbPPAAAACXBIWXMAACxLAAAsSwGlPZapAAAAAXNSR0IArs4c6QAAAARnQU1BAACxjwv8YQUAAITWSURBVHgB7P0LtJ51fej7/uZ9JjOZmQFCgEQTFcTQw02t4B6ngWqlS+3xvnXoGEuF7tPRHu2i9pzWOqqrgK16at2FFhbavV0S2qWja2PRjgp77dYCa3W13lpAV7FWMEESbhEyk5CZeX/3/L/hhZn7vLyX//M8n88Y75i5waCVOcP7ze/3e7pqcwIAAAAA8lTrDgAAAADImIAFAAAAQNYELAAAAACyJmABAAAAkDUBCwAAAICsCVgAAAAAZE3AAgAAACBrAhYAAAAAWROwAAAAAMiagAUAAABA1gQsAAAAALImYAEAAACQNQELAAAAgKwJWAAAAABkTcACAAAAIGsCFgAAAABZE7AAAAAAyJqABQAAAEDWBCwAAAAAsiZgAQAAAJA1AQsAAACArAlYAAAAAGRNwAIAAAAgawIWAAAAAFkTsAAAAADImoAFAAAAQNYELAAAAACyJmABAAAAkDUBCwAAAICsCVgAAAAAZE3AAgAAACBrAhYAAAAAWROwAAAAAMiagAUAAABA1gQsAAAAALImYAEAAACQNQELAAAAgKwJWAAAAABkTcACAAAAIGsCFgAAAABZE7AAAAAAyJqABQAAAEDWBCwAAAAAsiZgAQAAAJA1AQsAAACArAlYAAAAAGRNwAIAAAAgawIWAAAAAFkTsAAAAADImoAFAAAAQNYELAAAAACyJmABAAAAkDUBCwAAAICsCVgAAAAAZE3AAgAAACBrAhYAAAAAWROwAAAAAMiagAUAAABA1gQsAAAAALImYAEAAACQNQELAAAAgKwJWAAAAABkTcACAAAAIGsCFgAAAABZE7AAAAAAyJqABQAAAEDWBCwAAAAAsiZgAQAAAJA1AQsAAACArAlYAAAAAGRNwAIAAAAgawIWAAAAAFkTsAAAAADImoAFAAAAQNYELAAAAACyJmABAAAAkDUBCwAAAICsCVgAAAAAZE3AAgAAACBrAhYAAAAAWROwAAAAAMiagAUAAABA1gQsAAAAALImYAEAAACQNQELAAAAgKwJWAAAAABkTcACAAAAIGsCFgAAAABZE7AAAAAAyJqABQAAAEDWBCwAAAAAsiZgAQAAAJA1AQsAAACArAlYAAAAAGRNwAIAAAAgawIWAAAAAFkTsAAAAADImoAFAAAAQNYELAAAAACyJmABAAAAkDUBCwAAAICsCVgAAAAAZE3AAgAAACBrAhYAAAAAWROwAAAAAMiagAUAAABA1gQsAAAAALImYAEAAACQNQELAAAAgKwJWAAAAABkTcACAAAAIGsCFgAAAABZE7AAAAAAyJqABQAAAEDWBCwAAAAAsiZgAQAAAJA1AQsAAACArAlYAAAAAGRNwAIAAAAgawIWAAAAAFkTsAAAAADImoAFAAAAQNYELAAAAACyJmABAAAAkDUBCwAAAICsCVgAAAAAZE3AAgAAACBrAhYAAAAAWROwAAAAAMiagAUAAABA1gQsAAAAALImYAEAAACQNQELAAAAgKwJWAAAAABkTcACAAAAIGsCFgAAAABZE7AAAAAAyJqABQAAAEDWBCwAAAAAsiZgAQAAAJA1AQsAAACArAlYAAAAAGRNwAIAAAAgawIWAAAAAFkTsAAAAADImoAFAAAAQNYELAAAAACyJmABAAAAkDUBCwAAAICsCVgAAAAAZE3AAgAAACBrAhYAAAAAWROwAAAAAMiagAUAAABA1gQsAAAAALImYAEAAACQNQELAAAAgKwJWAAAAABkTcACAAAAIGsCFgAAAABZE7AAAAAAyJqABQAAAEDWBCwAAAAIIGcCFgAAAABZE7AAAAAAyJqABQAAAEDWBCwAAAAAsiZgAQAAAJA1AQsAAACArAlYAAAAAGRNwAIAAAAgawIWAAAAAFkTsAAAAADImoAFAAAAQNYELAAAAACyJmABAAAAkDUBCwAAAICsCVgAAAAAZE3AAgAAACBrAhYAAAAAWROwAAAAAMiagAUAAABA1gQsAAAAALImYAEAAACQNQELAAAAgKwJWAAAAABkTcACAAAAIGsCFgAAAABZE7AAAAAAyJqABQAAAEDWBCwAAAAAstYbwDFNP7Yzpn/4/fq3u1avPuGv7V41HF1zr2PpST+3ejgAAACApRGw4Ahjd3w5xr52W0zc+81otd4zNx71YymEda86Opj1HOPXHvlj3auH6zHtue/X49nhf6+eMzae9J8BAABoj9Hpmbh734EYnZmJkZ6e2DzQHxcNDQZwuK7anACitn9f7L3h43FgLmBVVZoU65kXwHrO2PDct7vnTZJ1HzFV1ohgRwazRiwzhQYAAIe7b+xgfGjHE/V4daTNA31xzcbT433rRgKoqwlY8Kw9v/sb9ekrWmt+JGsEsvlBrDFV1pgmmx/FGquaghgAAEV2w+NPxa/tePykv+79cwHrDzedESO9PQEVJ2BBksJVClgUSyOGzV+7bASwxsfe575/KJY1psKsTgIA0AkLjVcNKWJ94SUbAipOwILk8bdvjZnHdgbVk0JWI4A1JsHmx6/GBFhj+kv4AgBgqbbtHo33P7QrFuuWuYBlnZCKqzniTuVN/esD4lWFTS/xf/sUshorkD3Pha7ho6JX7xkbrTsCALDkeJXcMvfXClhUnYBF5U0/vrTfRKi2FL6ei18LeGLl/EmvI4NXWm804QUAUF7LiVdJOvS+Y2KqftwdqkrAovJqz+wLaLXDJr1OErzqYeuMjc/FrnrwWt2Y5lpdv+MldAEAFMNy41XDjolJAYtKE7CovK5V1rvIS23/vpja/8Ch75wgdh0rdM2f6LK+CADQWfeNHWxKvEpGZ2YDqkzAovIGXn5JQBEtNHT1nXPeUdNcfedsEbkAAFooxauffWBHNMtIT3dAlQlYVF56Ez9w8SUxsYA7RlBEUz88ceRqTHL1nrHhUOQ6a+Nz64r9Z58ncAEALFIjXo1Om5qCZumqzQmouPQG/8n3/UIARztW4GpMcKXpLgAAnteqeHXXeZvj8uGhgIqqCVjwrGf+/D/G3ht+N4DFSYGr/+xnVxJfel70n3Oe6S0AoJJaOXklYFFxAhbMN/a122LP7/1mAM0hbgEAVZGeEnjx9x5q2dqggEXFCVhwJBEL2qMRt9IaorVEAKDIUrxKk1c7JqaiVQQsKk7AgmMRsaCzUsRKN7caU1s9Z24QtgCALLUjXiUCFhUnYMHxiFiQH2ELAMhJu+JVImBRcQIWnIiIBcXQCFv9r7i0voroxhYA0GrtjFfJ9otfGpsH+gIqSsCCk5n64QOx+wPvidoz+wIojvk3tgZefqlpLQCgadodrxIBi4oTsGAhRCwoD9NaAMBydCJeJQIWFSdgwUKJWFBeohYAsBCdileJgEXFCViwGCIWVMeRUWvg4ksDAKiuTsarRMCi4gQsWCwRC6qrfk/r4kui76Xn1aOWm1oAUA2djleJgEXFCViwFDOP7ZyLWO+Omcd3BVBdjUPx/S+/NAZefonVQwAooRziVSJgUXECFiyViAUcS5rKqq8cpqh18SXRc+bGAACKaXR6ph6v7hsbj06rXfpTARUmYMFyiFjAyaSAVZ/SesWhoGXtEACKIad4lQhYVJyABcslYgGL0Vg7HLzsCsfhASBTucWrRMCi4gQsaAYRC1gqQQsA8pJjvEoELCpOwIJmEbGAZkhBa/CiS6wcAkCHXPzdh7KLV4mARcUJWNBMIhbQbOmGVgpZjsIDQOtd+dCuuGX3aORIwKLiBCxoNhELaKU0kZVC1uBlr7NuCABNlHO8GunpiT0//bKAChOwoBVELKBdDsWsK6wbAsAy5Byvks0DfbH94pcGVJiABa0iYgHt1lg3XPnGt5vOAoAFyj1eJQIWCFjQUrPP7IufzEWsqR9+PwDaqXEMvjGd5XYWABytCPEqEbBAwIKWE7GAHFg1BIDDXbvzybhm5+4oAgELBCxoCxELyIlVQwCqrkjxKhGwQMCCthGxgByJWQBUTdHiVXL58FDcdd7mgAoTsKCdRCwgZ2IWAGVXxHiVCFggYEFH7Pnd34ixO74cALkSswAom6LGq0TAAgELOkbEAopCzAKg6IocrxIBCwQs6CgRCyiaFLNW/MzrYtW7rqx/GwByV/R4lQhYIGBBx4lYQFH1nXNePWSl6SwxC4AclSFeJQIWCFiQBRELKLpDK4bviJVveHsAQA7KEq+S968biS+8ZENAhQlYkIt9n78h9s+9AIqscS8rTWalCS0A6IQyxatEwAIBC7IiYgFlYsUQgE7Ytns03v/QrigTAQsELMiOiAWUUVot9BRDAFqtjPEqEbBAwIIsiVhAWaVJrOFfvNpUFgBNV9Z4lfzaGafGH24+I6DCar0BZCe9uUtELKBsZh7bWX9wRZKmstLXOyELgOUqc7xKRnq7A6rOZwFkKr2pW/1syAIoo/T01cffvjV+8oF3exIrAEtW9ngFHGKFEDJnnRCoijSJtfqdV8bg1teZygJgQe4bOxgXf/dHUXbXbFwXv7Px9IAKq5nAgsyZxAKqIq0Xjt7w8fpUVlozTN8HgONJ8epnH9gRQDUIWFAAIhZQNfPXCyfu/UYAwHyNeDU6PRtVMNLTE1B1AhYUhIgFVNHEvd+ci1jvqccsd7IASKoWr5KRXgELBCwokBSx1v727wdA1TSeXihkAVRbFeMVcIiABQWz8o3vELGAyjoyZLmTBVAdOyYmxSuoME8hhIIa+9ptsef3fjMAqiw9rXDoDW+PlXMvTy4EKK9GvNoxMRVVdPu5L4y3rF0dUGE1AQsKTMQCOETIAiivqser5K7zNsflw0MBFSZgQdGJWADPE7IAykW8OkTAAgELSmHqhw/E7g+8J2rP7AsAng9Znt4KUFzi1fMELIiaI+5QAn3nnBfrbvpidK0aDgAOHXvf9/kbPLUQoKDEK+BIJrCgRExiARxbmsga/sWr66uFAORNvDra9otfGpsH+gIqzAQWlIlJLIBjSxNZe373N+oTWRP3fiMAyJN4BRyPgAUl04hYPWdsCAAOl0LWTz7wnnrMSt8GIB/iFXAiVgihpNIbs90feHfMPL4rADi2tFKYVgs9sRCgs8SrE9vzypfFSG9PQIV5CiGUmYgFcHLuYwF01uj0TFz8vYfEqxOoXfpTARUnYEHZiVgAC5NC1sivfSwGf+Z1AUB7pHiVJq/uGxsPjk/AAgELKkHEAlg4a4UA7SFeLZyABQIWVIaIBbBw3auGY9W7rozVcyELgOYTrxZupKcn9vz0ywIqruYphFARaZJg3U1f8nRCgAWYfWZf7Pv8DfH427d6WiFAk4lXizPS6207JD4ToEJELIDFSfEqRay9N3w8avv3BQDLJ14BSyFgQcWIWACL98yffyGeeP8vxNgdXw4Alu7Kh3aJV8CSCFhQQSIWwOKlaaw9v/sb9Ze1QoDFS/Hqlt2jweJsHugPQMCCyhKxAJYmTWHt/uB7TGMBLIJ4BSyXgAUVliLW6bd+LfrO2RIALJxpLICFE6+AZhCwoOLSo+JPu+lLIhbAEjSmsSbu/UYAcLQP7XhcvFqmkZ6eAAQsIEQsgOVIE1g/+cB7Yv/nbwgAnnftzifj+sefCpZnpNfbdkh8JgB1IhbA8uybC1iPv32rlUKAOBSvrtm5OwCaRcACniNiASxPilcpYh348y8EQFWJV81lhRAOEbCAw6SIdfq2r8XKN7w9AFia0Rs+7sA7UEniVfNZIYRDfCYAx7T2o58WsQCWoXHgXcQCqkK8AlpJwAKOS8QCWB4rhUBViFdAqwlYwAmJWADLl1YK9869avv3BUDZiFettXmgPwABC1iAFLGG3nVlALB0z/z5F+KJ9/+ClUKgVMQroF0ELGBBRq7+WKz+xasDgKVL8SrdxZq49xsBUHTiVXus6fUUQkgELGDBhucClogFsDwpYv3kA++J/Z+/IQCKSrxqn5Eeb9sh8ZkALIqIBdAc++YClogFFNG23aPiFdB2AhawaCIWQHOkiPWTD7zbcXegMFK8ev9DuwKg3QQsYElELIDmmLj3m467A4UgXnWGpxDCIQIWsGQiFkBzNI67i1hArsQroNMELGBZRCyA5kjx6sn3/YInFALZEa86yxF3OMRnArBsIhZAc8w+s6/+hMKxr90WADm4b+ygeNVhI709AQhYQJOIWADNs+f3ftMTCoGOS/HqZx/YEQA5ELCAphGxAJonPaFQxAI6pRGvRqdng84Z6TF9BQ0CFtBUKWKt/e3fDwCWT8QCOkG8ysdIr7fs0OCzAWi6lW98h4gF0CQiFtBO4lVe3L+C5wlYQEuIWADNI2IB7bBjYjLe+oNHxKuMWCGE5wlYQMuIWADNU49YN34iAFohxas0ebVjYioAciRgAS3ViFhdq4YDgOXZ98X/PfZ/+qMB0EziVb5MYMHzBCyg5VLEWnfTF0UsgCbYd/sXRSygacSrvDniDs/z2QC0Rd8554lYAE0iYgHNIF4BRSJgAW0jYgE0T4pYY398XQAshXhVDJsH+gI4RMAC2krEAmievf/Hn8bUTXMR6+CBAFgo8QooIgELaLtGxOo5Y0MAsHSz0zPxkz//05i54aMiFrAg4lWxOOIOzxOwgI44FLG+JGIBLFOKWLv/y/8ZtZt+R8QCTki8Kp6RXgELGgQsoGN6ztwoYgE0wczERDz19b+J+Jx1QuDYtotXhbRGwILnCFhAR4lYAM0xsXdf7P27/yZiAUfZMz0TrxGvCmmkx1t2aPDZAHSciAXQHM88+ngc+M43D0WsPbsDQLwCykLAArIgYgE0x74f74qpHz4Q8VkRC6quEa/uGxsPiskRd3iegAVkQ8QCWL501P2pBx6M2u7HRCyoMPGqHBxxh+cJWEBWRCyA5UtH3Ud/9OND8UrEgsoRr8rDDSx4ns8GIDsiFsDyjT35kzjw6OMiFlRMbe4lXpWHCSx4noAFZEnEAli+dA9rZnxCxIKKSPHqqod2iVcl4f4VHE7AArIlYgEsT7qHteeH2w99R8SCUmvEq1t2jwblMNLr7TrM5zMCyFqKWKff+rXoO2dLALB4E3v3HVolTEQsKCXxqpysD8LhBCwge92rhuO0m74kYgEs0XOrhImIBaUiXpWXFUI4nIAFFIKIBbB0h60SJiIWlEKKV7++43HxCqgEAQsoDBELYOkOWyVMGhHr0R0BFNN1O5+M6x9/KiinzQN9ATxPwAIKpRGxBi6+JABYnMNWCZMUsT73cRELCujauXh1zU5TlEB1CFhA4TQi1so3vD0AWLi0Srh3+48P/8GDB0QsKBjxqhpMYMHhBCygsNZ+9NMiFsAiHXxqT0zs3X/ED4pYUBTiFVBVAhZQaCIWwOLt+dcfHf2DIhZkT7yqls0D/QE8T8ACCk/EAlicmYmJww+6NzQi1j9/O4C8iFdA1QlYQCmkiDX0risDgIVJB91r09NH/0SKWNs+E/GdewLIg3hVTZvcwILDCFhAaYxc/bFY/YtXBwAnlw6673/0ieP/gv98s4gFGRCvAA4RsIBSGZ4LWCIWwMKkNcKZ8Ynj/wIRCzpKvKo2N7DgcAIWUDoiFsDCpCmsfY/sOvEvErGgI8QrgMMJWEApiVgACzP2xE9OPIWVpIj1d3cE0B637B4Vr4jNbmDBYQQsoLRELICFOekUVvKXt0b89W0BtFaKV1c+tIDPSYCKEbCAUhOxAE5uQVNYSQpYIha0jHhFg+krOJqABZSeiAVwcguawkpELGgJ8Yr5Rnp7AjicgAVUgogFcGLjT+2J2vT0wn6xiAVNJV5xpJEeAQuOJGABlSFiARxfeiLh/kefWPhfIGJBU9w7djA+9PBjAfMJWHA0AQuoFBEL4PgOPPr4wqewEhELliXFq9c8sCNGp2cD5hvp9VYdjuSzAqicFLHW/vbvBwCHW/QUViJiwZKIV5yII+5wNAELqKSVb3yHiAVwDOmJhIsmYsGiiFcAiydgAZUlYgEcbWZiIib27o9FE7FgQcQrFmLzQH8AhxOwgEoTsQCOtv/HS3waWgpYf7ktgGPbPjEZb/vBI+IVJ7Wm1xF3OJKABVReilinfOqz0bVqOACImNi7b3HH3Of7uzsj/vzmAA6X4lWavNoxMRVwMiM93qrDkXxWAMxZsfWKWHfTF0UsgGct+pj7fP94j4gF84hXLNZIjwksOJKABfCsvnPOE7EAnnXg0cdjWUQsqBOvWIoRK4RwFAELYB4RC+CQ2emZpR1zn0/EouLEK5Zq80BfAIcTsACOIGIBHDL+1NOxbClibfuDiIMHAqpEvAJoLgEL4BgaEavnjA0BUFVjT/5k6cfc5/vn70R87joRi8oQr1gO01dwbAIWwHEcilhfErGAykprhJMHDkZTPPqwiEUliFcs1+aB/gCOJmABnEDPmRtFLKDSxp7cHU0jYlFy4hVA6whYACchYgFVNv7UnuasETaIWJSUeEWzWCGEYxOwABZAxAKqqqlrhA0pYl3/WxF7mjjdBR20Z+7zRLyiWUZ6egI4moAFsEAiFlBVTV0jbEjx6rPXiVgUnnhFs430epsOx+IzA2ARRCygitIaYUuIWBRcI17dNzYe0CyOuMOxCVgAiyRiAVWT1ggn9u6PlhCxKCjxilZZ02uFEI5FwAJYAhELqJqJvfuiZUQsCka8opVGerxNh2PxmQGwRCIWUCWTrZrAahCxKIja3OuqH+0Sr2gZR9zh2AQsgGUQsYCqSBNYtenpaCkRi8zV49VDu+IrT7c46FJpmwf6AjiagAWwTClinX7r16LvnC0BUGZjT41Gy4lYZKoRr27Z3YbPAyptxA0sOCYBC6AJulcNx2k3fUnEAkpt+sCBaAsRi8yIV7SL6Ss4PgELoElELKDsDj7VxjfvIhaZEK9oJ9NXcHwCFkATiVhAmc1MTLT+DtZ8jYj16I6ATkjx6td3PC5e0TYOuMPxCVgATdaIWINbXxcAZTP2VJvfyKeI9bmPi1h0xHU7n4zrH38qoF2sEMLxCVgALZAi1qmf+lysfMPbA6BM2nYHa76DB0Qs2u7auXh1zU4rrLSXCSw4PgELoIXWfvTTIhZQKhN7n4mOELFoI/GKThnp9RYdjsdnB0CLiVhAmUwdONDeO1jziVi0gXhFJ20e6A/g2AQsgDYQsYAymTxwMDqmEbH++dsBzSZe0Wmb3MCC4xKwANokRayhd10ZAEU31Yk7WPOliLXtMxHfuSegWcQrcuAGFhyfgAXQRiNXfyxW/+LVAVBkUwfGIgv/+WYRi6YQr8jFSK+ABccjYAG02fBcwBKxgCKbeqaDK4RHErFYJvGKnGy2QgjHJWABdICIBRRZx1cIjyRisUTiFTmxPggnJmABdIiIBRRZlhHrr28LWCjxitxsHjR9BSciYAF0kIgFFNVkTmuEDSlgiVgswC27R8UrsmMCC05MwALoMBELKKLp3CawGkQsTiLFqysf2hWQG/ev4MQELIAMiFhA0czOzES2RCyOQ7wiZwIWnJiABZAJEQsokonR/ZE1EYsjiFfkzgohnJiABZAREQsoitrMdGRPxOJZtz+9X7wie5sG+wM4PgELIDMiFlAEs9MzMT0+EdkTsSrv3rGDcdWPdgbkbqTH23M4EZ8hABlKEWvtb/9+AORs+sBYFIKIVVkpXr3mgR0xOj0bkLvNAyaw4EQELIBMrXzjO0QsIGsz0xkfcj+SiFU54hVF44g7nJiABZAxEQvI2cxEAVYI5xOxKkO8omgccIeTE7AAMidiAbkqXMBKUsD6y21BeYlXFNHmQdNXcDICFkABpIh1yqc+G12rhgMgF9Pjk1FIf3dnxJ/fHJTP9onJeNsPHhGvKBwTWHByAhZAQazYekWsu+mLIhaQjZkiPIXweP7xHhGrZFK8SpNXOyamAorG/Ss4OQELoED6zjlPxAKyUZuZjkITsUpDvKLoBCw4OQELoGBELCAXs9MzUZsWsegs8Yoy2DzQH8CJCVgABSRiAbmYmYtYhZci1mevizh4ICgW8Yqy2GQCC05KwAIoqEbE6jljQwB0ysxEQQ+5H+lHD0R8TsQqEvGKMnHEHU5OwAIosEMR60siFtAxhV8hnO/Rh0WsghCvKBs3sODkBCyAgus5c6OIBXRMKVYI5xOxsideUUYjvSaw4GQELIASELGATin8kwiPRcTKlnhFGV00NBjAyQlYACUhYgGdMFu2CayGFLGu/62IPbuDPIhXlJX7V7AwAhZAiYhYQLvNTExEaaV4lZ5OKGJ13J65UCpeUVbuX8HCCFgAJSNiATSRiNVx4hVlJ2DBwghYACUkYgHtUivrCuF8IlbHNOLVfWPjAWW1eaA/gJMTsABKSsQC2qF0TyE8HhGr7cQrqmKTCSxYEAELoMRELIAmErHaRryiShxxh4URsABKrhGx+s7ZEgDNVokVwvlErJarzb2u+tEu8YrKcAMLFkbAAqiAFLFOE7GAFpidno7KEbFaph6vHtoVX3l6f0AVpOmrkV4TWLAQAhZARXSvGhaxAJpFxGq6Rry6ZfdoQFVsHjR9BQslYAFUiIgF0EQiVtOIV1TV5n5PIISFErAAKkbEAmiiRsR6dEewNOIVVeb+FSycgAVQQY2INbj1dQHAMqWI9bmPi1hLkOLVr+94XLyisgQsWDgBC6CiUsQ69VOfi5VveHsAsEwHD4hYS3Ddzifj+sefCqiqTYNWCGGhBCyAilv70U+LWADNIGItyrVz8eqane6HUW0jPd6Sw0L5bAFAxAJoFhFrQcQrOOSilYMBLIyABUCdiAXQJI2I9Z17gqOJV3DISE9PjPT2BLAwAhYAz0kRa+hdVwYAy5Qi1n++WcQ6gngFz9s86IA7LIaABcBhRq7+WKz+xasDgCYQsZ4jXsHhNvc74A6LIWABcJThuYAlYgE0iYglXsExbB4wgQWLIWABcEwiFkATVThiiVdwbAIWLI6ABcBxiVgATZQi1l/fFlUiXsHxXTjkCYSwGAIWACckYgEn0jM4ECxCClgViVjiFZxYegohsHACFgAnJWIBNFEFItYtu0fFKziJi0xgwaIIWAAsiIgF0EQljlgpXl350K4Ajs/0FSyegAXAgolYAE1UwoglXsHCmL6CxROwAFgUEQuYr3ewP1iGEkUs8QoWzhMIYfEELAAWLUWsNVd/NABoghJErNuf3i9ewSIIWLB4AhYAS7LqXVfF2t/+/QCqrWfAUwibosAR696xg3HVj3YGsHAXDq0IYHEELACWbOUb3yFiATRLASNWileveWBHjE7PBrBwIz3eisNi+awBYFlELKi27l5P0mqqAkUs8QqW7qKVjrjDYglYACybiAXV1dXTGzRZClh/uS1yJl7B0o309MSI+A+LJmAB0BQpYp3yqc9G16rhAKqjd9ANrJb4uzsj/vzmyJF4Bctz0ZDpK1gKAQuAplmx9YpYd9MXRSyAZvjHe7KLWNsnJuNtP3hEvIJlSBNYwOIJWAA0Vd8554lYUCE9A/1BC2UUsVK8SpNXOyamAli6i4ZMrsJSCFgANJ2IBdXR445L62UQscQraJ4Lh1YEsHgCFgAtIWJBNXT1OuLeFiliffa6iIMHot3EK2iukR5vw2EpfOYA0DIpYq3f9lfRc8aGAMqnZ8AaTFv96IGIz7U3YolX0HwXrXTEHZZCwAKgpXrO3BjrbvqSiAUl1OMJhO336MNti1jiFTRfOuA+YvUalkTAAqDlRCwoJ/evOqQNEUu8gta4aMj0FSyVgAVAW4hYUD6eQNhBLYxY4hW0jvVBWDoBC4C2EbGgXBxw77AUsa7/rYg9u6NZxCtorc0DfQEsjYAFQFuJWFAejrhnIMWr9HTCJkQs8Qpa70IrhLBkAhYAbSdiQTn0OuKehyZErD3TM/G2HzwiXkGLpSPuwNIIWAB0hIgFxdfd6z8ls7GMiJXiVZq8um9sPIDWcsQdls5/dQDQMSIWFFuvFcK8LCFiiVfQPuIVLI+ABUBHiVhQTN29PY6452gREUu8gvba3O/JrbAcAhYAHdeIWH3nbAmgGHqHhoJMLSBiiVfQfhcNmVqF5RCwAMhCiliniVhQGD29DhFn7QQRqzb3uupHu8QraLMLh1YEsHRdtTkBAJmYfWZf/OQD746pH34/lmPfwHDsGtkQ/7L+vNi/Yrj+/fmGJ/bFWaM7Y3h8X7zs8e/Xvw8s3Kqz1seaF28KMrd2XcQv//tDH5915UO74pbdowG0173nv8QdLFi6moAFQHaWGrG+temS+JtzXxdfP/eKuXi1cVF/7eq5kLXliQfmYtYD8aqHvxmv2vFNUQtOYM2LXzgXsc4ICuDZiFWb+3iVeAUdU7v0pwJYMgELgDwtNGKlyapbL70ytr3qytg/OBzN9KqHvxE/94O/jp/e8Y25uLW8iTAom9PO3xIDa1YHBTEXr6597XvjmtmVAbRfmrxKE1jAkglYAOQrRaw9v/sbMf5f//qYP3/rJVfGH2+9uunh6lg2jO6M1/7g/4r3ffMLsWHvroCqO/3in4o+h9wLZU/fYLzmZ94b942sD6C93rJ2OG4/9wUBLJmABUD+UsQau+PLz31/15oN8ZE3fzq+tenS6IQ0mfXW+79cf0FVbfh/vioonh0rR+Jnt/7b+kegfa7ZuC5+Z+PpASyZgAVAMTQi1vfXb4kPvvNzi75x1QppKivFrA/ec4OpLColTV6lCSyK6a7TNsVrtr43gPa5/dwXxlvWWruGZRCwACiO//6HN8T/vPnKtqwMLtZb779NyKIyVpy6Nk7Zck5QTOk//n/9givi+rMvCaA9PIEQlk3AAqAYHj4Y8YZvRvz4YGRNyKIKVp21Pta8eFNQXOke1ov/za/GaJ831NAOnkAIy1brDgDIXFHiVXL7he+I1/67/xYfedPv1291QRn1DA4ExbZ2ajx+7cFvBtB6Jq+gOQQsALJWpHg1n5BFmXn6YDn8uwe/FUDrbe7vD2D5BCwAslXUeDVfCllv+aWvxY2XXR1QFv1DK4LiG5kaj8t37wigtS4fXhnA8glYAGSpDPGqIR2dv3Hr1fHaX/2vc0Hr7QFF1t3bE129vUHxdc293vzYvwbQWhdaIYSmELAAyE6Z4tV8u0Y2xkfe9GlrhRRar/XBUnnzoz8IoLUuWilgQTMIWABkpazxaj5rhRSZ9cFy2Tw2Wl8lBFpjpKcnRnp7Alg+AQuAbFQhXjXMXys0jUWReAJh+aSIBbSGJxBC8whYAGShSvFqvrRWmJ5WaBqLovAEwvK5aPSJAFrD+iA0j4AFQMdVNV7NZxqLorBCWD5WCKF1Llsj+kOzCFgAdNTotHjVkKax0m2sbZdcGZCjNH3lCYTlkp5EKGBB62zu7wugOQQsADpGvDpauo31ySs+5kmFZKl3sD8AWDg3sKB5BCwAOqIRr763LziG9KTC9773S/H99VsCctE7tDIAWBjxCppLwAKg7cSrhUkrhW/9pa858E42BtYMBwAL44A7NJeABUBbiVeLlw68f+Cdn7VSSMc54F4+tbnXaJ832dAKAhY0l4AFQFu9/p5Z8WoJvn7uFfWVQhGLTukZGHDAvaS2rxwJoPkutEIITSVgAdA2v/LdiP8x6beepfKUQjqpf5X7V2W1t28ggOYzgQXN5V0EAG2R4tWf7QqWqfGUQnexaDcH3MvrvpEzAmiudMB9pLcngOYRsABoOfGq+Rp3sfYNOKpNezjgXk7p/pUbWNB8m/v7A2guAQuAlhKvWifdxXrrL/2Vu1i0hQPu5XTfmvUBNN/lw6ZWodkELABa5re+L161WrqLlY67f3/9loBWccC9vO63Pggt4YA7NJ+ABUBLfPKHETftCNogRay3Ou5OCzngXk61uddXz3xpAM3ngDs0n4AFQNOlePWJB4M2c9ydVulfszooJwfcofkccIfWELAAaCrxqrPScXcRi2brGxoKyufu0zY54A4t4IA7tIaABUDTiFd5SBHrI2/6/YBmGTCBVTppffAvzzo3gOZzwB1aQ8ACoCnEq7zcfuE74i3/77+KfQPDAcvRv8a/Q2V197pNATSfA+7QGgIWAMsmXuXpX844L976S38Vu9ZsCFiq/qEVQfnsWLkm7lvj/hW0wuXD1q6hFQQsAJZFvMpbekLhe9/7JRGLJRswgVVKXz3rZQE030Wmr6BlBCwAlky8KgYRi+XoG3LLpWzS/asbzn5VAM13+WrTV9AqAhYASyJeFYuIxVKkpw/2DA4E5ZKePrhj5UgAzWcCC1pHwAJg0cSrYhKxWKy+Ve5fldG2TRcG0BoXrhSwoFUELAAW5T/tFK+KrBGxvr9+S8DJDKxZHZRLOt4uYEFrjPT0mMCCFhKwAFiwFK9++XtBwYlYLNTAsAPuZXP3aZsDaA3xClpLwAJgQcSrctk/OCxicUI9AwPuX5VMOt5+7XlbA2iNy4c99AJaScAC4KTEq3ISsTiR/lXeiJXNLS+80PF2aKHLhj2BEFpJwALghP7s4Zp4VWIpYn3wnZ9z2J2jDJ4qdJRJmr66zvQVtNRFDrhDSwlYABzXd/dF/PJ3g5LzdEKOpW/IBFaZmL6C1kr3r0Z6ewJoHQELgGNK8eoN34zo6u0Kyk/EYr50/6pvyCpMWZi+gtYzfQWtJ2ABcJRGvNo7HVSIiEXDwMjqoDxMX0HrvfkUT22FVhOwADiMeFVtIhbJwBoBqyxMX0F7mMCC1hOwAHiOeEWSItYH3vm52DfgT5OramDY//ZlYfoKWm/zQF/9BbSWgAVA3cMHI979T+IVh/zLGefFe9/7RRGrgtLtq57BgaD49vQNmL6CNrho5YoAWk/AAqAer9Lk1Y8PBjwnRaxP/vxHg2rpW+WNWFn80dmXmL6CNrh82FNboR0ELICKE684kdsvfEd84goRq0pWnLI2KL7tK9fENVsuC6D1Lhv21FZoBwELoMLEKxbi1kuuihsvuzqoBgfciy8dbr9WvIK2GOnpiYuGHHCHdhCwACpKvGIxbtx6dWy75Mqg3PrXDEdXb29QbOlw+7ZNFwbQeuIVtI+ABVBB4hVL8ckrPhZ/c+7rgvIyfVV8DrdDe71lra+b0C4CFkDFiFcsx0fe9On4/votQTkNrPHUyaJzuB3a60ITWNA2AhZAhYhXLNf+weH44Ds/F7vWbAjKpWdgwARWwTncDu2V7l9d7oA7tI2ABVAR4hXNsmtkY7z3vV+KfQOmdcqkf5XHwBdZOtz+mq3vDaB93L+C9hKwACpAvKLZUsT64Ls+G5TH4KnWzorsui1brQ5Cm7l/Be0lYAGU3Oh0xOv/e028oum+tenS+MQVHw3KYWDYRF1RWR2EznD/CtpLwAIosRSv0uTVI1NdAa1w6yVXxbZLrgyKrX/NcPQMDgTFk546aHUQ2s/9K2g/AQugpBrx6nv7Alrqk1d8LL616ZKguBxvL6Z09+q6LZdbHYQOEK+g/QQsgBISr2i3D3gyYaGtcP+qkG554YVx/dmvCqD9Lh/24AtoNwELoGTEKzph/+CwJxMWVM/AQPQNmSQomnT36rrztgbQGZeZwIK2E7AASubd36yJV3SEJxMW08CI9cGiSauDb7v0nVYHoUM2D/TFRQ64Q9sJWAAl8ivfjfi7fQ620znpyYQ3XnZ1UBwrTlkbFMt1W7bGfSNnBNAZ7l9BZwhYACWR4tWf7QrouBu3Xh23X/j2oBgccC+W2888N67ZclkAnSNgQWcIWAAlIF6Rm09c8TFH3Qtgxalro6u3NyiGdPfq1y+8IoDOcv8KOkPAAig48YocOepeDIOePlgYe/oG4jVb3+vuFXRYun2VbmAB7SdgARTYb31fvCJf6aj7R978+0G+BoYFxiJIR9uv23K5eAUZuHy16SvoFAELoKA++cOIm3YEZO3r517hqHum+tcMR8/gQJC/dLT9+rNfFUDnvfkUdwOhUwQsgAJK8eoTDwYUQjrq/q1NlwR5WWF9sBAcbYe8OOAOnSNgARSMeEURfeRNn3bUPTMrTlkb5C0dbb/qlW8KIA/iFXSWgAVQIOIVRXXoHtangzz0DQ1ZH8xcilfpaPto32AAeXjLWuuD0EkCFkBBiFcU3bc2XRqfuOKjQecNrFkV5CsdbX/bpe90tB0y8+ZTPPgCOknAAigA8YqyuPWSq9zDysDK9acFeUrx6qpXvCnuGzkjgHxsHuirv4DOEbAAMideUTYfeOfn3MPqoJ6BgfoKIXlKTxy8ZdOFAeTF/SvoPAELIGPiFWW0f3DYPawO8vTBfF07F688cRDy9L51vnZCpwlYAJkSrygz97A6Z/DUU4L8pKkr8QryNNLTYwILMiBgAWToE9+viVeUnntY7ZfWBwfWeIpWbu5dsz6ufMWbAsiTeAV5ELAAMvOfdkZ8ckdXQBV85E2fjn0DnurULgMj4lVutq9cE6/Z+t4A8vWWU3zthBwIWAAZSfHql78XUBm7RjbGB9/12aA9Vp6+LshHI16N9g0GkK/LTGBBFgQsgEyIV1RVuoe17ZIrg9ayPpiXRrzasdJhaMhZWh/cPNAXQOcJWAAZEK+ouhu3Xh271mwIWsf6YD7EKyiOt6z1tRNyIWABdNifPVwTr6i8/YPD8YF3fs49rBZaddb6oPPEKygW64OQDwELoIO+uy/it/7VwXZI/uWM8+LGy/5d0HxpfbBvyJuwThOvoFjS6uBFQ27UQS4ELIAOSfHqDd+M2DsdwLNuveSq+NamS4LmWnGqYNJpe/oGxCsomLesNRUMORGwADpAvILj+8ibPm2VsMlWrj8t6Jx6vPoZ8QqK5s2nuH8FORGwANpMvIIT2zWy0SphE1kf7KxGvLpv5IwAiiOtD17u/hVkRcACaCPxChYmrRL+zbmvC5Zv1QbH2zsl3bx6+Wt/SbyCAhKvID8CFkCbPHww4t3/JF7BQlklbI4Vp6wN2s/Bdii2963zuQu5EbAA2iDFqzR59eODASzQ/sHh+OC7PhssXf+a4egZHAjaS7yCYrM+CHkSsABaTLyCpfvWpktj2yVXBksztP7UoL3EKyg+8QryJGABtJB4Bct349arY9eaDcHiDQxbwWwn8QrKwfog5EnAAmgR8QqaI60SfuTNnw4Wx/pge927Zr14BSVgfRDyJWABtIB4Bc1llXDxrA+2j3gF5SFeQb4ELIAmE6+gNawSLlx3b0+sPH1d0Hq3bLowXv7aX4rRvsEAis/6IORLwAJoIvEKWscq4cINnro2aL3rz74krnzFmwIoB+uDkDcBC6BJxCtovbRK+Dfnvi44MdNXrXftlq3xoQuuCKA8xCvIm4AF0ATiFbTPR9706dg34Ol6x9MzMBADa1YHrVGbe33ogp+Pa7ZcFkC5WB+EvAlYAMs0Oh3x+v9eE6+gTdIq4Y2X/bvg2Fac6g1Yq+zpG4jX/Mx74/qzXxVAuVgfhPwJWADLkOJVmrx6ZKorgPa59ZKr4lubLgmOtuqsM4Lm275yTT1e3b1uUwDl85a1JnshdwIWwBI14tX39gXQAVYJj9a/Zjh6BgeC5qrHq63vjftGxEEoq6vPPDWAvAlYAEsgXkHn7RrZaJXwCEPrvQFrttvPPDde/tpfih0rrWZCWV00NFhfIQTyJmABLJJ4BfmwSni4gWETac10/dmXxNte/c4Y7RsMoLx+7QzxH4pAwAJYpF/5rngFObnxsquDiJXrT7M+2CSNJw1+6IIrAii/yxxvh0IQsAAWIcWrv3oigIx8a9Olse2SK6PqVp6+Llg+TxqEaknH260PQjEIWAALlOLVn+0KIEM3br06dq3ZEFXVMzAQA2tWB8uTjrWne1eeNAjV8ZZTfO2EohCwABZAvIK87R8cjk/8/MeiqtL6IMvjWDtUT5q8et86n/NQFAIWwEmIV1AMXz/3isoedB86XcBajmu3bHWsHSrocrevoFAELIAT+PD3auIVFMhH3vTp2DdQrSfx9a8Zdrx9idK9qytf8aa4ZstlAVTP1Z4+CIUiYAEcxyd/GPEfdnYFUBy7RjbGrZdW66D70HpvwJaice/qlk0XBlA9Fw0N1l9AcQhYAMeQ4tUnHgyggLa96srKHHRPx9s9fXDx3LsCfs30FRSOgAVwBPEKii0ddP/Imz8dVTAw4ulZi1Gbe33ogp937wqIy9y/gsLpDQCeU/R4VZuuHXpNzM59nI2Ymfv2zLM/Nj576Bc9+/3nfv1MLZaiq6crunqfX7HsGjj0ZyJdg89+nPu5+q8Z6Hnu5+s/1mstk9b71qZL6wfdX/XwN6PMhl9QjUmzZkgrg1e94s1x97pNAVTb+9eN1J9ACBRLV21OAFCIeDU7F6FmD0zXI9RsilRz30+xKn17fpjKXYpZ3Y3glcLW4KHvp9jV1RvPfhS6WJ4Nozvj9j/5hRie2BdllI63rzv/ZcHJ3XXaprjqlW+yMgjU3XXeZk8ghOKpmcACiPziVYpUswdmYmbuFXNxqv6xQIHqZFJ0m5mYPeGvqU9r9c+FrTTRNXDoY/fK3nrg6h7y2xcn1zjo/sF7bogycrx9Ya4/+5L40AVXBECSJq/EKygmE1hA5XUyXqUgVY9VYzMx+8xMPVqlb3Ny3SsPTWl1DfU8F7e6h0xucbjV4/viK3/yxtiwd1eUSTrefsZPe3reiezpG4i3XfouK4PAYW55yYZ43zrTmFBANQELqLR2x6sUrGaenqxPVM3unRarWiAFrHrcErZ41mt/8H/FTf/5l6NMVq4/Ldae8+Lg2KwMAsez/eKXun8FxWSFEKiudsSr+cFq5ump+uocrVX///m+6Yj0midFrRS0UtjqGe4TtSrk6+deUbqD7o63H9+1W7bGNVsuC4AjOd4OxWYCC6ik/7Aj4sPfj5aY2TsVs3PxZGbv9KGQQrYa01rda3pFrZJ71cPfiFtvfU+UgePtx+Ypg8DJmL6CQjOBBVTPf9rZ3HjVuGM1/eRkzOyZKs2h9SpoTGul11SM138sPRWxZ+hQ1Errhz1r/FZZBt/adGlsu+TKeN83vxBF53j70W4/89z6yuBo32AAHEs63C5eQbGZwAIqJcWrX/5eLJtoVS09w73Prh721p+AWH8yIoWTDrp//Y+2xvDEvigqx9sPlw61X7fl8rj+7FcFwIk43g6FZwILqI5mxKu0Hjj99FTM7J4UrSqkcVNr+rGJ+vfra4cpaK05dCA+RS3yt39wOG699Mr44D03RFENjKwODrl3zfp426vf6VA7cFJp8kq8guLzX9xAJSwnXqVQNf3YeEzNxQvRiiQ9PTK9pudCZtJYO+w5pU/Qyty2V10Zb73vttiwd1cUkePth1x/9iXxoQuuCICFuPqM0wIoPiuEQOn91RMR7/6nWLQ0bTX1yLhD7CxaPWgNH7qf1Z2Ow1s5zEpRD7o73u5QO7A0jrdDKVghBMrtu/sifvm7C//1z01bPTkZtYnZgKVI/+6k6azGhNZzK4en9M1FrT5POuywdND9W5sumQtZ34wiqfrx9jR1de2WrQ61A4vy/nUj4hWUhAksoLRSvHrD3PvTvQsYoLImSDvVj8Gv6Z372Ocphx1StCmsKh9vT4fa09TVV846NwAWy/QVlIYJLKCcFhqv0qTM5CMHY+ZpTxKkfdJaanpNxXh9Gqu+bpjuZ1k3bJs0hXX7hW+Pt97/5SiC1RvWRxXdfua5cdUr32TqCliSt6wdFq+gRExgAaWzkHjVCFfTT04G5CStG/ac2mc6qw02jO6M2//kF2J4Yl/k7oxXXhg9gwNRFWnq6rotl8f1Z78qAJbqrvM2x+XDQwGUggksoFzu31OLN36n67jxSrgid40nHNansxrH4N3OaoldIxvj1kuvjA/ec0PkbOX60yoVr+46bVN96mrHSo+8B5YuTV6JV1AuJrCA0nj44KHJqx8fPPrn3LiiDFLM6j2936phE60e3xdf/6OtWU9hnXb+lhhYszrKztQV0Ey3vGRDvG+dEA4lYgILKIcTxavpuWiVpq6EK4qucTsrqU9mpVXDtf1i1jLsHxzOegorHW+vQrxy6wpopjR9JV5B+ZjAAgrvePFqZu9UTDw4Vl8bhDKrrxqe0hd9aTpryJ9NLVaawvrKn7wxNuzdFblZ+9IXxcrT10VZecIg0Aqmr6CUagIWUGjHilf1O1fbx2L66amAqmnczeo9fcAR+EV46/23xSf/8jcjJ2n66oyfvjDK6vqzL4lrt2w1dQU0VZq+2n7xSwMoHSuEQHEdK15ZF6TqUsCd3j1Zf4lZC3f7he+Yi1hfjlc9/M3IxcBIOVcHt69cU5+6unvdpgBotms2nh5AOTmaARTSkfEqvWkf/x/7Y2L7mHgFz2rErPF/3h9j/7g3Jn54IGaO94hO4sbLro6cDL9gQ5RNmrp6+Wt/SbwCWiJNX13myYNQWv44FiicI+OVqSs4uaMms9zMOsq3Nl0697okiymsletPi57BgSiLu07bFL9+wRVx38gZAdAq71u3th6xgHJyAwsolPnxKr0hr0+U7DNRAkuVYlbfWQOeZvisVz38jbj11vdEp512/pZSPH0wHWm/bsvlcf3ZrwqAVkrh6q7zXiRgQXm5gQUUx/x4ZeoKmuPQQw/mPqnmXofuZc2FrOG+ysasHKaw0vH2MsSr2888N6565ZscaQfawvQVlJ8JLKAQGvHq4f21mNwxFtNPTgbQOo2Y1XNKf3T1dkWVdHoKa+1LXxQrT18XReVIO9Bupq+gEkxgAfkbnY549z/NxavR2Tj4P/bXJ0aA1kqruenV1Xswetb2VepJhp2cwkrTV0WNV6N9A3HD2ZfW1wVNXQHtZPoKqsEEFpC1FK/S5NW9D07WJ6+sDELn1I+/D/dG3wtWlH7FcMPozvj6H2+Ndlv9wg0x/MLiPX0wHWlP64I7Vo4EQDuZvoLKMIEF5KsRr/7x/rGYemwigM6a/yTDst/L2jWyMW6/8O3x1vu/HO00dPppUSTWBYFOM30F1WECC8hSPV7991p8+1vPeMogZK53XX8pVwzbPYW1cv1psfacF0cRWBcEcpDC1faLXxpAJZjAAvKT4tXr75mNb/2De1dQBI2prPqK4Sl90XfmYCmmsto9hTX8gmKsDqanC/76hVdYFwQ67pqNpwdQHSawgOy8867p+PJ/fca9KyiwxophmswqsnZNYfWvGY51578scnb3aZvi2i2XWRcEsmD6CiqnVu4LrEDh/C9fnxSvoATS6u/Eg2Mx9o97Y+KHB2J2vJjTlGkKa9slV0arrT5rfeRqT99AfOiCn4+f3fpe8QrIhukrqB4TWEA2fvGO8fjCPxwMoJyKOpW1enxffP2PtsbwxL5ohZ6BgTjjpy+M3LhzBeTK9BVUkgksIA/iFZRfUaey9g8Ox62Xtm4Ka3jTWZGbr5x5blz82l+Ka7ZsFa+A7HzhJcW4GQg0lwksoOPEK6iuokxltWoKK7fpK3eugNy9f92IgAXVZAIL6KwP3TkmXkGFFWUqq1VTWCvXnxY52LFyTbz10ne6cwVk73fcvoLKMoEFdMy1d43HtX8rXgGHy3UqK01hffvTF0UznfHKC6NnsHP/d7pzBRSJ6SuotFpvAHSAeAUcT5rKSq/JR8ajby5k9awbiO7Bzg+Npyms2y98e7z1/i9HM6Tpq07FK+EKKJp0uN30FVSbCSyg7cQrYLF61x2ayOpZ09k/e9swujO+/sdboxk6NX11ywsvjGvP2xo7Vo4EQFHc8pIN8b51vm5BhZnAAtpLvAKWYnr3ZP3VNdAd/S8Y7Nh64a6RjU2ZwurE9FU60P6hC66I+0bOCIAiSdNX4hVgAgtoG/EKaJYUstKtrL4XrGj7euGxprCe6u6LH3f3x9Nzr7GuQ/88K2uzccrsZJw2Ox0vmJ047Nefdv6WGFizOtrBkwWBorv9pS+It5wyHEClmcAC2mPbvZPiFdA0tYnZ56ay2r1emKawvn7u62Ljg38X9/Wtin/oH3kuWh3PqbNT8dLpsfifJvfG+av62hKvhCugDNLhdvEKSExgAS139/apeM1/fCYAWqld64UjO78b/4//enN0/2RHLMX6/u54z9w/48+t7Y9WEK6Ashjp7Y57zz+7vkIIVF5NwAJaasfobLz8pn0xOu5LDdAeKWT1ntIXvWcONnW9sHfiQGz65p/Fhvu+Es2QAlYKWSloNcOOlWvimrlwtW3ThQFQBn+46Yz4tTNPDYAQsIBWSvHqNZ/fX/8I0AlpvbAZd7IG9z0RF3z5wzG4/4lophSvPrppZbx4sCeWSrgCyihNXW2/+KUB8CwBC2iNNHGVJq/EKyAH6eB77+n9S1ovHNr9UFz4Fx+uT2C1yoc2royfW7u4FRnhCiizFK+sDgLzOOIOtMZbv/iMeAVkY2bfdP01+cj4ou5kpcmrn/qrj7c0XiV/uHMsXrxi1YImsYQroOyuPuNU8Qo4igksoOmuvWvcEweBrKU7WX2n90fPuoHjrhemaPXyL36g6WuDxzPU0xV/fPaq497EEq6AKkjhKh1uTwfcAeYxgQU0l3gFFEFtYrY+jRVzr+PdyUoH29sVr5IDM7X4w50H41MvHjrsx4UroEqu2Xi6eAUck4AFNM3d26fEK6BwpndP1l8pZKXVwp41vfXVwWY9bXAxvndguv46f6hXuAIq5/3rRuJ9cy+AYxGwgKZI966u+ouxACiqRshKB9/P2fGn0Sk3Pd0VP/g37427120KgKpIq4O/s/H0ADges5nAsqUnDr7m8/sdbQdKoX/3Y3Hmj74enfLI6DPx3QPTAVAlaXXQ4XbgRAQsYNmuveugeAWUxuYn/8/otI33fScAqsLqILAQAhawLDf8w0Tc8PcTAVAWp+x/IDpt/Q/+RwBUgdVBYKEELGDJ0tTVh+5w9wooj76ZsRgeezg6rW/8YKwY3RMAZfeFl2ywOggsiIAFLEmKV+nuFUCZrB7bEbk4dceDAVBmafLq8uGhAFgIAQtYkmv/1t0roHzSBFYuesfHA6Cs0tTVNRvXBcBCCVjAoqW7V9vunQyAsunNKGClNUKAsrrrvBcFwGIIWMCiuHsFAMBy/OGmM9y9AhZNwAIWxd0roMyme1ZGLqYGVwRA2bx/3Uj82pmnBsBiCVjAgl1717i7V0CpHezP5x7L2MjaACiTNHWVDrcDLIWABSzI3dun6ofbAcrs4EA+AevgyCkBUCbp7pXVQWCpBCzgpNLU1VV/4e4VUH5TPSvj6dVbotPS9NX+M84KgLJw9wpYLgELOKk0eWV1EKiKp1afF5329KaXBEBZXH3Gqe5eAcsmYAEntO3eibnXZABUxcPrXx+dtvOinw6AMkhTV9e4ewU0gYAFHFeaurr2b8cDoEqmztwZT79gdXTKMxteEPte2vk1RoDlSvEq3b0a6fW2E1i+3gA4DquDQJV0vfgb0X3+HRFDT8U/v7w7fuZ3oyN2vel/jtWnnRbTExMxcfBgTI65QQgU0xdessHdK6BpBCzgmKwOAlUxP1w1HDylOx76+RXxkv/S3qev7n711nj6olfWv907MFB/rVi9Og7u3y9kAYXyOxtPj8uHhwKgWQQs4Cij4zWrg0DpHStczffQzw/Guu9NxvCjM9EOE6eeFo/8v95+1I939/TE0MhIPWSliDUx95qdac8/E8BSpHh1zcZ1AdBMXbU5ATDPh+4cixv+fiIAyuhk4Wq+FU/Pxitv2h8r9rR2nXp65cr47kc/ORexFvaGL4WsNJUlZAG5uXx4Zf3uFUCT1QQs4DDp5tWLP7M3AMpmMeFqvlZHrBSv/vn/+7EY27gpFqsxkTU9aeUb6Lx07+re8892tB1oBQELOFyKVw63A2Wy1HA1X6siVlobTPFqoZNXx5MmsdzJAjqp8cRBR9uBFhGwgOfd8A8T8aE7vPkByqEZ4epIL/kv40077P7Ya/9N7PyFt8f0yuYdOU4ha+KZZ2JyfNx6IdA2aeIqTV6JV0ALCVjAIWnq6uU37asfcAcotNP/NXpe8eWItTujFdI01ov/6kBsuG86lmL0xZti11v/bex76XnRSu5kAe1y13mbPXEQaLWapxACddf+7UHxCii2uXCVJq661v8wWungKd3x3ctq8a8vm431D0es39EVpz7WdcK/Zt+ptXhic8Tjm2pxcPOKWN3ieJX0r1xZf01PTMTEwYPWC4GW+MJLNohXQFuYwALiK9+fjLd98UAAFFKbwlVDbWwqZh7ed9SPn/JYRN9kRO+8h7juPzVibFXE9MDhv3bN+X8c3QPtfcR8405WClqmsoBm+J2Np8c1G9v7tQyoLCuEgMPtQEGt3RndL7+tbeGqYebRZ6K2dyKWo//Uy2LoRb8SnWK9EFgu8QpoMyuEUHXb7p0Qr4BiGXrq0MTVi78R7Vabmll2vEomn7onVpz1jrZPYTVYLwSWQ7wCOsEEFlRYClev+fx+AQsohr6x6HrZXdH9srvr3+6EZkxfNXR6Cmu+NImVItbE3MtUFnAi4hXQISawoMrS4XbxCsheBuEqadb0VUOnp7Dm6+7picHVq+uvRsianpwMgPnEK6CTBCyoqBSutt3rzQmQt66N90f3K75cXxvstGbGq4aJZyNWThrrhY6+A/P92lmniVdARwlYUFFp+gogW21+suBCzI62IGA9cWcMrn99dPXk9wj6NJU1NDJS/7apLKi2q844Nf7whesDoJMELKigu7dPm74C8pQOtL/iy/XJq5zU49VU81euazMHYnwuYuU2hXWkI6eypsYPRm3WGVWoghSvPr/5jADoNEfcoYJe/Jm9bl8BecnkztXxTD+4pyUBK0nTV2su+KMsp7COpzY7Oxexxk1lQcmJV0BGHHGHqtl274R4BWSl69y5cHXBHVmGq6S2f7Jl8ar+9585EAd33RYrX/i+KIqu7m63sqDk/peNp8f/5uYVkBETWFAxpq+AbGR45+pYZh7eF7WxqWi1Nef/cRZPJFwOt7Kg+Lq6u+JdLzgzvnTm2gDIiAksqBLTV0AWMr1zdSy1qZm2xKvk4KO3xdCLfiWKbP5U1vgzz9TXDE1lQXGkhze8+sz18dn1IwGQGxNYUCGmr4COyvzO1bHMPPpM1PY2/+mDx1OGKawjpdXCiYMH69NZQL56+/vj0vWnx1+dORxrursCIDMmsKAqrr1rXLwCOuf0f42eV/9ZffqqKOrTV22MV0kZprCO1DswUH+tWL36UMyyYgjZGRgaikvWnRJ/efpq8QrIloAFFZDC1bZ/au+bMIC6tC546Z9mf+fqWNodr5LJp+6JFWe9o3RTWElaTXL4HfKS7l2tWD0cr1w7LF4B2ROwoAK23Ttp+gporwKuCx5pdrQz4f/Ajptj9bn/PsosxayhkUM3dhorhlPjB6M267IFtEv6PFx1yinxohUD4hVQCAIWlJzpK6DtCrgueKR6vJrqTPif3v9ATM29+lafF1XQWDGszQ7Xj75bMYTWS5OQK4eHY1N/r3gFFIaABSVn+gpom76x6J4LV0V4uuDJzP6ks1Nj44/eFn0ln8I6Uld392Erhu5lQfM1VgbTzasX9nbX41X6CFAEAhaUmOkroF26zr0rui+4o7DrgvPVxqY6Nn3VULUprCMdeS9r6uDBGD9wwL0sWIb0lMGhtWvrn1/iFVBEAhaUmOkroOXW7ozul99WyCPtx9Op21dHquIU1rGkN9sDq1bVXzNTU/WprLRqKGbBwsyfukrEK6CoBCwoKdNXQEulI+0X3BHd594VZVKbmunI0wePpepTWMfS09cXK9esiZh7NY6/e5IhHN/8qatEvAKKTMCCkrpn+5TpK6A1SnCk/Xhmdx+MnBx8ZFv0nff/D47WOP6eiFlwuCOnrhLxCig6AQtK6tq/HQ+Apirp1NV89ftXGZkZezgmfnJPDJx2WXB8YhY878ipq0S8AspAwIIS2nbvhOkroKnSkwXTEwbLcKT9eOq3r6by+9qZbmH1r31ldPUMBSc3P2a5mUWVpGA1NDLy3L//DeIVUBZdtTkBlMqLP7NXwAKaYy5YpXCVAlbZTT+4J8uAlQye9Y5YMfdi6RpPM5yci1nTk5MBZZHWBQeHVsXg6tVH/Zx4BZRIzQQWlIzpK6BZus69K7ovuKPUU1cN9dXBTONVMvHEnTG4/vWmsJZh/tMMU8yqrxqOjYlZFFYjXKU7V13dRweqTXPR6qviFVAiAhaUjNtXwLINPRXdl/5pdK3/YVRFfX0wY7WZAzE+F7FMYTVHiln9K1fWX7XZ2XrMmpx7uZtFUaR/d1esXn3Ynav5Rubi1q2nrRKvgFIRsKBE7t4+bfoKWJYqTV011KZmorY374CVpCmsgVMvi+6BdUHzpMmVvhUr6q+kHrPSmuHcx5np6YCcnCxcJSlepcmr8/t7AqBMBCwokWvvyuvx70CBVOjW1ZFq+/N68uDxpCmsg4/eFkMv+pWgdeYfgW+sGh66mzURtVmnY+mMhYSrRLwCykzAgpJIk1f3bPcnxcDiVeEJgycy+3Rx4v/kU/dE/2mXRd/q84LWm79qmKSYNTU5Wf/odhatdrIbV0cSr4CyE7CgJK79W9NXwCLNBauuC+6I7nPviqqq377K+Hj7sYw/elv0nfvvg/Z7bjpr9Wq3s2iZ+gMH5qLpQsNVIl4BVSBgQQmk6att9/qTYGARTv/X6ElTV0NPRZUV4fbVkab3PxBTcy9TWJ115O2sxrphY0JL0GKxevv762uCjRXWheqae/3eyErxCig9AQtK4KsPiFfAwnW94rZKT1011I+3jxXj/tWRxrbfHMM/9ano6hkK8nDkuuHM1FT9le5npY+CFsey2DXBo/76udeNpwzFu1f1B0DZCVhQAjf8Q/EmCIAOGHoqerb+ScTanUHE7O7irl7PTu6O8SfujBVnvSPIU09fX/11ZNAyoUWKVv0r5mLn4OCip60O+/uEeAVUi4AFBbft3on6CiHAiXSde1d0X3BHZQ+1H0tRp68aJuYC1uD615vCKogjg1YKWDNzMSsFrRS2HIUvtxSt+gYG67et0r8HS5m2OuzvF+IVUD0CFhTcLW5fAScyF6zSEwbTkwZ5XhGPtx+pNnMgDu66LVa+8H1B8aSVw+55N7SSNJnVmNKydlh8zY5Wz/19Q7wCqknAggJLk1f3bJ8OgGNyqP24ini8/Vgmnrwz+tb+tIPuJdF4ymFjqSw96XD+2uHM9NTcj9WCfKVD7H3pf8e5j8tZDzyR31wzKF4BlSRgQYFd+7fFvd8CtFbX+XdE9/lfC45W5OPtxzL+6G3Rd+6/D8onTew0olasXl3/sTSVNTs9/fyU1ty3Z6b9YVanpEm6vsHBQ+uhcx+bNWV1PB+ei1cfXrMiAKpIwIKCStNX26wPAkcaeiq6L/3T6Fr/w+DYiny8/Vim9z8Qk6Pfjv6Rnw7Kr756OPeaP93TmNSqv9JtrfTRtFZL9PT21v9/365gNZ94BVSdgAUFdc/28kwPAE2SVgYv+98caj+JMk1fNRz88a31NUIH3avpsEmteY4Vtuo/ZmJrQVKsSqGq99kD/M28Y7VY4hXA3O93tTkBFM6LP7PX0weB53S94rboPveu4MTS8fbZx56JMho86x2xYu4FC/FczHo2bjVWE2dnZyo3uZUm2lKcanzsffbbnYpVRxKvAOpqJrCggO7ePi1eAYdYGVyUshxvP5aJJ+6MgVMvi+6BdQEnk0JNcqxD4ylspaBVD1zz49azT0WcffbHiiA9CbCrq/u51cvu3t5DH7u6DkWr3rzfDolXAM8TsKCAtt1b3jdgwCJ4yuCilO14+5FqMwfiwI6bY7WD7ixTmjzqeXb66ERvFlLgasSuJMWuSN9/dsFj9tlVxfmxq/7XHGcBpPHrUmA6nsbPpX/GrrkIVf+xZyNUI0yln2tMUOUyRbUU4hXA4QQsKBjH24Gk69y7ovsVtwULV7bj7ceSDrpPzb3SPSxotUYgagQkbyyaR7wCOFpx/0gCKsrxdqi4vrHo3von4tUSlHn6ar6x7TfXp7GAYhKvAI5NwIKCueHvrQ9CZQ09FT1v+FR0bbw/WJx0vD2mqnE7cHZyd4w/cWcAxSNeARyfgAUFcv9jM3Hf48U4mgo0V9eLvlGPV+5dLU2Zj7cfSzroPjuxO4Di+JXVA+IVwAkIWFAg1//DeADV03X+HdH96j+trw+yeGU/3n4sjYPuQDG8Z6g/fm/tygDg+AQsKJB7tk8HUCGNe1fnfy1YuqpNXzWkg+6To98OIG8pXt146lAAcGIeFgIFse3eifoTCIGKSPeufu4GK4NNUL9/VVEHf3xr/YmEXT3eHEOOxCuAhTOBBQXxlQc8fRAq4/R/de+qSeqrgxU53n4s6aD7wV2eWAk5Eq8AFkfAggJIk1df/RcBC6qg69y7Dk1euXfVFFWevmqYePLOmNr/QAD5+JmBXvEKYJEELCiAe7aLV1AFXa+4LbpfYVqmWerH2yt6/+pIBx/ZFkAeLujviVvXrQoAFkfAggK44e+9AYNSaxxrP/euoHlqBzz4omFm7OEYf+LOADorxauvnr461nR3BQCLI2BB5tL64H2PzwRQUulY+xs+FV0b7w+ay/TV4cYfvS1mJ3YH0BniFcDyCFiQuRv+fjyAklq705MGW6S+Pjhm/Xq+2syBOLDj5gDaT7wCWD4BCzL31e97AwallJ40KF61TO1p8f9Ypvc/YJUQ2mxTb7d4BdAEAhZk7O7t0/UVQqBcPGmw9Wb3TwbHllYJ0zQW0HriFUDzCFiQsW33ut8CZdN1/h2eNNhi9dXBKfH/eOqrhNutEkKrNeLVC3u95QJoBl9NIWP3bPcELSiTrrlw1X3+14LWmh0V/09mavQ7MbX/gQBaQ7wCaD5fUSFT1gehXLpe/afRfe5dQevVrA8uyNj2m60SQguIVwCt4asqZMr6IJRE31j0vP6T0f2ibwStV5++mq0FJzc7uTsO7rLOCs0kXgG0jq+skCnrg1ACQ08dOta+dmfQHrVnTF8txsSTd1olhCYRrwBay1dXyJD1QSgB8artalMz1geXwCohLJ94BdB6vsJChqwPQsE14tXcR9qndsDk6lJYJYTlEa8A2sNXWciQ9UEoMPGqY2p7xf+lskoISyNeAbSPr7SQGeuDUGDiVcfU1wfHpoKlO/DgZ6wSwiKIVwDt5astZMb6IBSUeNVRtf3i1XKleHVg+80BnNxId1fcetoq8QqgjXzFhcxYH4QCWrszet7wKfGqg2afPhgs39Tod2L8iTsDOL4Ur9Lk1fn9PQFA+whYkBHrg1BAKV6lyau+saAzahNz4X/K185mGX/0tpid2B3A0cQrgM4RsCAjX/2+x79DoTTWBsWrjqqNWr1upvoq4Q6rhHAk8QqgswQsyMhXv++GCxSGeJWN2f3if7NN73/AKiHM0zX3Eq8AOkvAgkzc/9iM9UEoCgfbs2F9sHXSKuHM2I6Aqkvx6sZThsQrgA4TsCATdzveDsUgXmVl9qnxoDXSKuEzD/6v9Y9QVY149e5V/QFAZwlYkImv/IsVGMieeJWd2pjV61aanXwyDu66LaCKxCuAvAhYkIG0OniPCSzIm3iVnXq8sj7YchNP3hlT+x8IqBLxCiA/AhZk4J7tJggga31j4lWGZj19sG0OPPiZmJ3YHVAF4hVAngQsyMBXHhCwIGfiVZ6sD7ZPuoN1YMfNAVXwm2sGxSuADAlYkIF7dlgfhFx1vfpPI9buDPJifbD9pvc/EONP3BlQZh+ei1cfXrMiAMiPgAUdlp4+ODpeCyA/XeffEd0v+kaQn9p+D77ohIOPbHMPi9ISrwDyJmBBh2271w0XyFE9Xp3/tSBPswJWx4xt/2x9pRDKRLwCyJ+ABR3m6YOQn65z7xKvMlabmLY+2EGzk0/GMw9+JqAsxCuAYhCwoIPuf2wmdox6EwZZWbszul9xW5CvmqcPdpx7WJSFeAVQHAIWdNDdpq8gL0NPRc/WPwnyVjvg6YM5cA+LohOvAIpFwIIO+sq/uOEC2egbi56fu6EeschXbWomahMzQR7Gtt8csxO7A4pGvAIoHgELOsj9K8hH96v/TLwqgNp+01c5mZ3cHQd23BxQJOIVQDEJWNAh1gchH+mJg10b7w/yV/P0weyke1gHH3U3jmIQrwCKS8CCDvnq970Jgxx44mBx1NcHx0xg5Wh8LmBNjn47IGe/snpAvAIoMAELOsT6IGRg6KnovuCOoBhqB3zdzNnY9s+6h0W23jPUH7+3dmUAUFwCFnTAjtHZuO9xR4iho9ITB9PR9r6xoBhqz5hczVlt5kDs/8HH6x8hJyle3XjqUABQbAIWdMA9263AQKd1v+LLjrYXyUzN/asCmJ18MsZ+fGtALsQrgPIQsKADHHCHznK0vXjcviqOyafucdSdLIhXAOUiYEEHuH8FHbR2p6PtBTRr+qpQHHWn0y7o7xGvAEpGwII2u/+xmfoNLKAD0t2rrX8SFI8JrOJx1J1OSfHqq6evDgDKRcCCNrM+CJ3Tff4d7l4VUG1i7uvmlPBfNI660wmNeLWmuysAKBcBC9rsbgfcoSO6zr0rul78jaB4avusDxZVOur+zIOfCWgH8Qqg3AQsaLN7dpjAgrYbeiq6L7gjKKbamK+bRTa9/4EY+/G2gFYSrwDKT8CCNkrrg6PjtQDaq+fnbojoGwuKpzY14/5VCUw8eWeMP3FnQCts6u0WrwAqQMCCNkoH3IH26nL3qtBqB0xflcXBR7bF1P4HAppJvAKoDgEL2ugr/+KOC7RVWh08/2tBcZm+KpcDD37Gkwlpmka8emGvtzQAVeCrPbSRCSxor/rqIIUmYJXLoScTXidisWziFUD1+IoPbeL+FbSX1cHiq8erqdmgXGYnd8czD/1BPWbBUohXANXkqz60iekraKO0Oviyu4Jiqx0wfVVWM2MPx4HtNwcslngFUF2+8kObuH8F7dOdpq88dbDwamMOuJfZ1Oh3YuzH2wIWSrwCqDZf/aFNTGBBe3S9+Bv1FwU3U3P/qgImnrwzDj56W8DJiFcA+B0A2iDFK/evoD3q01cUnnhVHeNzAWv8iTsDjke8AiDxuwC0QTrgDrSew+3lMbvf2nWVHHxkW0z+5J6AI4lXADT4nQDa4O7tJgmg5RxuL5dx4b9qxh65NWbGdgQ0jHR3iVcAPMfvBtAG9z/u/hW0msPt5VGbmonahK+bVVObORD7f/BxEYs68QqAI/kdAVpsx+hs/QW00NBTDreXSO2A6auqShHrmQc/E7MTu4PqasSr8/t7AgAaBCxosXusD0LLOdxeLg64V9vs5O7Y/4PrRKyKEq8AOB4BC1rMAXdoMdNXpSNgIWJVk3gFwIkIWNBi9z/mjgu0kumrcqlNzEX/KWvXiFhV0zX3Eq8AOBEBC1podLwW9zngDq1j+qp0agd9zeR5IlY1pHh14ylD4hUAJyRgQQvdZ/oKWsr0VfnUnpkMmC9FrGce+oP6gXfKpxGv3r2qPwDgRAQsaCEH3KGFTF+VUm3c3UCONjP2cH0SS8QqF/EKgMUQsKCF7t7hjRi0iumr8qlNzbh/xXGJWOUiXgGwWAIWtJAD7tA6Xet/GJRL7YDoz4k1IpabWMUmXgGwFAIWtEiKV+mIO9B89dXBoaeCcqmNWbvm5ESs4vvNNYPiFQCLJmBBi9z3uEkCaJWuF7l9VUruX7FAnk5YXB+ei1cfXrMiAGCxBCxoEU8ghBZJx9utD5ZOun9Vm/B1k4UTsYpHvAJgOQQsaJF7tpskgFboetldQQmNi1csnohVHOIVAMslYEGL3Pe4N2PQCt0bvxuUj/tXLJWIlT/xCoBmELCgBe42fQWtMbLT8faSqpnAYhlSxNr3wG/FzNiOIC/iFQDNImBBC9zv/hW0hNtX5WUCi+WqzRyoR6zJn9wT5EG8AqCZBCxogbu3eyMGrdC18f6gfMQrmunAjpvj4KO3BZ0lXgHQbAIWtMDDo7MBNFn/QRNYJWV9kGYbnwtYIlbniFcAtIKABU02Ol5zwB1aYe3OoJxMYNEKKWKN/Xhb0F7iFQCtImBBk93n/hW0hPXBEpv0dZPWmHjyztj3wIc9obBN3jPUL14B0DICFjSZA+7QGl0jJrBKaaYWtQlfN2mdmbGHY/8PrhOxWizFqxtPHQoAaBUBC5rMAXdojS4rhKVUm5gOaLXZyd2HnlA4+u2g+cQrANpBwIImc8AdWqD/4KEXpVM7IPrTHrWZA3Hgwc847t5k4hUA7SJgQRM54A4tYvqqtKwP0m6N4+4paLE84hUA7SRgQRM54A6t0dVn+qqsauNWCGm/+nH3f/4td7GW4YL+HvEKgLYSsKCJHHCHFhl6KiihmVrElLVrOiPdxUrH3d3FWrwUr756+uoAgHYSsKCJHHCHFukfC8rHAXc6LUUsd7EWpxGv1nR3BQC0k4AFTeSAO8DCOeBOLtJdrH0PfNhK4UmIVwB0koAFTeSAO8DCOeBOTmbGHq6vFE785J7gaOIVAJ0mYEGTuH8FsEiTvm6Sl7RSOLbjZk8pPMKm3m7xCoCOE7CgSXaMeiMGLTO5MiiZmZoJLLLlKYXPE68AyIWABU1y93bHiKFlplYE5eKAO7lL01h7v/erlT7w3ohXL+z1lgGAzvO7ETSJ+1fQOrWnNwblUhv3NZNiSAfe9373Vys3jSVeAZAbvyNBk7iBBS00dmpQMlO+ZlIcVZvGEq8AyJHflaAJRsdr9RfQIpMrIg6IWGViAosiakxjlflJheIVALnyOxM0wX2mr6DlZndeEJRHbdwNLIqp8aTCA9tvLt1aoXgFQM787gRNYH0Q2mDnhUFJzNTmKoCpVYpt8ql7nlsrrM0ciKITrwDInd+hoAnu3j4VQGvVnjjn0CohhecJhJRJWivc98+/Vei1QvEKgCLwuxQ0wcOjswG03uwPXhOUwKSpVcqlsVZYxPtY4hUAReF3KmiC+x73ZgzaofaDnzWFVQK1CV8zKaeihayR7i7xCoDC8LsVLJP7V9BGc/Fq9ntvDIqtNmVqlXIrQsiqTR+IVzz1FfEKgMLwOxYs045RAQvaKU1h1e9hUVxWCKmII0NWLk8tTP8c+39wXdz20Jfiqu/8QQBAEfQGsCz3mcCCtpv9xr+N7p+7PrqGng6KxwohVdMIWUn/qZdF/2mXRd/q86ITpvY/EGPbb67/MyVf+PFf1z/+x1f+/wIActZVmxPAkr31Pz0TX/0XTyGEdutauzO6X3v93LvBg0FxpCcQzvxob0DVdfevi4H1r4/+kZ+O7oF10WppZfDgY1+OiSfuOObP/+xpF8RfvPqaGOkbCgDIUE3AgmV6+U37HHGHDnnL//REfO+c/xA7pn4SFENtbCpmHt4XwPN6Vm6KvrmQ1bv6vKZPZqVwNf7knXPh6s6ozRw44a+9eM3Z8bdbf1/EAiBHAhYsV/fH9gTQfu+7uD++8LaheHhqd/zcwx8XsQpi9unxmH3iQADH1tUzNBeyttRjVs/KzdG7YlN09S4uKKUbV5Oj346p0e/E9P4HFvXXilgAZErAguVITyC8+D+YJIB2a8SrBhGrOFK8ShELWLgUtdKUVlfPyvrq4bGCVopWMwd3zH38yUknrU5GxAIgQwIWLMdXvz8Zb/2iSQJop7ds6Yu/eM+qo35cxCqGmZ37o7Z/MoC8iVgAZKbWHcCSeQIhtNeFZ/bEf3zbsd9MbepbF3+z6WOxue+0IGMz/twMiuDevQ/Gy7/+/4kdB54IAMiBgAXLIGBB+6R4dddVq2NksOu4v0bEyl9tfDqAYtg+9ni85r/9pogFQBYELFiGh0dnA2i9hcSrBhErY2n6atYEFhSJiAVALgQsWIb7HjeBBa22mHjVIGLlqTbtayYUkYgFQA4ELFii+60PQsstJV41iFgZcv8KCkvEAqDTBCxYoj3j3ohBK20e6Y7b37NqSfGqQcTKzKTwD0UmYgHQSQIWLJEJLGidFK/+9hdX1z8ul4iVj9qUu4FQdCIWAJ0iYMES7RgVsKAVmhmvGlLE+vaLPhUXDmwKOsgBdygFEQuAThCwYIkccIfma0W8ahjpWVmfxBKxOscEFpSHiAVAuwlYsERWCKG5WhmvGkSsDnPEHUpFxAKgnQQsWILR8Vr9BTRHO+JVg4jVQVPCP5TNoYj1G3Hf6EMBAK0kYMES3Gf6CpqmnfGqoRGxLlu5JWgfK4RQTtvHnpiLWB8WsQBoKQELlmDvuDdh0AydiFcNjYj13jVbgzawPgiltmdqv4gFQEsJWLAEJrBg+ToZr+b7/Fm/LGK1Qc0TCKH0RCwAWknAgiUQsGB5colXDSJWG7h/BZUgYgHQKgIWLMHohEkCWKqRwa64/T2rsolXDSIWQHMcili/Gdse/usAgGYRsGAJ7jeBBUuS4tVdV62OC8/siRyliPWrp7w+aIFJXzehSvZMPRNX/uMfiFgANI2ABYs0Ol6rv4DFyT1eNfyv6/9tfGzd2wOA5Un/tSRiAdAsAhYskvtXsHhFiVcN/3d7dxNcV3kmePy5kmULy46VBDcxlW6bQE2Xp7psDCwmqQKMKboCG4jZZQI2ZhE+qhvCEHpFbBZTM9Um7WQxJBuQCdSsmDbZzKIdLAg12Qy0DRtvcCyxSKCTKl01MRY42K0j6dqyrI/7fd9zzu9Xdeu69FHeSHDO38/7nB9dfb+I1WYXznl6K5SRiAVAuwhY0KDJKTdh0Ii8xasaEQugPUQsANpBwIIGmcCCxry0eyh38apGxGofE1hQblnE2jsdsZ47+UoAQDMELGiQgAX1G5mOV/dtHYg8E7EA2ufAyVdFLACaImBBg6qfWeAO9cji1Z4dq6MIRKw2OO+/ncAsEQuAZghY0KD3TGDBiooUr2pErBZ9IWABl4hYADRKwIIGVafchMFyihivakQsgPYRsQBohIAFDTB9Bcs7dPfawsarGhELoH1ELADqJWBBAyZMX8GS9t8xGE98a02UgYjVhHP+AQBYnIgFQD0ELGiACSxYXBav9u+6Ksoki1gvXvv9AKB1IhYAKxGwoAFjVQELFipjvKp5cMPtIhZAm4hYACxHwIIGjE2cD+CSMserGhELoH1ELACWImBBA8arAhbUiFeXiFgA7ZNFrKfe/1kAwHwCFjRgTMCCGeLVlbKI9drXn4rhvrUBQGsOffB67Hvn+QCAGgEL6lSdujDzgrITr5Z27/pb4lebnxWxANpg5MOjIhYAFwlYUKcTnkAI4lUdtg9uFrEA2kTEAqBGwII6TU45Pki5iVf1E7EA2kfEAiAjYEGdxiYcH6S8nvjmGvGqQSIWQPtkEeumNx6P6rkzAUA5CVhQp7GqI4SU054dq+PQPSJMM2oRa8vA1QFAa45PfhC7fv2MiAVQUgIW1GlswhFCyieLVyO7h4LmiVgA7SNiAZSXgAV1Gq8KWJSLeNU+mwc2ilgAbSJiAZSTgAV1GhOwKBHxqv1ELID2EbEAykfAgjpUpy7MvKAM7ts6IF51SKkjVl8lANopi1g3vfFYjJ35OAAoPgEL6jBu/xUlsX1Tf7wkXnVUaSNWv0sOoP1Of/pR7Hr7GRELoARcTUIdJkxfUQJZvBrdtz6GB03KdJrjhADtI2IBlIOABXUYr34RUGTiVfeVLmINuOQAOkfEAig+V5NQhzFHCCkw8ap3TGIBtI+IBVBsAhbUwRMIKaotw33iVY+JWADtI2IBFJeABXUQsCiiLF4de1i8SkEZIlbFEUKgS0QsgGJyNQl1mDxriTvFUotX2TtpyCLW/7/uf8b2NZujkDyFEOgiEQugeFxNQh1OfGSJO8UhXqVruH/tzCRWESNWxY8b0GUiFkCxuJyEFVSnTF9RHOJV+gobsUxgAT0gYgEUh6tJWMG4JxBSEOJVfhQyYq32cwf0xmzE+mGcqJ4KAPLL1SSsYMIEFgUgXuVPLWLdu+6WKIQ+P3tA75z+9OPpiPUPIhZAjrmahBWMV+2/It/Eq/zKItZrf/lUPLjhtsi7Sp+nXQK9NXHuExELIMfczcAKxhwhJMfEq2J48dpH8h+x+qcDlogF9JiIBZBf7mhgBWNVAYt8Eq+KpQgRq9IvYAG9J2IB5JO7GliBgEUeiVfFlPuINdAfACnIItZNxx6Ll8ePBgD54M4GVjB51hJ38mV4sBJHvrtOvCqoLGL93Vfujlwa8DMJpCO7wnvo3edFLICccCUJKzCBRZ5k8Wp03/rYvsmkS5H90zUPxLMb74+8qQhYQGJELID8cCUJK6hOmcAiH8SrcvnR1ffnLmIJWECKRCyAfHAlCcswfUVeiFfllLuItdrPJ5AmEQsgfQIWLGNsQsAifeJVueUqYlniDiQsi1h7pyPWcydfCQDSI2DBMianBCzS99LuIfGq5PISsWaOEPZVAiBlB06+KmIBJEjAgmWMTdh/RdpGpuPVfVsHAnITsfoFLCB9IhZAegQsWEbVBBYJy+LVnh2rA2pyEbHWCq5APohYAGkRsGAZlriTKvGKpaQesUxgAXkiYgGkQ8CCZQhYpEi8YiUpR6zKGvvagHwRsQDSIGDBMibP2oFFWvbfMSheUZdkI9ZVqwIgb0QsgN4TsGAZJrBISRav9u+6KqBeWcR68drvR0oqawQsIJ9ELIDeErBgGdUpE1ikQbyiWQ9uuD3BiOUYIZBPIhZA7whYsATTV6RCvKJVyUWsQVNYQH6JWAC9IWDBEuy/IgXiFe2SUsSqCFhAzmUR66n3fxYAdI+ABUuYcHyQHhOvaLcsYr329adiuG9t9FJlSMAC8u/QB6/HvneeDwC6Q8CCJYxXvwjoFfGKTrl3/S3xq83P9jRiVVbZgQUUw8iHR0UsgC4RsGAJYxN2YNEb4hWdtn1wc28jVn/FInegMEQsgO4QsGAJnkBIL4hXdEuvI1ZlaCAAikLEAug8AQuWIGDRbeIV3dbLiGUCCyiaLGLd9MbjUT13JgBoPwELljBWdYSQ7nnim2vEK3qiFrG2DFwd3VRZvyYAiub45Aex69fPiFgAHSBgwRImz5rAojv27Fgdh+7p7VPhKLeeRKxsD9aAyxCgeEQsgM5w5QhLcISQbsji1cjuoYBe2zywsesRq7J+dQAUkYgF0H4CFizBEUI6TbwiNd2OWPZgAUUmYgG0l4AFizB9RaeJV6SqmxHLHiyg6LKIddMbj8XYmY8DgNYIWLCI8QnTV3TO7VtWiVckrWsRK9uDtXYgAIrs9Kcfxa63nxGxAFokYMEiJkxg0SHbN/XHkf+6LiB13YpYlaFVAVB0IhZA6wQsWMTklAks2i+LV6P71sfwYCUgD7oRsUxgAWUhYgG0RsCCRdiBRbuJV+RVpyPWTMDq83sBlIOIBdA8AQsWMWYHFm0kXpF3nY5YfcOWuQPlIWIBNEfAgkWYwKJdtgz3iVcUQi1ibV+zOdqtsn51AJSJiAXQOAELFiFg0Q5ZvDr2sHhFcXQqYlXWrHKMECgdEQugMQIWLGKs6gghranFq+wdimS4f237I1Z/xRQWUEoiFkD93FkBtJl4RdF1ImLZgwWUlYgFUB93V7CIcUvcaZJ4RVm0O2I5RgiUWRaxbjr2eJyongoAFucOCxbhCCHNEK8om1rEunfdLdGy/oopLKDUJs59Erve/gcRC2AJ7rIA2kC8oqyyiPXaXz4VD264LVplDxZQdiIWwNLcacECpq9olHgFES9e+0jLEauydsAxQqD0RCyAxbnbggUmz14IqJd4BZe0I2L1fXUwAMpOxAK4kjsuWGBiSsCiPuIVXKnViNX35asCgNmIddOxx+Ll8aMBgIAFV5iccoSQlYlXsLQsYv3dV+6OpvRXZo8SAhDZP6s+9O7zIhZACFhwhaoJLFYwPFiJI99dJ17BMv7pmgfi2Y33RzP6NprCAqgRsQBmufuCBcYmTGCxtCxeje5bH9s39QewvB9dfX9TEWtmAmvAJQpAjYgFIGAB1E28gsY1G7H6htcEAJeIWEDZCViwwFjVBBZXEq+gec1ErJll7n2VAOCSLGLtnY5Yz518JQDKRsCCBapn7cDicuIVtK7hiNVfib6vDgYAVzpw8lURCygdAQsWqH4mYHG5Q/esFa+gDRqNWKawAJYmYgFlI2DBApMmsJhnZPdQ7NmxOoD2aChi9Veist7vH8BSRCygTAQsWKA6JWAxS7yCzmgkYvVtXBsALE3EAspCwIIFLHEnI15BZ9UbsSoDfVHZ4ImEAMsRsYAyELAAFhCvoDuyiPXjrz2w4teZwgJYmYgFFJ2ABfOYvmL/HYPiFXTR33/57njx2u8v+zWmsADqI2IBRSZgAczJ4tX+XVcF0F0Pbrh9xYg1M4XliYQAKxKxgKISsGCesQkTWGUlXkFvrRSxsimsvq8OBgArE7GAIhKwgNITryANK0Wsvi9fZQoLoE5ZxNr3zvMBUBQCFswzXv0iKBfxCtKSRazXvv5UDPctsri9vxJ9f2GhO0C9Rj48KmIBhSFgAaUlXkGa7l1/S/xq87OLRqy+Lw9GDLh8AaiXiAUUhStAmMcOrPIQryBt2wc3Lxmx+q9dFwDUT8QCikDAAkpHvIJ8WCpiVdYORGXd6gCgflnEekjEAnJMwIJ5xqomsIpOvIJ8WSpi9X1tyEJ3gAYdno5YO954LKrnzgRA3ghYQGmIV5BPWcR65xv/I7YMXH3xY5WBPgvdAZpwYvJU3PHrH4pYQO4IWDCPCazieuKba8QryLHNAxtnJrHmR6xsoXt2nBCAxohYQB4JWEDh7dmxOg7dY1ID8m7RiJUtdHeUEKBhIhaQNwIWzDN59kJQLFm8Gtk9FEAxLIxYjhICNK8WscbOfBwAqROwYJ7qlIBVJOIVFNPCiOUoIUDzZiLW2yIWkD4BC+YRsIpDvIJiuyJiOUoI0LSxTz8WsYDkCVgwj4BVDNs39YtXUALzI5ajhACtEbGA1AlYMEe8KoYsXo3uWx9AOcyPWNlRwr4NawKA5ohYQMoELJgjYOVfLV4NDzpGBGVyWcS6ZihiwOUNQLNELCBVrvBgjicQ5pt4BeV2MWINboz+zRvswwJogYgFpEjAgjkTJrByS7wCMrWIdeO666Lva/bgAbRCxAJSI2ABubZluE+8Ai6qRawdf/Gfou8rgwFA80QsICUCFsyZnDof5EsWr449LF4BlxvuXzsbsf7qP0dl7UAA0DwRC0iFgAVzLHHPl1q8yt4BFqpFrJtu+BtL3QFaJGIBKXBFB3OqZ4OcEK+AesxErOt+FDf99TZL3QFalEWsHcceixPVUwHQC+7+YE7VEcJcEK+ARmQR643r98fuv9klYgG0qHruT3HH28+IWEBPuAMEckO8ApqRRaz/c8Mz8dBf3xMAtEbEAnrFXSDMGauawEqZeAW06qWtfx97b/h2ANAaEQvoBXeCQPLEK6BdRrb9QMQCaAMRC+g2d4Mwp3rWUwhTJF4B7SZiAbRHFrGyxe4vjx8NgE5zRwhzqp8JWKkRr4BOySLW/q0PBACt2/vu8yIW0HHuCoEkiVdApx3Y+j0RC6BNRCyg09wZwpzxCUvcUzE8WIkj310nXgEdJ2IBtI+IBXSSu0MgKVm8Gt23PrZv6g+AbhCxANoni1g//eBIALSbgAVzqlN2YPWaeAX0iogF0D5Pvv/zeO7kKwHQTgIWzBGweku8AnpNxAJonwMnXxWxgLYSsIAkiFdACrKINXLz0wFA60QsoJ0ELAjTV702sntIvAKSsXfzXTF668EYHhgKAFojYgHtImBBCFi9lMWrPTtWB0BKdm7cFsfv/FlsWXtNANAaEQtoBwEL6BnxCkhZFq9GbzsoYgG0gYgFtErAgmljE+eD7hKvgDzI4tXxO1+InVdvCwBaI2IBrRCwgK4Tr4A8GR5YNzOJ5QmFAK0TsYBmCVhAV+2/Y1C8AnIpe0KhiAXQOhELaIaABdMmpxwh7IYsXu3fdVUA5FUWsY7vesFeLIAWiVhAowQsCE8h7AbxCiiKG4evt9wdoA2yiPXQO88HQD0ELKDjxCugaLJ4dfrbv4gnb/hOANC8wx8eFbGAughYEJ5C2EniFVBkh7Y9Mv16NABonogF1EPAAjpGvALK4Mkb7puZxnKkEKB5IhawEgEL6AjxCiiTLF4dv/OF2LP5rgCgOSIWsBwBC8IS93YTr4AyGh5YF4dvftqRQoAWZBFrxxuPRfXcmQCYT8CCELDaSbwCys6RQoDWnJg8FXf8+ociFnAZAQtoG/EKYFbtKYX7tz4QADROxAIWErBgWvWsCaxWPfHNNeIVwAIHtn4vRm89aBoLoAkiFjCfgAXTqp8JWK3Ys2N1HLpnbQBwpZ0bt8XobQcteAdoQi1ijZ35OIByE7CAlmTxamT3UACwtGwCK1vwPjL9Mo0F0JiZiPW2iAVlJ2ABTROvABqzd/NdprEAmjD26cciFpScgAXTxifOB40RrwCaYxoLoDkiFpSbgAU0bPumfvEKoEXZNNbxO1+IJ2/4TgBQHxELykvAAhqSxavRfesDgNYND6yLQ9seidPf/oVpLIA6iVhQTgIWTKtOeQphPWrxaniwEgC0Txavsoh1aNuj01HLhCvASkQsKB8BC0LAqod4BdB5T95wXxy/82eWvAPUQcSCcqlcmBZQcn3PTgRLE68Auu/13/0mfvD+z2du0ABYWjbFOnrrwdgy5Cg2FNgFAQtCwFrOluG++NfHvyReAfTI4fGj8dzJV4QsgGWIWFB4FxwhpPQcH1xaFq+OPWzyCqCXsqcVjt520LFCgGU4TgjFZwKL0hurno9v/HgyuFwtXmXvAKQhu0E7cPKVeHn8aABwpezprqO3/mPcOHx9AIViAgu4kngFkKbsiMzhm5+ePSaz1jEZgIWq5/4Ud7z9TJyongqgWNydApcRrwDSt3Pjtjj97V/EyHTMErIALidiQTG5Q6X0xibOB7PEK4B8yfZjCVkAVxKxoHjcpQIzxCuA/KqFrEPbHhWyAObUItabf3gvgPyzxJ3Se/P0n2PXS59EmYlXAMWRLXo/PH40Xh7/l5k/AxAz+wM9zRVy7YKARemVPWCJVwDFJGQBXE7EglwTsOCXJz+P7/zvM1FG4hVA8QlZAJeIWJBbAha8fPyzeOifP42yEa8AyiWLV2/+4f147uQrQhZQaiIW5NIFd65QQsODlTjy3XXiFUCJZMvdPbUQIGLvu8/HTz84EkC+uHuFksni1ei+9bF9U38AUE5CFlB2T77/85mJVCA/BCxKr3o2SkO8AmC+WsgavfVg3LfpWwFQJgdOvipiQY6sCii56tT5KAPxCoCl7Ny4beaV7cY6MH0z9/L40QAogyxiZfZvfSCAtJnAgpIQrwBYSXacMFtu7HghUCYmsSAfBCwogZHdQ+IVAHVbuPB959XbAqDIRCxIn4AFBZfFqz07VgcANCMLWaO3HYzfTscsj50HikzEgrRVLkwLKLGH/vlMvHz88ygi8QqAdsv2ZL35h/dnbvKyPwMUzYGt37MTC9JzQcCi9IoasMQrADotC1mHP/wXS9+BwhGxIDkCFhQxYIlXAHRTbSrrpx8ciROTpwKgCEQsSIqABUULWPvvGIz9u64KAOiF49VT8dNTR+Kt6aDliCGQdyIWJEPAgiIFLPEKgJQcHj8av/zdb+L13/8mAPJq71/dFSO3PB1ATwlYcMdLn8Rbp/8ceSdeAZAqRwyBvBOxoOcELChCwBKvAMiLLGb9ZDpkZZNZjhgCeSJiQU8JWJD3gCVeAZBXtacY2pcF5IWIBT1zYVUAuSVeAZBnOzdum3llxCwgDw5/eHTm/dD2R2N4YCiA7jGBRenldQJLvAKgqMQsIHU3brg+Rm87KGJB9zhCCDf9r3+PEx99EXkiXgFQFmIWkCoRC7pKwIJv/HgyxqrnIy/EKwDKKotZr//+NxbAA8kQsaBrBCzIU8ASrwBg1onqqXjrj9NBazpmvTn9DtArIhZ0hYAFeQlYe3asjpHd/qcIAAtl01jZdNYvZ2LWe1E9dyYAuimLWEf+y/7YMnRNAB0hYEEeApZ4BQD1szcL6IUta6+J0VsPiljQGQIWpB6wxCsAaF4WsLLJLEcNgW4QsaBjBCz4yn+vRnUqzV8D8QoA2qu2CD6bzjoxeSoA2k3Ego4QsKDv2YlIkXgFAJ1V252V7c1y3BBoJxEL2k7AghQD1vZN/XH8sS8FANA9tScb1qKWZfBAK0QsaCsBC1ILWFm8Gt23PoYHKwEA9E4Wst6bPDWzPys7bihoAY0SsaBtBCxIKWCJVwCQLkELaIaIBW0hYEEqAUu8AoB8mX/kMAtadmgBSxGxoGUCFqQQsMQrAMi/LGBlUSt7yuF71d96yiFwGRELWiJgUW5j1fPxjR9PRi9tGe6Lf338S+IVABRMdsRwdkrrvYtTWo4dQrmJWNA0AYty63XAyuLVsYfXz7wDAMWXBa0Tk7PTWW/NRS2gXIYH1k1HrH+MG4evD6BuAhbl1suAJV4BAJnacvjsfeYYoqgFhSdiQcMELMqtVwFLvAIAllI7eihqQbGJWNAQAYty60XAEq8AgEbNj1rHp1+WxEMxiFhQNwGLcut2wBKvAIB2yqJWNqH15h/fn45apyyKhxzKItbIzf8t7rv2WwEsScCi3LoZsMQrAKAbHEGEfDp889OxZ/NdASxKwKLc3jz959j10ifRaeIVANBrtWmtLGydqP5W2IIEiViwJAGLcutGwBKvAICUCVuQFhELFiVgUW6dDljiFQCQV1nYyo4jZmHrdBa47NiCrhGx4AoXVgXQEcODFfEKAMit2lPRdm7cdtnHazu2quf+dHFqK/uzuAXts/fd52d+r5644TsBzDKBRal1agIri1ej+9bH9k39AQBQFgvj1tiZf4uxTz8St6BJP9n2iIgFsxwhpNw6EbDEKwCAxS08ljh+5uOZnVtZ5BK4YHHHd71wcSISSkzAotzaHbDEKwCA5syf3hqfjloCF8zaefW2GL3tYEDJ2YEF7SJeAQA0b3hg6Ip9W/NlAWvszGzIyoJWFrlqRxRn4pcnJ1JQb/7x/Zmf8ex3BMpMwKLUJqfOR7uIVwAAnZPdvF86RrV46FopcpnkIq9++bv/F3s2/21AmQlY0AYju4fEKwCAHqsncmXG5o4m1o4rZu9CF0DaBCxKbfum1n8Fsni1Z8fqAAAgH7YMXTPzWkkWurK4NX+ia2L6z5OfX4pcM/Fr+uPQSRtWrwsoOwGLUtsy3Be3X7cq3jr952iGeAUAUFyzkasWurYt+7Xzjy/ORq8/XRG8MrNL6QUvGrNl7crBFYpOwKL09u5Y01TAEq8AAKi5/PhifeZPeM2PXrOf+7eLHzPpVW5ZvLpxQ2M/W1BEAhall0WoN0+fi5ePf17394hXAAC06vIJr/pl4WvmvRa75qa75sev+R+fH8js9sqfA1sfCCCicmFaQMlVpy7ED/7vp3VFrEN3r40nvrUmAAAgj2aC1ueXB61a4Jqci12ZWgirfe7i94phXbN3810xcvPTAcQFAQvmyQLWc8fOxlj1/BWfu33LqvjJPWs9bRAAAOapBbHM/GOO88PX+LyP1/aCLfyaxb+/vJFsz3S8+sm2R2eOpwICFizqxO+/mIlYk1PnY8NgX+y8blUMD1YCAADojfmhLLNwJ9jCGDZ/muzi98xNlV32sbmjllf8XQu+99Lf0dmotvPqbbF389/OBCzgIgELAAAAWlXbTbbo51ZYwF+LZdmy9tndaMACAhYAAAAASbvQFwAAAACQMAELAAAAgKQJWAAAAAAkTcACAAAAIGkCFgAAAABJE7AAAAAASJqABQAAAEDSBCwAAAAAkiZgAQAAAJA0AQsAAACApAlYAAAAACRNwAIAAAAgaQIWAAAAAEkTsAAAAABImoAFAAAAQNIELAAAAACSJmABAAAAkDQBCwAAAICkCVgAAAAAJE3AAgAAACBpAhYAAAAASROwAAAAAEiagAUAAABA0gQsAAAAAJImYAEAAACQNAELAAAAgKQJWAAAAAAkTcACAAAAIGkCFgAAAABJE7AAAAAASJqABQAAAEDSBCwAAAAAkiZgAQAAAJA0AQsAAACApAlYAAAAACRNwAIAAAAgaQIWAAAAAEkTsAAAAABImoAFAAAAQNIELAAAAACSJmABAAAAkDQBCwAAAICkCVgAAAAAJE3AAgAAACBpAhYAAAAASROwAAAAAEiagAUAAABA0gQsAAAAAJImYAEAAACQNAELAAAAgKQJWAAAAAAkTcACAAAAIGkCFgAAAABJE7AAAAAASJqABQAAAEDSBCwAAAAAkiZgAQAAAJA0AQsAAACApAlYAAAAACRNwAIAAAAgaQIWAAAAAEkTsAAAAABImoAFAAAAQNIELAAAAACSJmABAAAAkDQBCwAAAICkCVgAAAAAJE3AAgAAACBpAhYAAAAASROwAAAAAEiagAUAAABA0gQsAAAAAJImYAEAAACQNAELAAAAgKQJWAAAAAAkTcACAAAAIGkCFgAAAABJE7AAAAAASJqABQAAAEDSBCwAAAAAkiZgAQAAAJA0AQsAAACApAlYAAAAACRNwAIAAAAgaQIWAAAAAEkTsAAAAABImoAFAAAAQNIELAAAAACSJmABAAAAkDQBCwAAAICkCVgAAAAAJE3AAgAAACBpAhYAAAAASROwAAAAAEiagAUAAABA0gQsAAAAAJImYAEAAACQNAELAAAAgKQJWAAAAAAkTcACAAAAIGkCFgAAAABJE7AAAAAASJqABQAAAEDSBCwAAAAAkiZgAQAAAJA0AQsAAACApAlYAAAAACRNwAIAAAAgaQIWAAAAAEkTsAAAAABImoAFAAAAQNIELAAAAACSJmABAAAAkDQBCwAAAICkCVgAAAAAJE3AAgAAACBpAhYAAAAASROwAAAAAEiagAUAAABA0gQsAAAAAJImYAEAAACQNAELAAAAgKQJWAAAAAAkTcACAAAAIGkCFgAAAABJE7AAAAAASJqABQAAAEDSBCwAAAAAkiZgAQAAAJA0AQsAAACApAlYAAAAACRNwAIAAAAgaQIWAAAAAEkTsAAAAABImoAFAAAAQNIELAAAAACSJmABAAAAkDQBCwAAAICkCVgAAAAAJE3AAgAAACBpAhYAAAAASROwAAAAAEiagAUAAABA0gQsAAAAAJImYAEAAACQNAELAAAAgKQJWAAAAAAkTcACAAAAIGkCFgAAAABJE7AAAAAASJqABQAAAEDSBCwAAAAAkiZgAQAAAJA0AQsAAACApAlYAAAAACRNwAIAAAAgaQIWAAAAAEkTsAAAAABImoAFAAAAQNIELAAAAACSJmABAAAAkDQBCwAAAICkCVgAAAAAJE3AAgAAACBpAhYAAAAASROwAAAAAEiagAUAAABA0gQsAAAAAJImYAEAAACQNAELAAAAgKQJWAAAAAAkTcACAAAAIGkCFgAAAABJE7AAAAAASJqABQAAAEDSBCwAAAAAkiZgAQAAAJA0AQsAAACApAlYAAAAACRNwAIAAAAgaQIWAAAAAEkTsAAAAABImoAFAAAAQNIELAAAAACSJmABAAAAkDQBCwAAAICkCVgAAAAAJE3AAgAAACBpAhYAAAAASROwAAAAAEjaqunXhQAAAACANF34D2axEdyDQlzAAAAAAElFTkSuQmCC;labelBorderColor=default;" vertex="1" parent="1">
          <mxGeometry x="305.95" y="126" width="55" height="55" as="geometry" />
        </mxCell>
        <mxCell id="Sz6BR0hqmBrMi9TMJiZ0-7" value="" style="shape=image;verticalLabelPosition=bottom;labelBackgroundColor=default;verticalAlign=top;aspect=fixed;imageAspect=0;image=data:image/png,iVBORw0KGgoAAAANSUhEUgAAAUwAAAC0CAYAAAD/2BWfAAAACXBIWXMAABYlAAAWJQFJUiTwAAAAAXNSR0IArs4c6QAAAARnQU1BAACxjwv8YQUAADXZSURBVHgB7Z0HnBvFucC/md2Vrkm6O9/ZBmx6C8VADKEkj5iQFzA21yUXwPTQCaHmYXg5Ai+BkEBiQiiBQCBxkc7XbDAdQ0JLTEICxnRMTLF99p2kq5J2d943qztwkXZX13x+7/vzEz7tzu6OZme++eb7vpkBIAiCIAiCIAiCIAiCIAiCIAiCIAiCIAiCIAiCIAiCIAiCIAiCIAiCIAiCIAiCIAiCIAiCIAiCIAiCIAiCIAiCIAiCIAiCIAiCIAiCIAiCIAiCIAiCIAiCIAiCIAiCIAiCIAiCIAiCIAiCIAiCIAiCIAiCIAiCIAiCIAiCIAiCIAiCIAiCIAiCIAiCIAiCIAiCIAiCIAiCIAiCIAiCIAiCIAiCIAiCIAiCIAiCIAiCIAiCIAiCIAiCIAiCIAiCIAiCIAiCIAiCIAiCIAiCIAiCIAiCIAiCIAiCIAiCIAiCIIj/CzDYWRGCVUc6vmkyZT5+m8xMuPU9ti78duiQJBAEQYwAO6XAnLF409c0xXML/nkKSs68geMCxDtc8PObQv6/AEEQxDCjwk7Ed8MfBoqg7Fco5itQPJZue54D20UIc1epfQJjAgiCIIaRnULDnHnfZwVKqe8KFIRXMwYlmdKgdFysJIwfNZ5e+knFwvYp3KP8Eg8bQuVXtlT53gaCIIghMqYF5hlPisJ4R/xMUOBGzOjELMlWoS55Y1Mo8MT0x3smebpS81Gofh+kwmnBkihol3YbyaufnlP+ORAEQQySMSkwpz0v1OK2+Bz888eYw70hcz5jBsD1nWX++8vbgCd47Adov7wKdc0JWW77cnGX/8SHz2Z9sBMRDL/l6eOTqhRgSvoIN5gwMpobTDzOuKYPfOemYQrgSabwBEAqaSiiw+Cla5dXsB4gCCJnxpzArArHj0XnzR2MsaNQ+CnbJWCgCwFhT57/2sip7LOKpfFvcsO8A62WR0nDZcabMraUM/WKxtqCTyubeyazVHJ/TQRWRkLMgDFOzdKeSaapv7+lc2tQyHIzRQILqB3L9h+maTzw6T4lT7x+JEsBQRCuGBMCc1q9UH2Hxo9QTPYjAWZ1FsFn4iD7NQ7aNSj4XpKCDxKpW1DvOg0NmEqm++J93sNb3dlU57s32NqzeyqROh9vfBWqZ/l4+n287uaevt7Gp+ZN7IYxSlpgpj7AP70w7IhPhcluZxr7U3ONfzMQxE5I5dJO+U8dGPo0xnk5/h0AwbC9CByNMdm2N5nC/PCINb+6tb6+3oQhsMMF5syG2H4oKK9hXJyNAiyj114AW49D0vpP9ir6/d6vf1RglJafZ4L4bzzlz3xXgcNStlQT2lXhYP7nqLVOx/vfjcf2zJB2pc74Rcvr/O/AGKRy0ebJTFWlwPTAiCFWCfBc2hIseA0IYiejKhKTcgxHYbCPTTKULt79mqvzPoQhwGEHMWO5KKlsiP5cFeZfGRPnZxSWjOmmyX7ZE09MbQz67pv8cfy7qdKyZ1FY/gKyCEvUHj8Ew6w+fLV/blv3hs1VkfhdjENLZmEpL2Df9JiwP4xV8vNlrzbCHRs7kkHyOexYzrJCsghiZwHtc2sO8jJs+Ls7JTUTPRNhiIx+HGa94FWHxC8WvfFLcMh8oI0seBkH4VfH1/j+ph6kF1ZFovfisdPwU5QlvWzpd3Gu3d4YDHyaDHdNLGalS/H4cdkegOnXG5Ca1xwc94z8XhOOzRBcHMqYuaixtvQTGAMYyT40OSqjIMRYATDznsqGuIm9yyNAEDsB0+/CmqtoHhif0JzSYjsKwBAZNYEZDG8sSoFaDSz2UxRtk7JLAPEvNDLc0hosjlje8kM60Uap4HAaCjMmR2cG9i6vCmFc3BwqfXPgcCH0Kfi8VEaBjJorpn+Sc8/5rbWBL04Jb5yoRaK/xedWS7ErhFJfHY49oIL2s0io4DPYoUhfT2qUtD6Wx4S4FzXN95tD/leAIMY4yp6Wr0KBhIvEKhTDEBn5ITkO8eoiXd9Lsbxl+LtQc2GTMqZjrFMwdjv0dH1HCsvp4c7ykk2xBrz+95BNWAK0CQOu0sST01qCJW+hLWN6VUP0vlMXx46JhMo+6xWsBtPchPfo3eoaARcdsbq44pM9CjZVRKKzPeB5Ewu9eos0XpSblyQh+UplODoLdiAepY+NqqWZMbQBGA9MXyBGwMlEEMMLNzfhp11xlVZnhTBERlRgVizsmoI2xBUpMJ5AyTnNJukKxpNHt9T5r20+c5LlrfWm+nZHZ89/ZMkjmjHFIl34j2iZFVgQU6ePq2yMP4zPaEQN8fuKAi9XNcTuyjP0wuZgoF7hxlHpcyh8Vc83WoL+B17bF4omr+28F6XRQhQSZZkyhWPhyXjdGbCDEUI4vichjTlCrEXZKp1Xa/HTbh0bFPwg78T4+UAQY5yeZFx+3MkxbuTDEBkR3aUyvPkgzN18xvhc24RM/JOZ4sqmUMlzx4ZF/kQen28aIprc0HbXisv3S9Q0RPc2gS1HafC1LTL8Vzx2NQq9PwfDQkmy2Hko9H6Kp7abW84YtIMwz28KljRueVzaKk0Gv8E/97TJnYF3uO098e+b5ApIleHOgzgXZ+nceGxZTckLMErULO3dwzSTH4PDu0LheGFLsPi+LY9Nf1x48/qiB4KpHitM4yTUmiuzxqpud0PxuRZ5avdIJDTmY1WJ/79UNUqdQJSB0dnmkFQa2/6rKVh8GwyBYRWYFS1dE1hKv4oJdiV+tVGTxWeY5sGOt/03y28lB3fOEMy8G3/SbunT5iuc553eWJf/UTDcHkgy9VrOoMYw2d2toSIZHiSqmqL7MB0eRC3029kfIwuTLWoOBSzBXdHc5mO652qULjfaep6FiKFYQUFbHAmGw4rOpgfR5nkfyhrLM4+mg5cUxm5srClaOdKLfJwa7thLYfwjuzSYgfXoFzrEKZayIhw/AIX+HXjBKeAKfkJz0LcSXCOAa8COvx+85YVdvl7gHtWIa9zwCsgXhmKoPV1F/u4VpzA3FqcRQIAnINjJj/SMF7qxOzfEHgqw3sZQ4DG3d8BOSP7jVbuiuzKFH8AFlGEN4DqYMQ8zP+gpKP1gx/2+sUN9fT0YXOOrD75igmBGMUsm8kHzKPId6MmUYIqSMHoh1rV7ycaVJwx+9l3F4nbZkr/FufJnp7RCmLfE3i6+aeWPURkaZLsdFoF51kMdxdEiOJcBv15k0PS2IInlFeaKcYP0QldGYkfjr7gFh77f3T4p+0yI1FUtoXFLrK/9KxBVPNjm4z4vDhfNn+D37DYJBlGUbLc0B/1yEQ6oCncdjra53+Kfx4It4nMUwjUtwcBr0lGVBO0a1JRvgG1NA0LgS2YRUP0/bK5hIxb0HUSBmXIQmFgwb6rCd3QkxHqd7lf10MfFoqj4j/iuZjilRVPAf7WEim/Ndr6+XoDJBF/ztU3jdVM7DhR2LL7//fDU3pirCXgHn3QkSfUXM4lChHXgsY343tbikb/qDJqOfOuO93INJq5otAKVg4qJphbBVBPlIFYNFZ+tSOGF/xqc83aRMn/XPKfYirsLLpOzQcUkvU+/Hc+fiF/K0z+SRdDBFXJ65szWz2Q5FyjJoiAahM7Ep/xHhlC4JPblazBdoxFL3tl6brmV0apwTP7zDSyEaiZM7FKYirVZQ6VBZczUMMuqMIWGnd6S5jp/8/bPlsUnCpRU95X4UkrAMDSO9zDkPRheK/Ba/ADj/058seEGOTrL9jvOel4aakR+bHP8Tnwf6AQxDXyFKRMbm6Iw/Bd0vFfK5Cz2vrnu1tzXlxUQ2NNgJ94aPw7vcSHmSdazkixJk4Kzd/CdLed9id80nlH+hZsnzFko/bCsrE8trMeR4mSUH8fgjxrvfCX7An/bJ5ivJL4H9KRKQc2SWCIJNN3NARcMSWBK7SvFTr4Cf/kFkG4o2UCljP3ZAH5ZS23hmzMibRM84P05Vpoalt2hI1mLTeDIAc3p1KWxYxQBC7Cgj7K5Rlbs1WAkg02zy9Zgo+b//FrnNYKbP0pXELvrRJNQvVc2V+evlZ5zD8tbjFn/tt01+KI+OvztwH719WxIMwiyYZklBLMPtmWw6j3T/823Q8xV5Zazh4Spf4gVxT4YXsDTqJ1/b9vDaD6RZZU/nnVdhomkY20KpGdP5QpaV9gqlHW3NdXlN7nt9fsDlf+AHzv7MmoxcFVTTeBOtKPL76fiyOVusOzSW6VyFJiVDVb1O5mZyj14/Z7gAvwhX+D/rsYOexEqBvJ34SiJ3WabX8Gubwr5t+uggmFL7o5PMVNGgWQVDFh6bwTK/cc+bKOxzVgelZkr1Xrhje3KYms2+np79340h1lwFQ1R+c9RXHDslMzjXZt/LEQ3dhw3e4TvzohDPa5Md0Cn4d3/CMODQIHpyg46aKdPZUPspCT73luQDiLPLiyF+BC1mbrD3vKdkCoofLcmHL8MvdKrscWdYSsshbmQc/U4KSynoaZXHYnfqpjwZwdhiQ0Q7jE037FSWKLTacIbh3Q2Ci5udRKWOOS+oWN1ICSFZXVj5yEe5n3RUVgCbBCGPnekhKXEVBKOlQ4tD8b4cnCdBzmnHq9qcUzIxNdkaNeWh2pwSLpLEUwuZ3F0LgkpAI6GwQlLCcfMo+aViqCTbonU6N1cJNIfp7rLcOA16UthCWKJg4DYjnos2Gs7DMyjdj031Va3wjL9cNhFNujqhvjDqQ1+L8umZW190ZDMO6iV8E3vfW5bLgU9DAp6sWdizuXX18ldC7yKJR1yMcVzFcFeku0mN2FpPa4Qf/6tKdb55EnhWKl9Uusz5BChwZBTHCaq8qyypWcqS6Zuxt7sZHszoOjA4r6/O9B38+ZxE1DtjR7v7VIWoL/3ULvr8MwnujBvXhYqeVB+r1oU/R6W/T2oDe3tkLd/m6a4fNnskhZr+4pw53fQdvIwVkH7RiKgDe99WUuodIl0IlVHOmtM3fgTasT2i10IsQ7r3NzmOWXWdMLKJe2nMq48ivd7CSXXbz/r8D/1+gVDX9jCTOUxx2orh7w5uqHwklVY2kH7RKyweG1UCrHol8d6sWGAjKTnjjMrcoDLvKSYt3R6uHPOipCvzT5xuq0Lhz7ClPZF1XMAGAkZiJ+bUEdh+btPU+yoV3v/G4v/x4Oc/ySvmued0MnxrwmOj4QhCkzA1rXLrrZpUqrMEopWgzkrS+XljklkORW3Gwp7rucnKPCuH7pBX0zLB/HUzHB7zfJQ6b8zpWDpl5EHw+Q+QOHuup261jBnLtx0YHVD7B6e0v+CwuTkbOlEuvnicEn9NjpNfpQfK9p78kfR3+OjnsUfeChkv1CGCj2IwvIEKSxnLoyXVUaid6OVR9p09s5+mQyngWWK4vmmFJYo9ALVSzt/hs3lCTxtKyyx3F/VFfVktNMtkUJWh/hNmI2Io7BEm6HJRWV6KwwUzks6fojCchHISf8MTkEB1zK5tPPZqobO2m01tBFBvkUnXXhbBHO2FzG0DQbUrYbtjW+WwCtri7CzYK7sTTlyopcbP3VKhMZ7+XGsu6jjTBFGr7Rh56yN4DAajnylZxbeZD4MFQan4//+0znh0AYq0n5bEt1gK9p1rI0GWk6lfw4cbpfo3OTYTWAdZ9Oe6/mpFJYwXDA2VQXlrmPvWJexk5NzVfAzbGsrYG0aPoGJAigfbUYLVE1D4cCkrTJrQDMKy9XYrX8P7V5nJdcXvle1JHYjMP05NPyebvssIT7Gt/296NuBC1FYfowvIaRpQgaTXyzsNYMEahvnarCuTg4zZ+FQOgnxJ1DbvE4a1W2uQ3nB7xVJpWp5beHfZZA2dgYL8Zr54FQmTPzd1JWTW+tK/iHto1g2t+Lvk0PTLc0L0huITgGzobgt/vip4d69YJCY3NnOzETuphUclDl6JrEcFdQdtn5+PYNj9uiTtsdGGAkEO7dySddJ9kmEZfADZw5HTdhlRMBXVDX1AtO8e+EvvwcLYdRmw5liaBom1hTel2c/HsnvY5DXx+RkCId6jp9xZbZJKrBTQWFzGub8chhuGJw6cTffJZnPqfIzbNEpWGKuHVuODS0JsTvwHzTuw7jsqcSnKByuaKnzH9oyq/gZOePGu1vnv/DuqKazMtvbC/PXXR3mEc3B4mfLj2pDrTIWxmOLRfYV1vth/2IKP7Ip6H8ogp489ERemtBN1H7hGNvL0GCGLotrWup8F7XOLdpQs7R9D+8u8Rfx2GxwgvGVepKf1Dqn8PPvrxLaPw+JY9mwa22FM4P/5Lx3LgwS3pt0FoYo2Da25Sg0mTLOMQljKW6Y+rbHDQMEfkZGYFrNXr9z3wXve+2SgHsbWe6D6VSS4efHTnbv4YYNVWBKrdDDHDVM/Mg09vUFG0Sqqz3rvdA/gOWkTMSb3GlFQgw/6LxnPwqGN+223QnLVWFGYZjAwaVrDdOx9+yDzvn5wleK9XN7TyIDdN/xRQkTbpB2J2tx3obYL7CwQ7K7tMsjXvyWycxzWoMlq4IvoxbbEDs91QMLXBjHO7FeLfx0L/9lcvHbikXduzLNvBGF7IXgzCcoKC5qCRatkF9q0OtumKwBhxO7OV4p2NJoWdHslScwHb2W5Rs+it2FAsVx2qS0FSYLSn4Bg8WHciPl0I7Q2L9HIbBcNi7CIe2hLpL1aXpsu9XZUymrQ37dm6eu2XJSQT9yvNxt1Q2B3k5uuTIKsBzK3DoCMN1+UyZOOOUDgKaM58VAMhh2Zi7uAN00D1MVZY5bkyL+th5s3R8BM+UWKB5rZSy5eg7LrRNjnA9NYGLHmfLYa5hGeh0XxnWwH7vIQAgb1wvXDHn1dfixV0PT+XodlYp7mep9xkx1oQNMOxxrwk2YjQMcrhyXAk0O9bfWNBPWXIrHwOv5F1Y3abSVcsy5c7PqpEhgvTRkOJUMP5NKAcqO9eASxxf6ZGhye2J92zwcni35yihtBdY18T7j0OY63wXe3iITtco7IZlcYwlLOwTE8XO5JnxHt9YVr6ps7jo09WmsCY89Cs7C8n3TNCtbgsUXSmEpHTRcSb3KXAhLLJiWREL7VnO/sKxaGj/LNNkyF8JSWsx+pkHsDCksZy78rCzFzBVuhCXWqNWoBZ88lEBmU3cjFoRS1PWp68aJZhbpyKlzTik+joQmbxfbueL0ceDxajHsmX/ffygq903CynEldoJHdvZ27ZUoDOyN2v/ey0/z7zXe69+TG8rBKOEe2WZefzZUg5tZRwoi7SUdAXGJD1Y4w08tOIVcfQlbiQL8+KagbwqOkk46fHXghIPeLdoHhaeM9cxtfdGhesmxPae67Dslb8L6uBqSZ7tXbcNmUJh+MEqBc8ExU+ZdiSLjO9hmH5ARKK2h8nePeDuwZN+Pi/B651Wx8BnzapZu3mr9iUasf1M+KF132OqiI3y9/j1TTBwJzsjAgGs1kdxLg/he6/Yu3tMDxXvhO9unOVTyTXCJK/uMDITFRjYvxeImaiZ7cKHe2BQseh6FhqgMR+uAdd6IyaYwBwUCzz6mc/26ZXXjVkv7XzLccRNLmRegNHPwIFozdhYmhXLV47MC66ficHjyxzHpoLkUr/XZXylQs+e39RWkfraizh+X+ndlQ+xa1IBlMLp9GIsQOj75xnh54BcrTyjW+xfzfRrPOPWM8sFrsBurah2Flcyx81J68ya5FiBJFp/HbOL5BsA0L2Y71xL0y5lT9wldWwmauu7r/yhs2za8aiBD91eA1FLX4OfMykgcbdPi5+AwVOYmOxiy5iutJQ3aqSw1DVOswnz8WQf1uYHD0+qfh/j7b6v+fb92khtlGO2oz3HO5zTVFG8cSI1lIP8xK5s3r8R/QkzX5BoGU8EFTIghCUxsf6zIQWBKDVNYo1q5PoFtUlbUnfleRnrnmBn4HnwOGXpOE6nrm08Z37XlYVlG0x4SBuv2XegviO+J2T4++y1YoZniUjn55bb3QExUYLo5VmjQXKyrgdplJPRVXl6H3HFt0JbBpCjkTh9oFKFwz+5ob7wNsz3bseIKsQ77s1ua6orvl1/lvOw3WByH3/xEF5W+TTB2U0tdQC7xBqc2bD5Y+TiOmg37Bjgi4oyplzTVFVkBrtbc80j0JhzBOno+sVp14f/OwR4oIr/PaIjujX6GJ/HPfZ2vhTbuUec1VxV+AENEwdpiGbntnidEHjfB1YotNeGOCtSYb3dj2kMN/Hm7861V1kyWVdbf4A4UtL9A88se+NovtUuHzXlS9rNWFeRufsNWMPa2KdjNXrOoJdOsKN/Xj5HVcbJIJg51ujMKi82QMs9tmuPbmOl8S9U4OUvr31Jopjh7A+/rc7gllvfQvOQyrIgV249MdcUqNYaDUvshuTyX4VbTF7wPyQ2b8zwTyr4P9pjcYLdEZm0tLAdYeTZDTbUT34FyiSmH7Nk1eobq7MnTnhe/liO8bU8Kf6EVh6yM0taGOXkAB4RlZRiH0Sz1F5Z1i4gBRB92mg92Q/H8Z+pYbPofN/txKHcpdm9oUHfacsHSKp9NGsmLH59d/p4Udjrrno1K3+/ATUydMF9BGXJ2a7Do3YFDSd41H21NjsJSzs3mXJvRiB50+X3m4ujXFcGX4ZldHZ8LbKOpeU9oqvIO017ospjsGxL2wn4l3iXLpDPTeSt+dnHPLpzr803GznM53GzvTfhfgBFA60rdmirULgK79QZMUYoan7qy/oTtGsmADTO32Eh2b+Jz3xUrLs9uHlETVqs7QgB3cmIIFG63t8wpWWuXKBIqgepI/GPML5qzxHnglMMh2jCxB+E9KXvTjDeZjsNMMebo9MkkMb2TrEi9PcBI7GV/vfjnO6zoJbskm8cVAToV3/V1dLcyGxMRFsoxxdE+2YGu3fZcQY/VNswUc6UvDJlBhUwIT+FaSMXWYi87JXsi+DsOqy5snBVYZc0Bb+g4gpscNUNxODg/oQs1gRvi5f775MT8ma3xslSy8158CdWyWjlcjAqU+Sdz1+JLWr/FthIgBVrRfb3Jzu9aIT9ZwFa4Bt3ApzTOwd+IVIc7vi1DaLDCl4Iz7djJn9QybMISXxDqAYaTAi/nRecZi2sisRdNYXYIxlPMMD2gcB8zxe5VDfHDUUmVzplC144MBvc8NY+NyOZwkbPKPqtuiK5BOX5I1kSMq/nfmCZbwfZaRX8KcAlKtz+2hIovdpx6KSyHyRQXd243mMfVtDxTs575K5ZyFpgghm7DzFcDtrlPGpZizZmmcafV/1JabLt7mYbVqRzGnWwWnP3l7Tr7KY7YtqEq3CE91C/h+84qMFHOFIKekPv1rN32XMJjyPMmS41hgdlaxTorwm0hHO7ikI3vsuU5fAVJ1Giu6IHNC5+ZvU9s2gShBhriP0XHzPmupjMxWKPrcPry2QFLu6tqik6FJDyML/cQF1lD2SIuiZUXP7jyW2n1HZ1Rl+HL7VWE76FFlWzD1PvEiZNK4gtQMl6wnddWwONC0y5pDvnXyq/SPovC5zfgQlgy6XHjrKKxtugN2BEwdgL2tSfI/sT6UUr/bBg+CO+IEJuMFP8V5EhVkyhmiegeaIDcBVRPMUihDaIX60R7yjA3FPDP34v0L+aAnrSNDgvWqWWbNsj6ub1GyLb4vzMfCa/nOjfz1PtnDu3rGHEj4C/LXa7E31LlwzoYxw5Urgcg7DbpAjZEp4+cPa/3gaMNUw7JFSGcJAzTe7YXijzdqRztMMsGXR3iRXCBmS7rd1n/6jpZb5g2hT277fG+uGFZZAvyHHeoGBYGHZQrvV3YO8ig4EbM8F7SkI6FtDhpJG5bMWfCh9KpUxTpnCY2df4aC2OKU/0WMhQF4C6mituW15VYMVY4DPek9PhdeNZRWOLd39c5zFtWW/yq/F7VGN8fG6x0LlSiygkGermrF3de0jSbvYXG3ovQ+fAoXnM/CtiDZWwmvqsFKCiv7s8LQzvbtfgCb3WnkbENJlPOaaktfAl2ekQPNrwfLp/r3+QmdVU4OhU7irNRAM4CIz5OKLJBYSMwBswI6feuKQr2pJP60O79d5TpTwlD7GfvcgAe80/gmU+lnT4u3oxshPe0VhV+Di5IywKY5KSH4pP/CjkgZyYhz6HpZB/7Gw89cF3Te2ylvUexrFk4AEko9l2pYPlq1/YJ0oXj1B6l/+mwmYvbPlKF2p7wmLqW7DfQ5heg+oLyWunyKqb01Ijx2AZrrfBx+/sdmOlE0pgAnJsoNbtgNBjSLAZ0x79Rs7T3BDCT5wnOn2mu81k2LxRW4/6hx65DM8kPmZuZEgLWom3t4mXBwIotD0tHE2qIcs3MhZA9zkqubdcsOo3zlp2dFrTSxorD6sewnL+cGik9cYKbz6BN6YKmoL8FnQ8vVzV1fIsZSg16O5PNtb4/yXRyj/SqcOwKFAL/Ay7At4walHJeS13h4/B/ANSo726Z5Xccbsp3zEzzeuxbLhdymTPLNGZ/Tf+U0+NQrTjOKaLCCpz2ZA6c7t/YkjmKTMxYytox1B39Pv6Ak+7Kga+GHGDCyuinzjpxZlv1gCjwWj/Y9jcrUGQfcKKkl4NGa5nTC5Cnt3dR9FsNyl2MW25QFc8NUm33Gjg0V9V0cHgK1RoVNAZez1c6rpvBgtgl09H9D0WbTRKM9lHaeWvI074aa/M/wX9uHPheuSR2kjDgDnwfB4FjlIR8/+xhDfi1zcH0ggszwt1TNdCPTRTpj6w4ZVy8GYVoZUNsNjoBfse2WW1GWOvZmVd4lvgfiESYVRWqGzrOEcJAL3CGsFsGE7DuNuEQ6RpN+H4VqWZSwA7EElorlHs6Y3dgZ3cRuHqL+HzDmNM8u3A5jBTSPTNKy9Fic7zbjCdudko390/Rkh5TPIuC6zAYMQT3buCZtSX3Q/KO5bV+95EKafO45iT5dSPpSmMdwExXzU3cIZABFYws3r0BkekYOsMTeputhplIzwJUXEwfy+jT7Tf4FLlWha14T6ujHNJsIFTSMzqYOz6yTClm7nanwTGs82RrwvEKg5mPMkfvedoTjf+7Ilbub5GOne/fJ7SN4+K3g9DlVrpl3m5tbuWizbNa5oxb11IXeBK1weNBZzK4/Vv9t3gf3/rZjbXF1jBYrqauJLVfooyWwbQ289alXDBvT7G43HLzvwcOT7t7Y1Fed/x3OCxzniKZJokv6QdNcnWkEcTU5Y6RI2vQFtZiyHCTnhdYsDzEeuzSzrzvs4Iejf0By3EEhaUENaDizLui9pv6nIfkTGp1uSxpYyV1NIapwN0E33+VPi2IU45BQ1k2A1HyCtNBpwnHn8KNRKELzdFa6wCc0ul9ndvdqz9UVMt59bYRIhICODBomAc6LgE9PAyrwOxWlL/lG6Idy9pOYKKSZz6eKFLPXnFKWquUdrCNLPYAntnCgy6OZar6WsXSjtNaa0ueb64uWVvx4DuncP8uV+Iwf2JHd+CHK89OL5Ra0dy9K0umFgmbANgtwU7vozzNd+/A9xmoMWkaW4RV4SQ318vZKmivvaRldslDsDMjhI4V/0WuKpc21fjWuLlEHVd0Dra1U2EHIlxPjWQxyIF+YWA4jVZNoeS0+6BhWvfzOsV3mBycrKdOerXGC/oU+wTWDVRjkDHy/WWTGtzVg4exbOMsBgeEokKk7dUjLsWHVWA+WVv4RTDcXpECORtGbGdMkQHd+KlvDJXIrSLSTh0eOxeHdrezzOONXbjJl1SHY/OaQoEnWs89UIYJ3bRlgqrwpm+gXeQRLCvn2TcSId5iau+Ji6v8G9N56CxPMdGMJ45zdb21D7p5LQrLh2GnRXRg43tCZeY9m1b/85VMsY6ZmPbQx3K7CZcr0wg0QPKV6PBYi1VZk50oVuoJaBveF8tvErhYsCHVE8vcAAYEj3Or7YQc6G9ujiHQqsZlTKDraY/9gtJxAeGsM336R+RYik5izpPfax+QmNBlGA54FcXRCcvy+3q21zDTCnsCxIjLpm0eLLKGuPXnROrnI76y1LA/IBIqfbNmSWfI4HJozr5aZFaIvwqTn9E02/+e/Cq1wmQy9kes9NOYfb9Zju9mecXSzu+01vq2ClVAL/25WBtl+IurlbrxJb9gGurc1lCxJSwrwrF9U9xcgnn4OrjDME3zutZgyd3unLRDx9STTG4V7gYmV2KSexnhVUJwHYeuBmrdfVi4MWwAn2Mpf4gOi79Ab+8rTfMmboQcKSksnSbstyJJI8RzCcVz5gprZfftzrGZizYfoKrqSucpsdnub/3fzdzFHONIrVs6TWVlKWHK+OOl4BYrCBzLzWmwzGGodUoxFW7fprkhH+J1avqWJpmpVaUF5QZw9pSnk6fDheR7SLD0/jloRBUyFkg6gQwmA5BkOCCzZLG1OZmQSknafmEZKTgTusn469mfYYH13eFHmcaQpfyISOTGWb4Xg491HZ3qMdC+x/ZmzLy+oyzwkDW1CYujoiE+l6f0BVg4boLBZX17Rxj6uoHvlr2zOP5zrIBXgFsELEqlzEseO80vlwxHL2/b/vg6WvG4S81UzhQUN7YGi+8ExkZxROJiUo7UOzivbqrztYxk3tCDfqrjIreC/aU56P9u1nzgcfSQvVMVjq/AxGdlvY1sNgEYEtgCc3OXpVXMD/HhJ9olQ4XxSDnzLBJiLrYgFvD2ogQ7aG7fd5xkfLb1MNW0Lo6+TEcvOYh8xWt3XmVWffK6W6w4g8RMhxKsQZ+cXRnJPbyuU039/kiwJD7i7SV9d8OpQ8JMDVnejZgKG5lRtH76gvePLyrIK4ycN7ldHguGe3ZLRdCxw8DVDm0SrPTP90Wh7snzSqx7zAz37L4ROu/Be7hdGFYW5P3RMv/lA3NRq8JtU0H3PGW/gNW292CoWQZ+CWMRxjbjUPflEa2YKMBEJLa/YzQKh1+6yoeCziVzcNkdsGE6WqxkfG0u900b9t50nEsmxLd7zM37Q3pBEVuqG7tlPqYIkzkvIZhF/Gq69YNFioELAa3Yzlln6YlTpc5rTgum93VniMO0pm/+zUFuyyUrJ+BoMycb8mDprwiOZiU+DAIz55W6c0GucjQgLOUWFymuP52DsJTa/FKPyVBYBqx7VCzsOEKFxAoce7pfRVuYv2mq9V8yICyrw13/CcyzMgdhKYcUvzh8te9OGKsIETV4UU6e21yZuezzfMa401x6Q6RUd4vACLMAhoazywdEjqtZWNurveuYjLECTdFc+WVNXWemoV/sJi1XM4cVpTRTfkzLSeeAquu72J3HPorhZwoMEhOLFD9vOaXDkpx9ytL2PWD0cOxMTFfDNXtGVGBuierxXIcv/GvuUos+7AEv0iAwNxJKC8vKcGwu1zgKXH6Qu3vgO9ONi5tDJVewfo2nYkn8TJPp0vbkzuYpgwGB3a4K3/yR3BnSHjfvmHWmPJDj/tG5IXihF60STuWG5exSbgv7aYLDRE4qLDO98vOBsHEwDCTF/+ZXNHQfYZeourEdhaB5CKZ1F6pmZK5iJivGXjuQXuzWIV9oZJ+Z7eTU+1bB+vi/5V7mp4Mj0oa5vR+2rycBfb2J90DaxG0vF7tqhpvnfEVluNNayWz645sdwxK3fpa1/pJTZ8JwSO682LEDoyYwCxK+K+UUQqd0aAP+TBPwrZag7z450wdfslbdEL0Gy0TOxHHcViENS6JgDTbPKb1n4EhlJHo95+J+xzX8tubX7WW++e5sVTsQBj29f105onks6LE0HKdOQ2WKNskhDcjFVIR7R9v2MPgyGNMOwXIb80ffzYP4x55PsZN82TGxAI2D8Yeqpo6MM9BO/EMcOjvVMmEov3Nb57KFFfXFN0Bv50ap3DlHMzB2dkWkM+NuoLuX7Au7+ve4Cmw2FfwKzErX9v3GU/MmQmFeQTcK3YXglBPG6iuWtLsK9auKxPAC83L8vObtUn8bDK9zv8unNTBw1jC5EEOOHR61DZ4WnsY6Khti53DBmrKsfScN2i94wDg9EiqzJjoFwxsnpsB7OzauXHqqjaaiX9laU2p5MeXsHW939L9wJCKD1F16yay9KG9vCRVfCzsDgqXchgYNlpK9S3o2fhyXHd6edumw3sodRV/Jdv5YbAhKQvxGLgwLg6Tfdmk6TsUENadOZGU9Qw2nQwaYv8SAO+/yKMShTFf+VrkkelFyQ9ufpQmq4sE2Wcl8PN88FjWauzDV/uCSbGFFgbxN+FPVlM7yul1UYY5e5UdxRHawovgf6P3sgzZ1z0IlzyjbP5ns/iHjfB64ggk1L3N+hOVohwdQ3ToXs2MXLqVyri6pWBK75utr/Au3HaXJn/tJ3GRXPNd1FBob5HbGM9KPhtN0FliP569hruzy1m0Nx/UqAI6vjMSObq31//XGnwD71x5Rf8qTKFUKfX1u1xsYNYEpaan1r6haGv0+jjHu2mal9C4poJLr225rxkonD1ghPwwW45+uVqu2EOJDQxfnLguWvtB/gHl7u/8H69BVucQTyC2pPfDpDbCzwM0h73/uxP1HshRWtneZXKnGPjMX10XizzQE/X/e9kzVoug+pmD1KPAct/ewo38hTOG4GhrLfUVeg1vO1rAiuFzg2HEIh3nYFx1uT3h3Gf9aVUP8I7nAP2bw4MFMG2VcyfiDIqFDpAYmTS7u9p4Rwotl/GNTdP7As+v4D1gf+JKsdy8UlrnY8ESvXpgxP82z/ZifqAwPDEN6J1m720zkHH7/xiHxWVXheDMaDT7EZtkphFpSvaT9MFDUaVjg38EyL9j6J4grapZ2fYx/3g1OGU0LSt1FG/djmicrlsb+8eYhLA+EMkGD/MkiZbyD59zscTW6AlN6T5sB/lDd0KFgbUePszTOiPdwrHF+66zSL2Msa5ZEv4vDk4VYEi52kh+4NXvHEKxq2Vy/ZbSXYR8pFn0Exzm57djI2IPJL/yXtVxePKI2QffIqGX70Ym1pfoogCPcx9DVaKuhYEMtSwlzBTbwV/GdrBLCWA+m6sPx0OGY0//g4P6dZqM/eNp0HpTnbkpZXlcmtcx30F77FA473dYdGSx+HL6I4/ozCIPCpgcQ6diAV3F4PxPcIkQx5uRIYK6HVl+BJg81L3t+NIEyD9iVKe77Nr6OAx3upuGdZmJHMlNYpkSOJjPDIy046XxmvEYRpvnjykj8H3KhHLDNqoXbdx3AMpyW1p3TD8ahuut44FGzYW5JU13J780EGqc5uw5L/ugvhaVcVm1px1mmwlpyEZbIa0ayd1prKC0spz0k8pIs3oI/L1dh+YdEge8Su1W5RxuVFzpqSVzAqNhYEynjCTlbyyld/3D7RLk/PObuTtSAf4IvtwaGQVha9zetj/NQzRSD6vSS0IcX9v0QHzAiCyhnQ9gErivcKz/Sjt8Do5IZzEpnPOvpSGgyGGpxD+fKD2RAOrgkPX0RNWA3MpxZ9aVhZoatdrfKqtV3mq/CIMGrXdtLd4jAlLSeXvpSc63/583V6SXZpJCrCsduxTHRg/jrcwk5Wa63d32nde4Ey6Ek7Z4lRZ0Lv7SHuATTR5rr/GcNZYfHkUDvSzoLBjY6AnPF6ePi6HhYADsYIVfadfaKyvUtBxVqtSK0C3h54UYU/JfC8OFsHrDRMBtr88HQ+z5BrasBRgXskvy72darpppCePmWvKdNFJrp2TsjkAsh4mAqtqYRYc0OYr+GwS7AzJnXdVIYA0z/o/AHCuNLMePXQg57OWP5/OLw1f7K5RfsZvW6ctHgFPc+hvWuGnIAe72HVBE/E8YgRp7m2NBMIUbNi68x/89wCPYcDA3ZSQ4+z9ZSC46zeITLLX0z0lzng1W/yntExuAK53UK7TPC2K14i6cdExr2RSK8ugCvcRnktgX9trzPOf+BYyoGutm+yXBKtOHvqhB68l7TFHJTtGHeIVW8qIN24vLZJf+0S9VaVywFK5p/zEdhEDDh3jQ5JgSmR2kPoNLgZm9hC2vrXOA3dXQFbhzwvNU29O3XP9Uxx3AVsSTl7bw00/7bYwFVTzgKTAYwagJThliJXhbCp66FQYB5faVH75KB0x/CYOHWx8VIwFrvdJAwOOUMzRwXLZIb592Zy7BzAKynJtbrSy+bmjcfM+y4xK1w2ASttaocRFKTe11XgQvTyHb3Z+y5VFKcrCsJuYd83D4xGF5fnyvbeOusEnTNi99jNTwby83VSv22SGEtxIOgBirdbgUiBDrMhPIz/GtElxIeEwJTrnnJ0vuEOyOXVhP86sagr35gebeqpq7DddH3PJ50Ny/8y3vBH3Rv4JzlFbuNjl1oMHjVpIuhxqjGiTaf6d/c25c4Ds1Ry1xrXwxtbwzuMeLJk56as9s6HNr/DQYJs5ax5XHHdCZ3jPu14/4LGDxwPjooOFwlpGdfmG41O1koa7iintxUF7j7rr/1ivSiEw75dbEJWmsogHZt8T5n4lhM/Qq4QFirC8HDRX2p6gIt8JE3WRpnDh53zEqirXyS6+iL5mApaAWeZVo+n4Ll9LCQQ+lcEUIuFLOCG8aJraHi85qr3Xd46L/AcmHvKEw5GTOf03sX/VtFu2F0veQ2NM0q/l1FuKOAM7vNt9gGVLfOwsJ5YuBIZUPsJNCNRagBOC6ftdWdgDWq4Lu0uYKNXWEJcloci6m6QLsVP4AJMy+97h/6JYRICYX3YiNLoDfgnzDKPHlG+RfBsKhL8dipaJ27EIXnkZgnudLtwPJiKfwuDbBRlPfPYW3+bXN14Mu9cDiDP2KjmoBazzj8DXnWTA000KGWJX9Tn9z3W9F9GTWclLBW0m1VhecAfN6eaJEokFHS/YFG0gsrhfO7ptnnSqA4gbZt+N4j65vxz6cLCgpn4NB5Fub3m/gplgNlmaZ/VR4piN7FPx6NjWt/YOUJe1kder9WYjhKQ5erFTXiEHTGn6JyU7UZmsbm4W/FYboYj7Va2v4Hyl/H8o1isfwdbTa3N4UCz8qYxqn3CbncemLXgFiO+T9Mlj3mF/3hMjaaya1G5MIZHfh3Y6Z9wO2IzLAmgn1R25BATVPchuV/Kg4F5+Gv2tdmOT/s7MU6PN9sKNrC1pqCVWyQayIsRTNKdeP6txiHKaaedw7e53w8PMn6bengXVRccXzEeDfWtU8ZZy/optmyLFTygttnDHm5o+GmMhK/jllrXoqtDbECvhAe5aSWqqI3Bw5VNcTm4PEHACDHecmsURN9Z0ZC40dn56T/68gVqFqgSDU2FSlGoaZ4QPT0CoN7CxLrdof460eyEYsTra+3hCR/oV8ufRsbxU0/lqF5I7cQyfQF1q29WvmmcUzJQ6HJFIXr3SYPxKL/WhnbdhJBdcRa1/NXeJXdWqKyIzyjKRj4E+TAtHorL2rxYVBksp4CSOoF3GRcCLU3GeiNyW1eYAdRjx2YaQi+pnHDuCQrPBC90VNVMHYTpqKi/Ipjzj/QvPBKL/N/vnyYFZepq6yFnbSydzaV5atagaJhmfSZSVFQ3Gt0vNvbes4BXYOpI2NOYEoqw9GfY+9wzcB3/FWrjW7tpOVnfWXPqI5Eg3j8fiuWMwfwvsuNWGJu67nlOS0uSxCDpSItMO9AiW63HCEq13B6Y23AacohsQMZEzbMbZFTEpnldZOxsbAoVuY/fEBYylW/UbP8AZ5YkquwREVo2WFv+SpJWBKjiYJdPn4ch7eGMbaXLCDGqMCUSJumybRvRDv952xpSwkUlsqtO6WdMyftGO1LTzDNmLfjVh0i/r9igrvleplQRsyMQAwPY8bpk4nWusKvvFeoHlYv7bpZCHM+5M7TnUKf/Uz16CxoShBb0t9Fm+C4CZoggTnGGdMCc0twGP4jdN9dBzkjngVVhEhYEjuMtKB0HG+7CSsidiw7jcBEwdeFfsTc8is341ofmDGW5oYT/w8xLc0xCdzeijQMm6ARI8yYtWFuy/j24nuxNrkPuWDseV3vnkXCktjhcEV+HGeSkQ1z7LPTCMz7L2ApjzAuwRrlYjVs8fdUwqxdPne3oU/TIoghwqwVG4XzWpbkJR/z7ERDcmvP81jFg20nc5+2Eu2ZmeeM4zActEDtY6GhzCMmiOFDTa8TsjTJPBO5gPFf7TjADcZZEgfsKRyNp3Q133kDNmKHMiYD152Q+6gwXX1egHn4lseFEM8k17fNXNG/ajtBEMRwslMKTElls5gMyXiYMTjGOsDZK1qhmBk5Ob3LJEEQxHCz0wpMScXCDROYlvcw/ml0C+O0Z0IUOkQQBEEQBEEQBEEQBEEQBEEQBEEQBEEQBEEQBEEQBEEQBEEQBEEQBEEQBEEQBEEQBEEQBEEQBEEQBEEQBEEQBEEQBEEQBEEQBEEQBEEQBEEQBEEQBEEQBEEQBEEQBEEQBEEQBEEQBEEQBEEQBEEQBEEQBEEQBEEQBEEQBEEQBEEQBEEQBEEQBEEQBEEQBEEQBEEQBEEQBEEQBEEQBEEQBEEQBEEQBEEQBEEQBEEQBEEQBEEQBEEQBEEQBEEQBEEQBEEQBEEQBEEQBEEQBEEQBEEQBEEQBEEQBEEQBEEQBEEQBEEQ9vwvpM2Pn0rr2wIAAAAASUVORK5CYII=;" vertex="1" parent="1">
          <mxGeometry x="540" y="310.75" width="48.42" height="26.25" as="geometry" />
        </mxCell>
        <mxCell id="Sz6BR0hqmBrMi9TMJiZ0-8" value="" style="image;sketch=0;aspect=fixed;html=1;points=[];align=center;fontSize=12;image=img/lib/mscae/Data_Lake_Store.svg;" vertex="1" parent="1">
          <mxGeometry x="520" y="250.75" width="76.92" height="60" as="geometry" />
        </mxCell>
        <mxCell id="Sz6BR0hqmBrMi9TMJiZ0-9" style="edgeStyle=orthogonalEdgeStyle;rounded=0;orthogonalLoop=1;jettySize=auto;html=1;entryX=0;entryY=0.5;entryDx=0;entryDy=0;" edge="1" parent="1" source="Sz6BR0hqmBrMi9TMJiZ0-10" target="Sz6BR0hqmBrMi9TMJiZ0-4">
          <mxGeometry relative="1" as="geometry" />
        </mxCell>
        <mxCell id="Sz6BR0hqmBrMi9TMJiZ0-10" value="OLTP" style="shape=cylinder3;whiteSpace=wrap;html=1;boundedLbl=1;backgroundOutline=1;size=15;" vertex="1" parent="1">
          <mxGeometry x="20" y="326" width="60" height="80" as="geometry" />
        </mxCell>
        <mxCell id="Sz6BR0hqmBrMi9TMJiZ0-11" style="edgeStyle=orthogonalEdgeStyle;rounded=0;orthogonalLoop=1;jettySize=auto;html=1;entryX=-0.039;entryY=0.504;entryDx=0;entryDy=0;entryPerimeter=0;" edge="1" parent="1" source="Sz6BR0hqmBrMi9TMJiZ0-4" target="Sz6BR0hqmBrMi9TMJiZ0-8">
          <mxGeometry relative="1" as="geometry" />
        </mxCell>
        <mxCell id="Sz6BR0hqmBrMi9TMJiZ0-12" value="Schedule at every 10 minutes" style="text;html=1;align=center;verticalAlign=middle;resizable=0;points=[];autosize=1;strokeColor=none;fillColor=none;" vertex="1" parent="1">
          <mxGeometry x="330" y="181" width="180" height="30" as="geometry" />
        </mxCell>
      </root>
    </mxGraphModel>
  </diagram>
  <diagram id="w1M9oX5cPADuZHo21ahp" name="Page-3">
    <mxGraphModel dx="932" dy="614" grid="1" gridSize="10" guides="1" tooltips="1" connect="1" arrows="1" fold="1" page="1" pageScale="1" pageWidth="827" pageHeight="1169" math="0" shadow="0">
      <root>
        <mxCell id="0" />
        <mxCell id="1" parent="0" />
        <mxCell id="PWEUJwP_SVlIuAi55teJ-1" value="Data Preparation" style="rounded=0;whiteSpace=wrap;html=1;" vertex="1" parent="1">
          <mxGeometry x="45" y="242" width="120" height="60" as="geometry" />
        </mxCell>
        <mxCell id="PWEUJwP_SVlIuAi55teJ-24" style="edgeStyle=orthogonalEdgeStyle;rounded=0;orthogonalLoop=1;jettySize=auto;html=1;entryX=0;entryY=0.5;entryDx=0;entryDy=0;" edge="1" parent="1" source="PWEUJwP_SVlIuAi55teJ-3" target="PWEUJwP_SVlIuAi55teJ-5">
          <mxGeometry relative="1" as="geometry" />
        </mxCell>
        <mxCell id="PWEUJwP_SVlIuAi55teJ-3" value="batch_input" style="image;aspect=fixed;html=1;points=[];align=center;fontSize=12;image=img/lib/azure2/general/Folder_Blank.svg;" vertex="1" parent="1">
          <mxGeometry x="240" y="240" width="69" height="56.00000000000001" as="geometry" />
        </mxCell>
        <mxCell id="PWEUJwP_SVlIuAi55teJ-4" value="Scheduling job in Airflow" style="rounded=0;whiteSpace=wrap;html=1;" vertex="1" parent="1">
          <mxGeometry x="385" y="100" width="120" height="60" as="geometry" />
        </mxCell>
        <mxCell id="PWEUJwP_SVlIuAi55teJ-5" value="Spark batch processing" style="rounded=0;whiteSpace=wrap;html=1;" vertex="1" parent="1">
          <mxGeometry x="380" y="238" width="130" height="60" as="geometry" />
        </mxCell>
        <mxCell id="PWEUJwP_SVlIuAi55teJ-7" value="streaming_output" style="image;aspect=fixed;html=1;points=[];align=center;fontSize=12;image=img/lib/azure2/general/Folder_Blank.svg;" vertex="1" parent="1">
          <mxGeometry x="720" y="490" width="69" height="56.00000000000001" as="geometry" />
        </mxCell>
        <mxCell id="PWEUJwP_SVlIuAi55teJ-29" style="edgeStyle=orthogonalEdgeStyle;rounded=0;orthogonalLoop=1;jettySize=auto;html=1;" edge="1" parent="1" source="PWEUJwP_SVlIuAi55teJ-8" target="PWEUJwP_SVlIuAi55teJ-10">
          <mxGeometry relative="1" as="geometry" />
        </mxCell>
        <mxCell id="PWEUJwP_SVlIuAi55teJ-8" value="Data Preparation" style="rounded=0;whiteSpace=wrap;html=1;" vertex="1" parent="1">
          <mxGeometry x="40" y="368" width="120" height="60" as="geometry" />
        </mxCell>
        <mxCell id="PWEUJwP_SVlIuAi55teJ-31" style="edgeStyle=orthogonalEdgeStyle;rounded=0;orthogonalLoop=1;jettySize=auto;html=1;entryX=0;entryY=0.5;entryDx=0;entryDy=0;" edge="1" parent="1" source="PWEUJwP_SVlIuAi55teJ-9" target="PWEUJwP_SVlIuAi55teJ-13">
          <mxGeometry relative="1" as="geometry" />
        </mxCell>
        <mxCell id="PWEUJwP_SVlIuAi55teJ-9" value="Kafka Producer" style="rounded=0;whiteSpace=wrap;html=1;" vertex="1" parent="1">
          <mxGeometry x="370" y="368" width="120" height="60" as="geometry" />
        </mxCell>
        <mxCell id="PWEUJwP_SVlIuAi55teJ-30" style="edgeStyle=orthogonalEdgeStyle;rounded=0;orthogonalLoop=1;jettySize=auto;html=1;entryX=0;entryY=0.5;entryDx=0;entryDy=0;" edge="1" parent="1" source="PWEUJwP_SVlIuAi55teJ-10" target="PWEUJwP_SVlIuAi55teJ-9">
          <mxGeometry relative="1" as="geometry" />
        </mxCell>
        <mxCell id="PWEUJwP_SVlIuAi55teJ-10" value="streaming_input" style="image;aspect=fixed;html=1;points=[];align=center;fontSize=12;image=img/lib/azure2/general/Folder_Blank.svg;" vertex="1" parent="1">
          <mxGeometry x="240" y="370" width="69" height="56.00000000000001" as="geometry" />
        </mxCell>
        <mxCell id="PWEUJwP_SVlIuAi55teJ-32" style="edgeStyle=orthogonalEdgeStyle;rounded=0;orthogonalLoop=1;jettySize=auto;html=1;exitX=1;exitY=0.5;exitDx=0;exitDy=0;entryX=0;entryY=0.5;entryDx=0;entryDy=0;" edge="1" parent="1" source="PWEUJwP_SVlIuAi55teJ-13" target="PWEUJwP_SVlIuAi55teJ-14">
          <mxGeometry relative="1" as="geometry" />
        </mxCell>
        <mxCell id="PWEUJwP_SVlIuAi55teJ-13" value="kafka topic" style="rounded=1;whiteSpace=wrap;html=1;" vertex="1" parent="1">
          <mxGeometry x="530" y="368" width="120" height="60" as="geometry" />
        </mxCell>
        <mxCell id="PWEUJwP_SVlIuAi55teJ-14" value="Spark batch processing" style="rounded=0;whiteSpace=wrap;html=1;" vertex="1" parent="1">
          <mxGeometry x="680" y="366" width="130" height="60" as="geometry" />
        </mxCell>
        <mxCell id="PWEUJwP_SVlIuAi55teJ-15" value="batch_output" style="image;aspect=fixed;html=1;points=[];align=center;fontSize=12;image=img/lib/azure2/general/Folder_Blank.svg;" vertex="1" parent="1">
          <mxGeometry x="590" y="240" width="69" height="56.00000000000001" as="geometry" />
        </mxCell>
        <mxCell id="PWEUJwP_SVlIuAi55teJ-16" value="fake_data_preparation.py" style="text;html=1;align=center;verticalAlign=middle;resizable=0;points=[];autosize=1;strokeColor=none;fillColor=none;" vertex="1" parent="1">
          <mxGeometry x="26" y="298" width="160" height="30" as="geometry" />
        </mxCell>
        <mxCell id="PWEUJwP_SVlIuAi55teJ-17" value="fake_data_preparation.py" style="text;html=1;align=center;verticalAlign=middle;resizable=0;points=[];autosize=1;strokeColor=none;fillColor=none;" vertex="1" parent="1">
          <mxGeometry x="25" y="428" width="160" height="30" as="geometry" />
        </mxCell>
        <mxCell id="PWEUJwP_SVlIuAi55teJ-34" style="edgeStyle=orthogonalEdgeStyle;rounded=0;orthogonalLoop=1;jettySize=auto;html=1;entryX=0.5;entryY=0;entryDx=0;entryDy=0;" edge="1" parent="1" source="PWEUJwP_SVlIuAi55teJ-18" target="PWEUJwP_SVlIuAi55teJ-5">
          <mxGeometry relative="1" as="geometry" />
        </mxCell>
        <mxCell id="PWEUJwP_SVlIuAi55teJ-18" value="airflow_spark_submit.py" style="text;html=1;align=center;verticalAlign=middle;resizable=0;points=[];autosize=1;strokeColor=none;fillColor=none;" vertex="1" parent="1">
          <mxGeometry x="370" y="160" width="150" height="30" as="geometry" />
        </mxCell>
        <mxCell id="PWEUJwP_SVlIuAi55teJ-19" value="kafka_producer.py" style="text;html=1;align=center;verticalAlign=middle;resizable=0;points=[];autosize=1;strokeColor=none;fillColor=none;" vertex="1" parent="1">
          <mxGeometry x="366" y="428" width="120" height="30" as="geometry" />
        </mxCell>
        <mxCell id="PWEUJwP_SVlIuAi55teJ-20" value="mainapp_stream.py" style="text;html=1;align=center;verticalAlign=middle;resizable=0;points=[];autosize=1;strokeColor=none;fillColor=none;" vertex="1" parent="1">
          <mxGeometry x="680" y="428" width="130" height="30" as="geometry" />
        </mxCell>
        <mxCell id="PWEUJwP_SVlIuAi55teJ-22" value="mainapp_batch.py" style="text;html=1;align=center;verticalAlign=middle;resizable=0;points=[];autosize=1;strokeColor=none;fillColor=none;" vertex="1" parent="1">
          <mxGeometry x="385" y="300" width="120" height="30" as="geometry" />
        </mxCell>
        <mxCell id="PWEUJwP_SVlIuAi55teJ-23" style="edgeStyle=orthogonalEdgeStyle;rounded=0;orthogonalLoop=1;jettySize=auto;html=1;entryX=0;entryY=0.571;entryDx=0;entryDy=0;entryPerimeter=0;" edge="1" parent="1" source="PWEUJwP_SVlIuAi55teJ-1" target="PWEUJwP_SVlIuAi55teJ-3">
          <mxGeometry relative="1" as="geometry" />
        </mxCell>
        <mxCell id="PWEUJwP_SVlIuAi55teJ-26" style="edgeStyle=orthogonalEdgeStyle;rounded=0;orthogonalLoop=1;jettySize=auto;html=1;entryX=0.043;entryY=0.5;entryDx=0;entryDy=0;entryPerimeter=0;" edge="1" parent="1" source="PWEUJwP_SVlIuAi55teJ-5" target="PWEUJwP_SVlIuAi55teJ-15">
          <mxGeometry relative="1" as="geometry" />
        </mxCell>
        <mxCell id="PWEUJwP_SVlIuAi55teJ-33" style="edgeStyle=orthogonalEdgeStyle;rounded=0;orthogonalLoop=1;jettySize=auto;html=1;entryX=0.362;entryY=0.018;entryDx=0;entryDy=0;entryPerimeter=0;" edge="1" parent="1" source="PWEUJwP_SVlIuAi55teJ-20" target="PWEUJwP_SVlIuAi55teJ-7">
          <mxGeometry relative="1" as="geometry" />
        </mxCell>
      </root>
    </mxGraphModel>
  </diagram>
</mxfile>
